<svg xmlns="http://www.w3.org/2000/svg" width="182" height="140" viewBox="0 0 182 140" fill="none">
<g id="blackboard_layout">
<rect x="1" y="1" width="180" height="138" rx="4" fill="#444444" />
<rect x="1" y="1" width="180" height="138" rx="4" stroke="white" />
<g id="Frame 1795">
<g id="Frame 1788">
<g id="&#232;&#177;&#134;&#229;&#155;&#179;180/off">
<rect width="86" height="87.9917" transform="translate(93 33.66)" fill="#999999" fill-opacity="0.3" />
<g id="fill-icon/fill-icon_image">
<path id="currentColor" d="M152 61.66H120C118.939 61.6611 117.923 62.0828 117.173 62.8327C116.423 63.5827 116.001 64.5995 116 65.66V89.66C116.001 90.7205 116.423 91.7373 117.173 92.4873C117.923 93.2372 118.939 93.6589 120 93.66H152C153.061 93.6589 154.077 93.2372 154.827 92.4873C155.577 91.7373 155.999 90.7205 156 89.66V65.66C155.999 64.5995 155.577 63.5827 154.827 62.8327C154.077 62.0828 153.061 61.6611 152 61.66ZM125 67.66C125.593 67.66 126.173 67.836 126.667 68.1656C127.16 68.4952 127.545 68.9638 127.772 69.512C127.999 70.0601 128.058 70.6633 127.942 71.2453C127.827 71.8272 127.541 72.3618 127.121 72.7813C126.702 73.2009 126.167 73.4866 125.585 73.6024C125.003 73.7181 124.4 73.6587 123.852 73.4316C123.304 73.2046 122.835 72.8201 122.506 72.3267C122.176 71.8334 122 71.2533 122 70.66C122 70.266 122.078 69.8759 122.228 69.5119C122.379 69.1479 122.6 68.8172 122.879 68.5386C123.157 68.26 123.488 68.0391 123.852 67.8883C124.216 67.7376 124.606 67.66 125 67.66ZM136 87.66H122L130 77.66L133 81.66L139 73.66L150 87.66H136Z" fill="#999999" fill-opacity="0.5" />
</g>
</g>
</g>
</g>
<g id="Frame 1793">
<g id="Frame 1786">
<text id="(&#229;&#183;&#165;&#228;&#186;&#139;&#229;&#144;&#141;)" fill="white" xml:space="preserve" style="white-space: pre" font-family="Noto Sans JP" font-size="7" font-weight="bold" letter-spacing="0px" x="5" y="11.467"><tspan x="5" y="11.467">(&#24037;&#20107;&#21517;)</tspan></text>
</g>
<line id="Line 105" x1="37.5001" y1="1" x2="37.5001" y2="16.33" stroke="white" />
<g id="Frame 1787">
<text id="&#239;&#188;&#136;&#230;&#161;&#136;&#228;&#187;&#182;&#229;&#144;&#141;&#239;&#188;&#137;" fill="white" xml:space="preserve" style="white-space: pre" font-family="Noto Sans JP" font-size="9" font-weight="bold" letter-spacing="0px" x="41" y="12.339"><tspan x="41" y="12.339">&#65288;&#26696;&#20214;&#21517;&#65289;</tspan></text>
</g>
<line id="Line 106" x1="1" y1="15.83" x2="181" y2="15.83" stroke="white" />
</g>
<g id="Frame 1790">
<g id="Frame 1786_2">
<text id="&#233;&#160;&#133;&#231;&#155;&#174;&#229;&#144;&#141;2" fill="#8F8F8F" xml:space="preserve" style="white-space: pre" font-family="Noto Sans JP" font-size="7.5" font-weight="bold" letter-spacing="0px" x="95" y="26.765"><tspan x="95" y="26.765">&#38917;&#30446;&#21517;2</tspan></text>
</g>
<line id="Line 105_2" x1="127.5" y1="16.33" x2="127.5" y2="31.66" stroke="white" />
<line id="Line 108" x1="91.5" y1="16.33" x2="91.5" y2="31.66" stroke="white" />
<g id="Frame 1787_2">
<text id="&#233;&#160;&#133;&#231;&#155;&#174;&#229;&#134;&#133;&#229;&#174;&#185;2" fill="#8F8F8F" xml:space="preserve" style="white-space: pre" font-family="Noto Sans JP" font-size="9" font-weight="bold" letter-spacing="0px" x="131" y="27.419"><tspan x="131" y="27.419">&#38917;&#30446;&#20869;&#23481;2</tspan></text>
</g>
<g id="Frame 1786_3">
<text id="&#233;&#160;&#133;&#231;&#155;&#174;&#229;&#144;&#141;1" fill="#8F8F8F" xml:space="preserve" style="white-space: pre" font-family="Noto Sans JP" font-size="7.5" font-weight="bold" letter-spacing="0px" x="5" y="26.765"><tspan x="5" y="26.765">&#38917;&#30446;&#21517;1</tspan></text>
</g>
<line id="Line 105_3" x1="37.5" y1="16.33" x2="37.5" y2="31.2569" stroke="white" />
<g id="Frame 1787_3">
<text id="&#233;&#160;&#133;&#231;&#155;&#174;&#229;&#134;&#133;&#229;&#174;&#185;1" fill="#8F8F8F" xml:space="preserve" style="white-space: pre" font-family="Noto Sans JP" font-size="9" font-weight="bold" letter-spacing="0px" x="41" y="27.419"><tspan x="41" y="27.419">&#38917;&#30446;&#20869;&#23481;1</tspan></text>
</g>
<line id="Line 106_2" x1="1" y1="31.16" x2="181" y2="31.16" stroke="white" />
</g>
<g id="Frame 1797">
<g id="Frame 1786_4">
<text id="&#233;&#160;&#133;&#231;&#155;&#174;&#229;&#144;&#141;3" fill="#8F8F8F" xml:space="preserve" style="white-space: pre" font-family="Noto Sans JP" font-size="7.5" font-weight="bold" letter-spacing="0px" x="5" y="42.095"><tspan x="5" y="42.095">&#38917;&#30446;&#21517;3</tspan></text>
</g>
<line id="Line 105_4" x1="37.5" y1="31.66" x2="37.5" y2="46.99" stroke="white" />
<line id="Line 107" x1="91.5" y1="31.66" x2="91.5" y2="46.99" stroke="white" />
<g id="Frame 1787_4">
<text id="&#233;&#160;&#133;&#231;&#155;&#174;&#229;&#134;&#133;&#229;&#174;&#185;3" fill="#8F8F8F" xml:space="preserve" style="white-space: pre" font-family="Noto Sans JP" font-size="9" font-weight="bold" letter-spacing="0px" x="41" y="42.749"><tspan x="41" y="42.749">&#38917;&#30446;&#20869;&#23481;3</tspan></text>
</g>
<line id="Line 106_3" x1="1" y1="46.49" x2="91" y2="46.49" stroke="white" />
</g>
<g id="Frame 1798">
<g id="Frame 1786_5">
<text id="&#233;&#160;&#133;&#231;&#155;&#174;&#229;&#144;&#141;4" fill="#8F8F8F" xml:space="preserve" style="white-space: pre" font-family="Noto Sans JP" font-size="7.5" font-weight="bold" letter-spacing="0px" x="5" y="57.425"><tspan x="5" y="57.425">&#38917;&#30446;&#21517;4</tspan></text>
</g>
<line id="Line 105_5" x1="37.5" y1="46.99" x2="37.5" y2="62.32" stroke="white" />
<line id="Line 107_2" x1="91.5" y1="46.99" x2="91.5" y2="62.32" stroke="white" />
<g id="Frame 1787_5">
<text id="&#233;&#160;&#133;&#231;&#155;&#174;&#229;&#134;&#133;&#229;&#174;&#185;4" fill="#8F8F8F" xml:space="preserve" style="white-space: pre" font-family="Noto Sans JP" font-size="9" font-weight="bold" letter-spacing="0px" x="41" y="58.079"><tspan x="41" y="58.079">&#38917;&#30446;&#20869;&#23481;4</tspan></text>
</g>
<line id="Line 106_4" x1="1" y1="61.82" x2="91" y2="61.82" stroke="white" />
</g>
<g id="Frame 1799">
<g id="Frame 1786_6">
<text id="&#233;&#160;&#133;&#231;&#155;&#174;&#229;&#144;&#141;5" fill="#8F8F8F" xml:space="preserve" style="white-space: pre" font-family="Noto Sans JP" font-size="7.5" font-weight="bold" letter-spacing="0px" x="5" y="72.755"><tspan x="5" y="72.755">&#38917;&#30446;&#21517;5</tspan></text>
</g>
<line id="Line 105_6" x1="37.5" y1="62.32" x2="37.5" y2="77.65" stroke="white" />
<line id="Line 107_3" x1="91.5" y1="62.32" x2="91.5" y2="77.65" stroke="white" />
<g id="Frame 1787_6">
<text id="&#233;&#160;&#133;&#231;&#155;&#174;&#229;&#134;&#133;&#229;&#174;&#185;5" fill="#8F8F8F" xml:space="preserve" style="white-space: pre" font-family="Noto Sans JP" font-size="9" font-weight="bold" letter-spacing="0px" x="41" y="73.409"><tspan x="41" y="73.409">&#38917;&#30446;&#20869;&#23481;5</tspan></text>
</g>
<line id="Line 106_5" x1="1" y1="77.15" x2="91" y2="77.15" stroke="white" />
</g>
<g id="Frame 1800">
<g id="Frame 1786_7">
<text id="&#233;&#160;&#133;&#231;&#155;&#174;&#229;&#144;&#141;6" fill="#8F8F8F" xml:space="preserve" style="white-space: pre" font-family="Noto Sans JP" font-size="7.5" font-weight="bold" letter-spacing="0px" x="5" y="88.085"><tspan x="5" y="88.085">&#38917;&#30446;&#21517;6</tspan></text>
</g>
<line id="Line 105_7" x1="37.5" y1="77.65" x2="37.5" y2="92.98" stroke="white" />
<line id="Line 107_4" x1="91.5" y1="77.65" x2="91.5" y2="92.98" stroke="white" />
<g id="Frame 1787_7">
<text id="&#233;&#160;&#133;&#231;&#155;&#174;&#229;&#134;&#133;&#229;&#174;&#185;6" fill="#8F8F8F" xml:space="preserve" style="white-space: pre" font-family="Noto Sans JP" font-size="9" font-weight="bold" letter-spacing="0px" x="41" y="88.739"><tspan x="41" y="88.739">&#38917;&#30446;&#20869;&#23481;6</tspan></text>
</g>
<line id="Line 106_6" x1="1" y1="92.48" x2="91" y2="92.48" stroke="white" />
</g>
<g id="Frame 1801">
<g id="Frame 1786_8">
<text id="&#233;&#160;&#133;&#231;&#155;&#174;&#229;&#144;&#141;7" fill="#8F8F8F" xml:space="preserve" style="white-space: pre" font-family="Noto Sans JP" font-size="7.5" font-weight="bold" letter-spacing="0px" x="5" y="103.415"><tspan x="5" y="103.415">&#38917;&#30446;&#21517;7</tspan></text>
</g>
<line id="Line 105_8" x1="37.5" y1="92.98" x2="37.5" y2="108.31" stroke="white" />
<line id="Line 107_5" x1="91.5" y1="92.98" x2="91.5" y2="108.31" stroke="white" />
<g id="Frame 1787_8">
<text id="&#233;&#160;&#133;&#231;&#155;&#174;&#229;&#134;&#133;&#229;&#174;&#185;7" fill="#8F8F8F" xml:space="preserve" style="white-space: pre" font-family="Noto Sans JP" font-size="9" font-weight="bold" letter-spacing="0px" x="41" y="104.069"><tspan x="41" y="104.069">&#38917;&#30446;&#20869;&#23481;7</tspan></text>
</g>
<line id="Line 106_7" x1="1" y1="107.81" x2="91" y2="107.81" stroke="white" />
</g>
<g id="Frame 1802">
<g id="Frame 1786_9">
<text id="&#233;&#160;&#133;&#231;&#155;&#174;&#229;&#144;&#141;8" fill="#8F8F8F" xml:space="preserve" style="white-space: pre" font-family="Noto Sans JP" font-size="7.5" font-weight="bold" letter-spacing="0px" x="5" y="118.745"><tspan x="5" y="118.745">&#38917;&#30446;&#21517;8</tspan></text>
</g>
<line id="Line 105_9" x1="37.5" y1="108.31" x2="37.5" y2="123.64" stroke="white" />
<line id="Line 107_6" x1="91.5" y1="108.31" x2="91.5" y2="123.64" stroke="white" />
<g id="Frame 1787_9">
<text id="&#233;&#160;&#133;&#231;&#155;&#174;&#229;&#134;&#133;&#229;&#174;&#185;8" fill="#8F8F8F" xml:space="preserve" style="white-space: pre" font-family="Noto Sans JP" font-size="9" font-weight="bold" letter-spacing="0px" x="41" y="119.399"><tspan x="41" y="119.399">&#38917;&#30446;&#20869;&#23481;8</tspan></text>
</g>
</g>
<g id="Frame 1792">
<g id="Frame 1787_10">
<text id="&#239;&#188;&#136;&#232;&#168;&#173;&#229;&#174;&#154;&#227;&#129;&#149;&#227;&#130;&#140;&#227;&#129;&#159;&#230;&#150;&#189;&#229;&#183;&#165;&#232;&#128;&#133;&#229;&#144;&#141;&#239;&#188;&#137;" fill="white" xml:space="preserve" style="white-space: pre" font-family="Noto Sans JP" font-size="9" font-weight="bold" letter-spacing="0px" x="78" y="134.729"><tspan x="78" y="134.729">&#65288;&#35373;&#23450;&#12373;&#12428;&#12383;&#26045;&#24037;&#32773;&#21517;&#65289;</tspan></text>
</g>
<line id="Line 106_8" x1="1" y1="123.17" x2="181" y2="123.17" stroke="white" />
</g>
</g>
</svg>