<svg xmlns="http://www.w3.org/2000/svg" width="182" height="140" viewBox="0 0 182 140" fill="none">
<g id="blackboard_layout">
<rect x="1" y="1" width="180" height="138" rx="4" fill="#444444" />
<rect x="1" y="1" width="180" height="138" rx="4" stroke="white" />
<g id="Frame 1793">
<g id="Frame 1786">
<text id="(&#229;&#183;&#165;&#228;&#186;&#139;&#229;&#144;&#141;)" fill="white" xml:space="preserve" style="white-space: pre" font-family="Noto Sans JP" font-size="6.5" font-weight="bold" letter-spacing="0px" x="5" y="10.484"><tspan x="5" y="10.484">(&#24037;&#20107;&#21517;)</tspan></text>
</g>
<line id="Line 105" x1="37.5001" y1="1" x2="37.5001" y2="14.8" stroke="white" />
<g id="Frame 1787">
<text id="&#239;&#188;&#136;&#230;&#161;&#136;&#228;&#187;&#182;&#229;&#144;&#141;&#239;&#188;&#137;" fill="white" xml:space="preserve" style="white-space: pre" font-family="Noto Sans JP" font-size="8.5" font-weight="bold" letter-spacing="0px" x="41" y="11.356"><tspan x="41" y="11.356">&#65288;&#26696;&#20214;&#21517;&#65289;</tspan></text>
</g>
<line id="Line 106" x1="1" y1="14.3" x2="181" y2="14.3" stroke="white" />
</g>
<g id="Frame 1799">
<g id="Frame 1786_2">
<text id="&#233;&#160;&#133;&#231;&#155;&#174;&#229;&#144;&#141;3" fill="#8F8F8F" xml:space="preserve" style="white-space: pre" font-family="Noto Sans JP" font-size="6.5" font-weight="bold" letter-spacing="0px" x="5" y="51.634"><tspan x="5" y="51.634">&#38917;&#30446;&#21517;3</tspan></text>
</g>
<line id="Line 105_2" x1="37.5" y1="42.4" x2="37.5" y2="56.2" stroke="white" />
<line id="Line 107" x1="91.5" y1="42.4" x2="91.5" y2="56.2" stroke="white" />
<g id="Frame 1787_2">
<text id="&#233;&#160;&#133;&#231;&#155;&#174;&#229;&#134;&#133;&#229;&#174;&#185;3" fill="#8F8F8F" xml:space="preserve" style="white-space: pre" font-family="Noto Sans JP" font-size="8.5" font-weight="bold" letter-spacing="0px" x="41" y="52.506"><tspan x="41" y="52.506">&#38917;&#30446;&#20869;&#23481;3</tspan></text>
</g>
<line id="Line 106_2" x1="1" y1="55.7" x2="91" y2="55.7" stroke="white" />
</g>
<g id="Frame 1806">
<g id="Frame 1786_3">
<text id="&#233;&#160;&#133;&#231;&#155;&#174;&#229;&#144;&#141;2" fill="#8F8F8F" xml:space="preserve" style="white-space: pre" font-family="Noto Sans JP" font-size="6.5" font-weight="bold" letter-spacing="0px" x="5" y="37.834"><tspan x="5" y="37.834">&#38917;&#30446;&#21517;2</tspan></text>
</g>
<line id="Line 105_3" x1="37.5" y1="28.6" x2="37.5" y2="42.4" stroke="white" />
<line id="Line 107_2" x1="91.5" y1="28.6" x2="91.5" y2="42.4" stroke="white" />
<g id="Frame 1787_3">
<text id="&#233;&#160;&#133;&#231;&#155;&#174;&#229;&#134;&#133;&#229;&#174;&#185;2" fill="#8F8F8F" xml:space="preserve" style="white-space: pre" font-family="Noto Sans JP" font-size="8.5" font-weight="bold" letter-spacing="0px" x="41" y="38.706"><tspan x="41" y="38.706">&#38917;&#30446;&#20869;&#23481;2</tspan></text>
</g>
<line id="Line 106_3" x1="1" y1="41.9" x2="91" y2="41.9" stroke="white" />
</g>
<g id="Frame 1805">
<g id="Frame 1786_4">
<text id="&#233;&#160;&#133;&#231;&#155;&#174;&#229;&#144;&#141;1" fill="#8F8F8F" xml:space="preserve" style="white-space: pre" font-family="Noto Sans JP" font-size="6.5" font-weight="bold" letter-spacing="0px" x="5" y="24.034"><tspan x="5" y="24.034">&#38917;&#30446;&#21517;1</tspan></text>
</g>
<line id="Line 105_4" x1="37.5" y1="14.8" x2="37.5" y2="28.6" stroke="white" />
<line id="Line 107_3" x1="91.5" y1="14.8" x2="91.5" y2="28.6" stroke="white" />
<g id="Frame 1787_4">
<text id="&#233;&#160;&#133;&#231;&#155;&#174;&#229;&#134;&#133;&#229;&#174;&#185;1" fill="#8F8F8F" xml:space="preserve" style="white-space: pre" font-family="Noto Sans JP" font-size="8.5" font-weight="bold" letter-spacing="0px" x="41" y="24.906"><tspan x="41" y="24.906">&#38917;&#30446;&#20869;&#23481;1</tspan></text>
</g>
<line id="Line 106_4" x1="1" y1="28.1" x2="91" y2="28.1" stroke="white" />
</g>
<g id="Frame 1800">
<g id="Frame 1786_5">
<text id="&#233;&#160;&#133;&#231;&#155;&#174;&#229;&#144;&#141;4" fill="#8F8F8F" xml:space="preserve" style="white-space: pre" font-family="Noto Sans JP" font-size="6.5" font-weight="bold" letter-spacing="0px" x="5" y="65.434"><tspan x="5" y="65.434">&#38917;&#30446;&#21517;4</tspan></text>
</g>
<line id="Line 105_5" x1="37.5" y1="56.2" x2="37.5" y2="70" stroke="white" />
<line id="Line 107_4" x1="91.5" y1="56.2" x2="91.5" y2="70" stroke="white" />
<g id="Frame 1787_5">
<text id="&#233;&#160;&#133;&#231;&#155;&#174;&#229;&#134;&#133;&#229;&#174;&#185;4" fill="#8F8F8F" xml:space="preserve" style="white-space: pre" font-family="Noto Sans JP" font-size="8.5" font-weight="bold" letter-spacing="0px" x="41" y="66.306"><tspan x="41" y="66.306">&#38917;&#30446;&#20869;&#23481;4</tspan></text>
</g>
<line id="Line 106_5" x1="1" y1="69.5" x2="91" y2="69.5" stroke="white" />
</g>
<g id="Frame 1801">
<g id="Frame 1786_6">
<text id="&#233;&#160;&#133;&#231;&#155;&#174;&#229;&#144;&#141;5" fill="#8F8F8F" xml:space="preserve" style="white-space: pre" font-family="Noto Sans JP" font-size="6.5" font-weight="bold" letter-spacing="0px" x="5" y="79.234"><tspan x="5" y="79.234">&#38917;&#30446;&#21517;5</tspan></text>
</g>
<line id="Line 105_6" x1="37.5" y1="70" x2="37.5" y2="83.8" stroke="white" />
<line id="Line 107_5" x1="91.5" y1="70" x2="91.5" y2="83.8" stroke="white" />
<g id="Frame 1787_6">
<text id="&#233;&#160;&#133;&#231;&#155;&#174;&#229;&#134;&#133;&#229;&#174;&#185;5" fill="#8F8F8F" xml:space="preserve" style="white-space: pre" font-family="Noto Sans JP" font-size="8.5" font-weight="bold" letter-spacing="0px" x="41" y="80.106"><tspan x="41" y="80.106">&#38917;&#30446;&#20869;&#23481;5</tspan></text>
</g>
<line id="Line 106_6" x1="1" y1="83.3" x2="91" y2="83.3" stroke="white" />
</g>
<g id="&#229;&#130;&#153;&#232;&#128;&#131;">
<g id="Frame 1788">
<g id="&#232;&#177;&#134;&#229;&#155;&#179;180/&#229;&#130;&#153;&#232;&#128;&#131;&#230;&#172;&#132;">
<text id="&#229;&#130;&#153;&#232;&#128;&#131;_2" fill="#8F8F8F" xml:space="preserve" style="white-space: pre" font-family="Noto Sans JP" font-size="9" font-weight="bold" letter-spacing="0px" x="5" y="96.224"><tspan x="5" y="96.224">&#20633;&#32771;</tspan></text>
</g>
</g>
<line id="Line 107_6" x1="91.5" y1="83.8" x2="91.5" y2="139" stroke="white" />
</g>
<g id="&#232;&#177;&#134;&#229;&#155;&#179;">
<g id="&#232;&#177;&#134;&#229;&#155;&#179;180/off">
<rect width="86" height="120.2" transform="translate(93 16.8)" fill="#999999" fill-opacity="0.3" />
<g id="fill-icon/fill-icon_image">
<path id="currentColor" d="M152 60.8H120C118.939 60.8011 117.923 61.2228 117.173 61.9727C116.423 62.7227 116.001 63.7395 116 64.8V88.8C116.001 89.8605 116.423 90.8773 117.173 91.6273C117.923 92.3772 118.939 92.7989 120 92.8H152C153.061 92.7989 154.077 92.3772 154.827 91.6273C155.577 90.8773 155.999 89.8605 156 88.8V64.8C155.999 63.7395 155.577 62.7227 154.827 61.9727C154.077 61.2228 153.061 60.8011 152 60.8ZM125 66.8C125.593 66.8 126.173 66.976 126.667 67.3056C127.16 67.6352 127.545 68.1038 127.772 68.652C127.999 69.2001 128.058 69.8033 127.942 70.3853C127.827 70.9672 127.541 71.5018 127.121 71.9213C126.702 72.3409 126.167 72.6266 125.585 72.7424C125.003 72.8581 124.4 72.7987 123.852 72.5716C123.304 72.3446 122.835 71.9601 122.506 71.4667C122.176 70.9734 122 70.3933 122 69.8C122 69.406 122.078 69.0159 122.228 68.6519C122.379 68.2879 122.6 67.9572 122.879 67.6786C123.157 67.4 123.488 67.1791 123.852 67.0283C124.216 66.8776 124.606 66.8 125 66.8ZM136 86.8H122L130 76.8L133 80.8L139 72.8L150 86.8H136Z" fill="#999999" fill-opacity="0.5" />
</g>
</g>
</g>
</g>
</svg>