<svg xmlns="http://www.w3.org/2000/svg" width="182" height="140" viewBox="0 0 182 140" fill="none">
<g id="blackboard_layout">
<rect x="1" y="1" width="180" height="138" rx="4" fill="#444444" />
<rect x="1" y="1" width="180" height="138" rx="4" stroke="white" />
<g id="Frame 1900">
<g id="Frame 1793">
<g id="Frame 1786">
<text id="(&#229;&#183;&#165;&#228;&#186;&#139;&#229;&#144;&#141;)" fill="white" xml:space="preserve" style="white-space: pre" font-family="Noto Sans JP" font-size="6.5" font-weight="bold" letter-spacing="0px" x="5" y="10.484"><tspan x="5" y="10.484">(&#24037;&#20107;&#21517;)</tspan></text>
</g>
<line id="Line 105" x1="37.5001" y1="1" x2="37.5001" y2="14.8" stroke="white" />
<g id="Frame 1787">
<text id="&#239;&#188;&#136;&#230;&#161;&#136;&#228;&#187;&#182;&#229;&#144;&#141;&#239;&#188;&#137;" fill="white" xml:space="preserve" style="white-space: pre" font-family="Noto Sans JP" font-size="8.5" font-weight="bold" letter-spacing="0px" x="41" y="11.356"><tspan x="41" y="11.356">&#65288;&#26696;&#20214;&#21517;&#65289;</tspan></text>
</g>
<line id="Line 106" x1="1" y1="14.3" x2="181" y2="14.3" stroke="white" />
</g>
<g id="Frame 1799">
<g id="Frame 1786_2">
<text id="&#233;&#160;&#133;&#231;&#155;&#174;&#229;&#144;&#141;3" fill="#8F8F8F" xml:space="preserve" style="white-space: pre" font-family="Noto Sans JP" font-size="6.5" font-weight="bold" letter-spacing="0px" x="5" y="51.634"><tspan x="5" y="51.634">&#38917;&#30446;&#21517;3</tspan></text>
</g>
<line id="Line 105_2" x1="37.5" y1="42.4" x2="37.5" y2="56.2" stroke="white" />
<line id="Line 107" x1="91.5" y1="42.4" x2="91.5" y2="56.2" stroke="white" />
<g id="Frame 1787_2">
<text id="&#233;&#160;&#133;&#231;&#155;&#174;&#229;&#134;&#133;&#229;&#174;&#185;3" fill="#8F8F8F" xml:space="preserve" style="white-space: pre" font-family="Noto Sans JP" font-size="8.5" font-weight="bold" letter-spacing="0px" x="41" y="52.506"><tspan x="41" y="52.506">&#38917;&#30446;&#20869;&#23481;3</tspan></text>
</g>
<line id="Line 106_2" x1="1" y1="55.7" x2="91" y2="55.7" stroke="white" />
</g>
<g id="Frame 1806">
<g id="Frame 1786_3">
<text id="&#233;&#160;&#133;&#231;&#155;&#174;&#229;&#144;&#141;2" fill="#8F8F8F" xml:space="preserve" style="white-space: pre" font-family="Noto Sans JP" font-size="6.5" font-weight="bold" letter-spacing="0px" x="5" y="37.834"><tspan x="5" y="37.834">&#38917;&#30446;&#21517;2</tspan></text>
</g>
<line id="Line 105_3" x1="37.5" y1="28.6" x2="37.5" y2="42.4" stroke="white" />
<line id="Line 107_2" x1="91.5" y1="28.6" x2="91.5" y2="42.4" stroke="white" />
<g id="Frame 1787_3">
<text id="&#233;&#160;&#133;&#231;&#155;&#174;&#229;&#134;&#133;&#229;&#174;&#185;2" fill="#8F8F8F" xml:space="preserve" style="white-space: pre" font-family="Noto Sans JP" font-size="8.5" font-weight="bold" letter-spacing="0px" x="41" y="38.706"><tspan x="41" y="38.706">&#38917;&#30446;&#20869;&#23481;2</tspan></text>
</g>
<line id="Line 106_3" x1="1" y1="41.9" x2="91" y2="41.9" stroke="white" />
</g>
<g id="Frame 1805">
<g id="Frame 1786_4">
<text id="&#233;&#160;&#133;&#231;&#155;&#174;&#229;&#144;&#141;1" fill="#8F8F8F" xml:space="preserve" style="white-space: pre" font-family="Noto Sans JP" font-size="6.5" font-weight="bold" letter-spacing="0px" x="5" y="24.034"><tspan x="5" y="24.034">&#38917;&#30446;&#21517;1</tspan></text>
</g>
<line id="Line 105_4" x1="37.5" y1="14.8" x2="37.5" y2="28.6" stroke="white" />
<line id="Line 107_3" x1="91.5" y1="14.8" x2="91.5" y2="28.6" stroke="white" />
<g id="Frame 1787_4">
<text id="&#233;&#160;&#133;&#231;&#155;&#174;&#229;&#134;&#133;&#229;&#174;&#185;1" fill="#8F8F8F" xml:space="preserve" style="white-space: pre" font-family="Noto Sans JP" font-size="8.5" font-weight="bold" letter-spacing="0px" x="41" y="24.906"><tspan x="41" y="24.906">&#38917;&#30446;&#20869;&#23481;1</tspan></text>
</g>
<line id="Line 106_4" x1="1" y1="28.1" x2="91" y2="28.1" stroke="white" />
</g>
<g id="Frame 1800">
<g id="Frame 1786_5">
<text id="&#233;&#160;&#133;&#231;&#155;&#174;&#229;&#144;&#141;4" fill="#8F8F8F" xml:space="preserve" style="white-space: pre" font-family="Noto Sans JP" font-size="6.5" font-weight="bold" letter-spacing="0px" x="5" y="65.434"><tspan x="5" y="65.434">&#38917;&#30446;&#21517;4</tspan></text>
</g>
<line id="Line 105_5" x1="37.5" y1="56.2" x2="37.5" y2="70" stroke="white" />
<line id="Line 107_4" x1="91.5" y1="56.2" x2="91.5" y2="70" stroke="white" />
<g id="Frame 1787_5">
<text id="&#233;&#160;&#133;&#231;&#155;&#174;&#229;&#134;&#133;&#229;&#174;&#185;4" fill="#8F8F8F" xml:space="preserve" style="white-space: pre" font-family="Noto Sans JP" font-size="8.5" font-weight="bold" letter-spacing="0px" x="41" y="66.306"><tspan x="41" y="66.306">&#38917;&#30446;&#20869;&#23481;4</tspan></text>
</g>
<line id="Line 106_5" x1="1" y1="69.5" x2="91" y2="69.5" stroke="white" />
</g>
<g id="Frame 1801">
<g id="Frame 1786_6">
<text id="&#233;&#160;&#133;&#231;&#155;&#174;&#229;&#144;&#141;5" fill="#8F8F8F" xml:space="preserve" style="white-space: pre" font-family="Noto Sans JP" font-size="6.5" font-weight="bold" letter-spacing="0px" x="5" y="79.234"><tspan x="5" y="79.234">&#38917;&#30446;&#21517;5</tspan></text>
</g>
<line id="Line 105_6" x1="37.5" y1="70" x2="37.5" y2="83.8" stroke="white" />
<line id="Line 107_5" x1="91.5" y1="70" x2="91.5" y2="83.8" stroke="white" />
<g id="Frame 1787_6">
<text id="&#233;&#160;&#133;&#231;&#155;&#174;&#229;&#134;&#133;&#229;&#174;&#185;5" fill="#8F8F8F" xml:space="preserve" style="white-space: pre" font-family="Noto Sans JP" font-size="8.5" font-weight="bold" letter-spacing="0px" x="41" y="80.106"><tspan x="41" y="80.106">&#38917;&#30446;&#20869;&#23481;5</tspan></text>
</g>
<line id="Line 106_6" x1="1" y1="83.3" x2="91" y2="83.3" stroke="white" />
</g>
<g id="&#229;&#130;&#153;&#232;&#128;&#131;">
<g id="Frame 1788">
<g id="&#232;&#177;&#134;&#229;&#155;&#179;180/&#229;&#130;&#153;&#232;&#128;&#131;&#230;&#172;&#132;">
<text id="&#229;&#130;&#153;&#232;&#128;&#131;_2" fill="#8F8F8F" xml:space="preserve" style="white-space: pre" font-family="Noto Sans JP" font-size="9" font-weight="bold" letter-spacing="0px" x="5" y="96.224"><tspan x="5" y="96.224">&#20633;&#32771;</tspan></text>
</g>
</g>
<line id="Line 107_6" x1="91.5" y1="83.8" x2="91.5" y2="125.2" stroke="white" />
</g>
<g id="&#232;&#177;&#134;&#229;&#155;&#179;">
<g id="&#232;&#177;&#134;&#229;&#155;&#179;180/off">
<rect width="86" height="106.4" transform="translate(93 16.8)" fill="#999999" fill-opacity="0.3" />
<g id="fill-icon/fill-icon_image">
<path id="currentColor" d="M152 53.8H120C118.939 53.8011 117.923 54.2228 117.173 54.9727C116.423 55.7227 116.001 56.7395 116 57.8V81.8C116.001 82.8605 116.423 83.8773 117.173 84.6273C117.923 85.3772 118.939 85.7989 120 85.8H152C153.061 85.7989 154.077 85.3772 154.827 84.6273C155.577 83.8773 155.999 82.8605 156 81.8V57.8C155.999 56.7395 155.577 55.7227 154.827 54.9727C154.077 54.2228 153.061 53.8011 152 53.8ZM125 59.8C125.593 59.8 126.173 59.976 126.667 60.3056C127.16 60.6352 127.545 61.1038 127.772 61.652C127.999 62.2001 128.058 62.8033 127.942 63.3853C127.827 63.9672 127.541 64.5018 127.121 64.9213C126.702 65.3409 126.167 65.6266 125.585 65.7424C125.003 65.8581 124.4 65.7987 123.852 65.5716C123.304 65.3446 122.835 64.9601 122.506 64.4667C122.176 63.9734 122 63.3933 122 62.8C122 62.406 122.078 62.0159 122.228 61.6519C122.379 61.2879 122.6 60.9572 122.879 60.6786C123.157 60.4 123.488 60.1791 123.852 60.0283C124.216 59.8776 124.606 59.8 125 59.8ZM136 79.8H122L130 69.8L133 73.8L139 65.8L150 79.8H136Z" fill="#999999" fill-opacity="0.5" />
</g>
</g>
</g>
</g>
<g id="Frame 1792">
<g id="Frame 1786_7">
<text id="&#239;&#188;&#136;&#230;&#146;&#174;&#229;&#189;&#177;&#230;&#151;&#165;&#239;&#188;&#137;" fill="white" xml:space="preserve" style="white-space: pre" font-family="Noto Sans JP" font-size="8.5" font-weight="bold" letter-spacing="0px" x="5" y="135.306"><tspan x="5" y="135.306">&#65288;&#25774;&#24433;&#26085;&#65289;</tspan></text>
</g>
<line id="Line 105_7" x1="73.5" y1="125.2" x2="73.5" y2="139" stroke="white" />
<g id="Frame 1787_7">
<text id="&#239;&#188;&#136;&#232;&#168;&#173;&#229;&#174;&#154;&#227;&#129;&#149;&#227;&#130;&#140;&#227;&#129;&#159;&#230;&#150;&#189;&#229;&#183;&#165;&#232;&#128;&#133;&#229;&#144;&#141;&#239;&#188;&#137;" fill="white" xml:space="preserve" style="white-space: pre" font-family="Noto Sans JP" font-size="8.5" font-weight="bold" letter-spacing="0px" x="77" y="135.306"><tspan x="77" y="135.306">&#65288;&#35373;&#23450;&#12373;&#12428;&#12383;&#26045;&#24037;&#32773;&#21517;&#65289;</tspan></text>
</g>
<line id="Line 106_7" x1="1" y1="124.7" x2="181" y2="124.7" stroke="white" />
</g>
</g>
</svg>