<svg xmlns="http://www.w3.org/2000/svg" width="182" height="140" viewBox="0 0 182 140" fill="none">
<g id="blackboard_layout">
<rect x="1" y="1" width="180" height="138" rx="4" fill="#444444" />
<rect x="1" y="1" width="180" height="138" rx="4" stroke="white" />
<g id="Frame 1795">
<g id="Frame 1788">
<g id="&#232;&#177;&#134;&#229;&#155;&#179;180/off">
<rect width="86" height="87.98" transform="translate(93 48.99)" fill="#999999" fill-opacity="0.3" />
<g id="fill-icon/fill-icon_image">
<path id="currentColor" d="M152 76.99H120C118.939 76.9911 117.923 77.4128 117.173 78.1627C116.423 78.9127 116.001 79.9295 116 80.99V104.99C116.001 106.051 116.423 107.067 117.173 107.817C117.923 108.567 118.939 108.989 120 108.99H152C153.061 108.989 154.077 108.567 154.827 107.817C155.577 107.067 155.999 106.051 156 104.99V80.99C155.999 79.9295 155.577 78.9127 154.827 78.1627C154.077 77.4128 153.061 76.9911 152 76.99ZM125 82.99C125.593 82.99 126.173 83.1659 126.667 83.4956C127.16 83.8252 127.545 84.2938 127.772 84.8419C127.999 85.3901 128.058 85.9933 127.942 86.5753C127.827 87.1572 127.541 87.6918 127.121 88.1113C126.702 88.5309 126.167 88.8166 125.585 88.9324C125.003 89.0481 124.4 88.9887 123.852 88.7616C123.304 88.5346 122.835 88.1501 122.506 87.6567C122.176 87.1634 122 86.5833 122 85.99C122 85.596 122.078 85.2059 122.228 84.8419C122.379 84.4779 122.6 84.1472 122.879 83.8686C123.157 83.59 123.488 83.3691 123.852 83.2183C124.216 83.0676 124.606 82.99 125 82.99ZM136 102.99H122L130 92.99L133 96.99L139 88.99L150 102.99H136Z" fill="#999999" fill-opacity="0.5" />
</g>
</g>
</g>
</g>
<g id="Frame 1900">
<g id="Frame 1793">
<g id="Frame 1786">
<text id="(&#229;&#183;&#165;&#228;&#186;&#139;&#229;&#144;&#141;)" fill="white" xml:space="preserve" style="white-space: pre" font-family="Noto Sans JP" font-size="6.5" font-weight="bold" letter-spacing="0px" x="5" y="11.249"><tspan x="5" y="11.249">(&#24037;&#20107;&#21517;)</tspan></text>
</g>
<line id="Line 105" x1="37.5001" y1="1" x2="37.5001" y2="16.33" stroke="white" />
<g id="Frame 1787">
<text id="&#239;&#188;&#136;&#230;&#161;&#136;&#228;&#187;&#182;&#229;&#144;&#141;&#239;&#188;&#137;" fill="white" xml:space="preserve" style="white-space: pre" font-family="Noto Sans JP" font-size="8.5" font-weight="bold" letter-spacing="0px" x="41" y="12.121"><tspan x="41" y="12.121">&#65288;&#26696;&#20214;&#21517;&#65289;</tspan></text>
</g>
<line id="Line 106" x1="1" y1="15.83" x2="181" y2="15.83" stroke="white" />
</g>
<g id="Frame 1790">
<g id="Frame 1786_2">
<text id="&#233;&#160;&#133;&#231;&#155;&#174;&#229;&#144;&#141;2" fill="#8F8F8F" xml:space="preserve" style="white-space: pre" font-family="Noto Sans JP" font-size="6.5" font-weight="bold" letter-spacing="0px" x="95" y="26.329"><tspan x="95" y="26.329">&#38917;&#30446;&#21517;2</tspan></text>
</g>
<line id="Line 105_2" x1="127.5" y1="16.33" x2="127.5" y2="31.66" stroke="white" />
<line id="Line 108" x1="91.5" y1="16.33" x2="91.5" y2="31.66" stroke="white" />
<g id="Frame 1787_2">
<text id="&#233;&#160;&#133;&#231;&#155;&#174;&#229;&#134;&#133;&#229;&#174;&#185;2" fill="#8F8F8F" xml:space="preserve" style="white-space: pre" font-family="Noto Sans JP" font-size="8.5" font-weight="bold" letter-spacing="0px" x="131" y="27.201"><tspan x="131" y="27.201">&#38917;&#30446;&#20869;&#23481;2</tspan></text>
</g>
<g id="Frame 1786_3">
<text id="&#233;&#160;&#133;&#231;&#155;&#174;&#229;&#144;&#141;1" fill="#8F8F8F" xml:space="preserve" style="white-space: pre" font-family="Noto Sans JP" font-size="6.5" font-weight="bold" letter-spacing="0px" x="5" y="26.329"><tspan x="5" y="26.329">&#38917;&#30446;&#21517;1</tspan></text>
</g>
<line id="Line 105_3" x1="37.5" y1="16.33" x2="37.5" y2="31.2569" stroke="white" />
<g id="Frame 1787_3">
<text id="&#233;&#160;&#133;&#231;&#155;&#174;&#229;&#134;&#133;&#229;&#174;&#185;1" fill="#8F8F8F" xml:space="preserve" style="white-space: pre" font-family="Noto Sans JP" font-size="8.5" font-weight="bold" letter-spacing="0px" x="41" y="27.201"><tspan x="41" y="27.201">&#38917;&#30446;&#20869;&#23481;1</tspan></text>
</g>
<line id="Line 106_2" x1="1" y1="31.16" x2="181" y2="31.16" stroke="white" />
</g>
<g id="Frame 1803">
<g id="Frame 1786_4">
<text id="&#233;&#160;&#133;&#231;&#155;&#174;&#229;&#144;&#141;4" fill="#8F8F8F" xml:space="preserve" style="white-space: pre" font-family="Noto Sans JP" font-size="6.5" font-weight="bold" letter-spacing="0px" x="95" y="41.659"><tspan x="95" y="41.659">&#38917;&#30446;&#21517;4</tspan></text>
</g>
<line id="Line 105_4" x1="127.5" y1="31.66" x2="127.5" y2="46.99" stroke="white" />
<line id="Line 108_2" x1="91.5" y1="31.66" x2="91.5" y2="46.99" stroke="white" />
<g id="Frame 1787_4">
<text id="&#233;&#160;&#133;&#231;&#155;&#174;&#229;&#134;&#133;&#229;&#174;&#185;4" fill="#8F8F8F" xml:space="preserve" style="white-space: pre" font-family="Noto Sans JP" font-size="8.5" font-weight="bold" letter-spacing="0px" x="131" y="42.531"><tspan x="131" y="42.531">&#38917;&#30446;&#20869;&#23481;4</tspan></text>
</g>
<g id="Frame 1786_5">
<text id="&#233;&#160;&#133;&#231;&#155;&#174;&#229;&#144;&#141;3" fill="#8F8F8F" xml:space="preserve" style="white-space: pre" font-family="Noto Sans JP" font-size="6.5" font-weight="bold" letter-spacing="0px" x="5" y="41.659"><tspan x="5" y="41.659">&#38917;&#30446;&#21517;3</tspan></text>
</g>
<line id="Line 105_5" x1="37.5" y1="31.66" x2="37.5" y2="46.5869" stroke="white" />
<g id="Frame 1787_5">
<text id="&#233;&#160;&#133;&#231;&#155;&#174;&#229;&#134;&#133;&#229;&#174;&#185;3" fill="#8F8F8F" xml:space="preserve" style="white-space: pre" font-family="Noto Sans JP" font-size="8.5" font-weight="bold" letter-spacing="0px" x="41" y="42.531"><tspan x="41" y="42.531">&#38917;&#30446;&#20869;&#23481;3</tspan></text>
</g>
<line id="Line 106_3" x1="1" y1="46.49" x2="181" y2="46.49" stroke="white" />
</g>
<g id="Frame 1799">
<g id="Frame 1786_6">
<text id="&#233;&#160;&#133;&#231;&#155;&#174;&#229;&#144;&#141;5" fill="#8F8F8F" xml:space="preserve" style="white-space: pre" font-family="Noto Sans JP" font-size="6.5" font-weight="bold" letter-spacing="0px" x="5" y="56.989"><tspan x="5" y="56.989">&#38917;&#30446;&#21517;5</tspan></text>
</g>
<line id="Line 105_6" x1="37.5" y1="46.99" x2="37.5" y2="62.32" stroke="white" />
<line id="Line 107" x1="91.5" y1="46.99" x2="91.5" y2="62.32" stroke="white" />
<g id="Frame 1787_6">
<text id="&#233;&#160;&#133;&#231;&#155;&#174;&#229;&#134;&#133;&#229;&#174;&#185;5" fill="#8F8F8F" xml:space="preserve" style="white-space: pre" font-family="Noto Sans JP" font-size="8.5" font-weight="bold" letter-spacing="0px" x="41" y="57.861"><tspan x="41" y="57.861">&#38917;&#30446;&#20869;&#23481;5</tspan></text>
</g>
<line id="Line 106_4" x1="1" y1="61.82" x2="91" y2="61.82" stroke="white" />
</g>
<g id="Frame 1800">
<g id="Frame 1786_7">
<text id="&#233;&#160;&#133;&#231;&#155;&#174;&#229;&#144;&#141;6" fill="#8F8F8F" xml:space="preserve" style="white-space: pre" font-family="Noto Sans JP" font-size="6.5" font-weight="bold" letter-spacing="0px" x="5" y="72.319"><tspan x="5" y="72.319">&#38917;&#30446;&#21517;6</tspan></text>
</g>
<line id="Line 105_7" x1="37.5" y1="62.32" x2="37.5" y2="77.65" stroke="white" />
<line id="Line 107_2" x1="91.5" y1="62.32" x2="91.5" y2="77.65" stroke="white" />
<g id="Frame 1787_7">
<text id="&#233;&#160;&#133;&#231;&#155;&#174;&#229;&#134;&#133;&#229;&#174;&#185;6" fill="#8F8F8F" xml:space="preserve" style="white-space: pre" font-family="Noto Sans JP" font-size="8.5" font-weight="bold" letter-spacing="0px" x="41" y="73.191"><tspan x="41" y="73.191">&#38917;&#30446;&#20869;&#23481;6</tspan></text>
</g>
<line id="Line 106_5" x1="1" y1="77.15" x2="91" y2="77.15" stroke="white" />
</g>
<g id="Frame 1801">
<g id="Frame 1786_8">
<text id="&#233;&#160;&#133;&#231;&#155;&#174;&#229;&#144;&#141;7" fill="#8F8F8F" xml:space="preserve" style="white-space: pre" font-family="Noto Sans JP" font-size="6.5" font-weight="bold" letter-spacing="0px" x="5" y="87.649"><tspan x="5" y="87.649">&#38917;&#30446;&#21517;7</tspan></text>
</g>
<line id="Line 105_8" x1="37.5" y1="77.65" x2="37.5" y2="92.98" stroke="white" />
<line id="Line 107_3" x1="91.5" y1="77.65" x2="91.5" y2="92.98" stroke="white" />
<g id="Frame 1787_8">
<text id="&#233;&#160;&#133;&#231;&#155;&#174;&#229;&#134;&#133;&#229;&#174;&#185;7" fill="#8F8F8F" xml:space="preserve" style="white-space: pre" font-family="Noto Sans JP" font-size="8.5" font-weight="bold" letter-spacing="0px" x="41" y="88.521"><tspan x="41" y="88.521">&#38917;&#30446;&#20869;&#23481;7</tspan></text>
</g>
<line id="Line 106_6" x1="1" y1="92.48" x2="91" y2="92.48" stroke="white" />
</g>
<g id="Frame 1802">
<g id="Frame 1786_9">
<text id="&#233;&#160;&#133;&#231;&#155;&#174;&#229;&#144;&#141;8" fill="#8F8F8F" xml:space="preserve" style="white-space: pre" font-family="Noto Sans JP" font-size="6.5" font-weight="bold" letter-spacing="0px" x="5" y="102.979"><tspan x="5" y="102.979">&#38917;&#30446;&#21517;8</tspan></text>
</g>
<line id="Line 105_9" x1="37.5" y1="92.98" x2="37.5" y2="108.31" stroke="white" />
<line id="Line 107_4" x1="91.5" y1="92.98" x2="91.5" y2="108.31" stroke="white" />
<g id="Frame 1787_9">
<text id="&#233;&#160;&#133;&#231;&#155;&#174;&#229;&#134;&#133;&#229;&#174;&#185;8" fill="#8F8F8F" xml:space="preserve" style="white-space: pre" font-family="Noto Sans JP" font-size="8.5" font-weight="bold" letter-spacing="0px" x="41" y="103.851"><tspan x="41" y="103.851">&#38917;&#30446;&#20869;&#23481;8</tspan></text>
</g>
<line id="Line 106_7" x1="1" y1="107.81" x2="91" y2="107.81" stroke="white" />
</g>
<g id="Frame 1797">
<g id="Frame 1786_10">
<text id="&#233;&#160;&#133;&#231;&#155;&#174;&#229;&#144;&#141;9" fill="#8F8F8F" xml:space="preserve" style="white-space: pre" font-family="Noto Sans JP" font-size="6.5" font-weight="bold" letter-spacing="0px" x="5" y="118.309"><tspan x="5" y="118.309">&#38917;&#30446;&#21517;9</tspan></text>
</g>
<line id="Line 105_10" x1="37.5" y1="108.31" x2="37.5" y2="123.64" stroke="white" />
<line id="Line 107_5" x1="91.5" y1="108.31" x2="91.5" y2="123.64" stroke="white" />
<g id="Frame 1787_10">
<text id="&#233;&#160;&#133;&#231;&#155;&#174;&#229;&#134;&#133;&#229;&#174;&#185;9" fill="#8F8F8F" xml:space="preserve" style="white-space: pre" font-family="Noto Sans JP" font-size="8.5" font-weight="bold" letter-spacing="0px" x="41" y="119.181"><tspan x="41" y="119.181">&#38917;&#30446;&#20869;&#23481;9</tspan></text>
</g>
<line id="Line 106_8" x1="1" y1="123.14" x2="91" y2="123.14" stroke="white" />
</g>
<g id="Frame 1798">
<g id="Frame 1786_11">
<text id="&#233;&#160;&#133;&#231;&#155;&#174;&#229;&#144;&#141;10" fill="#8F8F8F" xml:space="preserve" style="white-space: pre" font-family="Noto Sans JP" font-size="6.5" font-weight="bold" letter-spacing="0px" x="5" y="133.639"><tspan x="5" y="133.639">&#38917;&#30446;&#21517;10</tspan></text>
</g>
<line id="Line 105_11" x1="37.5" y1="123.64" x2="37.5" y2="138.97" stroke="white" />
<line id="Line 107_6" x1="91.5" y1="123.64" x2="91.5" y2="138.97" stroke="white" />
<g id="Frame 1787_11">
<text id="&#233;&#160;&#133;&#231;&#155;&#174;&#229;&#134;&#133;&#229;&#174;&#185;10" fill="#8F8F8F" xml:space="preserve" style="white-space: pre" font-family="Noto Sans JP" font-size="8.5" font-weight="bold" letter-spacing="0px" x="41" y="134.511"><tspan x="41" y="134.511">&#38917;&#30446;&#20869;&#23481;10</tspan></text>
</g>
</g>
</g>
</g>
</svg>