<svg xmlns="http://www.w3.org/2000/svg" width="182" height="140" viewBox="0 0 182 140" fill="none">
<g id="blackboard_layout">
<rect x="1" y="1" width="180" height="138" rx="4" fill="#444444" />
<rect x="1" y="1" width="180" height="138" rx="4" stroke="white" />
<g id="Frame 1793">
<g id="Frame 1786">
<text id="(&#229;&#183;&#165;&#228;&#186;&#139;&#229;&#144;&#141;)" fill="white" xml:space="preserve" style="white-space: pre" font-family="Noto Sans JP" font-size="7" font-weight="bold" letter-spacing="0px" x="5" y="12.4295"><tspan x="5" y="12.4295">(&#24037;&#20107;&#21517;)</tspan></text>
</g>
<line id="Line 105" x1="37.5001" y1="1" x2="37.5001" y2="18.25" stroke="white" />
<g id="Frame 1787">
<text id="&#239;&#188;&#136;&#230;&#161;&#136;&#228;&#187;&#182;&#229;&#144;&#141;&#239;&#188;&#137;" fill="white" xml:space="preserve" style="white-space: pre" font-family="Noto Sans JP" font-size="9" font-weight="bold" letter-spacing="0px" x="41" y="13.3015"><tspan x="41" y="13.3015">&#65288;&#26696;&#20214;&#21517;&#65289;</tspan></text>
</g>
<line id="Line 106" x1="1" y1="17.75" x2="181" y2="17.75" stroke="white" />
</g>
<g id="Frame 1790">
<g id="Frame 1786_2">
<text id="&#233;&#160;&#133;&#231;&#155;&#174;&#229;&#144;&#141;1" fill="#8F8F8F" xml:space="preserve" style="white-space: pre" font-family="Noto Sans JP" font-size="7.5" font-weight="bold" letter-spacing="0px" x="5" y="29.645"><tspan x="5" y="29.645">&#38917;&#30446;&#21517;1</tspan></text>
</g>
<line id="Line 105_2" x1="37.5" y1="18.25" x2="37.5" y2="35.0464" stroke="white" />
<g id="Frame 1787_2">
<text id="&#233;&#160;&#133;&#231;&#155;&#174;&#229;&#134;&#133;&#229;&#174;&#185;1" fill="#8F8F8F" xml:space="preserve" style="white-space: pre" font-family="Noto Sans JP" font-size="9" font-weight="bold" letter-spacing="0px" x="41" y="30.299"><tspan x="41" y="30.299">&#38917;&#30446;&#20869;&#23481;1</tspan></text>
</g>
<line id="Line 106_2" x1="1" y1="35" x2="181" y2="35" stroke="white" />
</g>
<g id="Frame 1796">
<g id="Frame 1786_3">
<text id="&#233;&#160;&#133;&#231;&#155;&#174;&#229;&#144;&#141;2" fill="#8F8F8F" xml:space="preserve" style="white-space: pre" font-family="Noto Sans JP" font-size="7.5" font-weight="bold" letter-spacing="0px" x="5" y="46.8961"><tspan x="5" y="46.8961">&#38917;&#30446;&#21517;2</tspan></text>
</g>
<line id="Line 105_3" x1="37.5" y1="35.5" x2="37.5" y2="52.75" stroke="white" />
<line id="Line 107" x1="91.5" y1="35.5" x2="91.5" y2="52.75" stroke="white" />
<g id="Frame 1787_3">
<text id="&#233;&#160;&#133;&#231;&#155;&#174;&#229;&#134;&#133;&#229;&#174;&#185;2" fill="#8F8F8F" xml:space="preserve" style="white-space: pre" font-family="Noto Sans JP" font-size="9" font-weight="bold" letter-spacing="0px" x="41" y="47.5501"><tspan x="41" y="47.5501">&#38917;&#30446;&#20869;&#23481;2</tspan></text>
</g>
<line id="Line 106_3" x1="1" y1="52.25" x2="91" y2="52.25" stroke="white" />
</g>
<g id="Frame 1797">
<g id="Frame 1786_4">
<text id="&#233;&#160;&#133;&#231;&#155;&#174;&#229;&#144;&#141;3" fill="#8F8F8F" xml:space="preserve" style="white-space: pre" font-family="Noto Sans JP" font-size="7.5" font-weight="bold" letter-spacing="0px" x="5" y="64.1461"><tspan x="5" y="64.1461">&#38917;&#30446;&#21517;3</tspan></text>
</g>
<line id="Line 105_4" x1="37.5" y1="52.75" x2="37.5" y2="70" stroke="white" />
<line id="Line 107_2" x1="91.5" y1="52.75" x2="91.5" y2="70" stroke="white" />
<g id="Frame 1787_4">
<text id="&#233;&#160;&#133;&#231;&#155;&#174;&#229;&#134;&#133;&#229;&#174;&#185;3" fill="#8F8F8F" xml:space="preserve" style="white-space: pre" font-family="Noto Sans JP" font-size="9" font-weight="bold" letter-spacing="0px" x="41" y="64.8001"><tspan x="41" y="64.8001">&#38917;&#30446;&#20869;&#23481;3</tspan></text>
</g>
<line id="Line 106_4" x1="1" y1="69.5" x2="91" y2="69.5" stroke="white" />
</g>
<g id="Frame 1798">
<g id="Frame 1786_5">
<text id="&#233;&#160;&#133;&#231;&#155;&#174;&#229;&#144;&#141;4" fill="#8F8F8F" xml:space="preserve" style="white-space: pre" font-family="Noto Sans JP" font-size="7.5" font-weight="bold" letter-spacing="0px" x="5" y="81.3961"><tspan x="5" y="81.3961">&#38917;&#30446;&#21517;4</tspan></text>
</g>
<line id="Line 105_5" x1="37.5" y1="70" x2="37.5" y2="87.25" stroke="white" />
<line id="Line 107_3" x1="91.5" y1="70" x2="91.5" y2="87.25" stroke="white" />
<g id="Frame 1787_5">
<text id="&#233;&#160;&#133;&#231;&#155;&#174;&#229;&#134;&#133;&#229;&#174;&#185;4" fill="#8F8F8F" xml:space="preserve" style="white-space: pre" font-family="Noto Sans JP" font-size="9" font-weight="bold" letter-spacing="0px" x="41" y="82.0501"><tspan x="41" y="82.0501">&#38917;&#30446;&#20869;&#23481;4</tspan></text>
</g>
<line id="Line 106_5" x1="1" y1="86.75" x2="91" y2="86.75" stroke="white" />
</g>
<g id="Frame 1795">
<g id="Frame 1788">
<g id="&#232;&#177;&#134;&#229;&#155;&#179;180/off">
<rect width="86" height="99.5" transform="translate(93 37.5)" fill="#999999" fill-opacity="0.3" />
<g id="fill-icon/fill-icon_image">
<path id="currentColor" d="M152 71.5H120C118.939 71.5011 117.923 71.9228 117.173 72.6727C116.423 73.4227 116.001 74.4395 116 75.5V99.5C116.001 100.561 116.423 101.577 117.173 102.327C117.923 103.077 118.939 103.499 120 103.5H152C153.061 103.499 154.077 103.077 154.827 102.327C155.577 101.577 155.999 100.561 156 99.5V75.5C155.999 74.4395 155.577 73.4227 154.827 72.6727C154.077 71.9228 153.061 71.5011 152 71.5ZM125 77.5C125.593 77.5 126.173 77.6759 126.667 78.0056C127.16 78.3352 127.545 78.8038 127.772 79.352C127.999 79.9001 128.058 80.5033 127.942 81.0853C127.827 81.6672 127.541 82.2018 127.121 82.6213C126.702 83.0409 126.167 83.3266 125.585 83.4424C125.003 83.5581 124.4 83.4987 123.852 83.2716C123.304 83.0446 122.835 82.6601 122.506 82.1667C122.176 81.6734 122 81.0933 122 80.5C122 80.106 122.078 79.7159 122.228 79.3519C122.379 78.9879 122.6 78.6572 122.879 78.3786C123.157 78.1 123.488 77.8791 123.852 77.7283C124.216 77.5776 124.606 77.5 125 77.5ZM136 97.5H122L130 87.5L133 91.5L139 83.5L150 97.5H136Z" fill="#999999" fill-opacity="0.5" />
</g>
</g>
</g>
</g>
<g id="Frame 1799">
<g id="Frame 1786_6">
<text id="&#233;&#160;&#133;&#231;&#155;&#174;&#229;&#144;&#141;5" fill="#8F8F8F" xml:space="preserve" style="white-space: pre" font-family="Noto Sans JP" font-size="7.5" font-weight="bold" letter-spacing="0px" x="5" y="98.6461"><tspan x="5" y="98.6461">&#38917;&#30446;&#21517;5</tspan></text>
</g>
<line id="Line 105_6" x1="37.5" y1="87.25" x2="37.5" y2="104.5" stroke="white" />
<line id="Line 107_4" x1="91.5" y1="87.25" x2="91.5" y2="104.5" stroke="white" />
<g id="Frame 1787_6">
<text id="&#233;&#160;&#133;&#231;&#155;&#174;&#229;&#134;&#133;&#229;&#174;&#185;5" fill="#8F8F8F" xml:space="preserve" style="white-space: pre" font-family="Noto Sans JP" font-size="9" font-weight="bold" letter-spacing="0px" x="41" y="99.3001"><tspan x="41" y="99.3001">&#38917;&#30446;&#20869;&#23481;5</tspan></text>
</g>
<line id="Line 106_6" x1="1" y1="104" x2="91" y2="104" stroke="white" />
</g>
<g id="Frame 1800">
<g id="Frame 1786_7">
<text id="&#233;&#160;&#133;&#231;&#155;&#174;&#229;&#144;&#141;6" fill="#8F8F8F" xml:space="preserve" style="white-space: pre" font-family="Noto Sans JP" font-size="7.5" font-weight="bold" letter-spacing="0px" x="5" y="115.895"><tspan x="5" y="115.895">&#38917;&#30446;&#21517;6</tspan></text>
</g>
<line id="Line 105_7" x1="37.5" y1="104.5" x2="37.5" y2="121.75" stroke="white" />
<line id="Line 107_5" x1="91.5" y1="104.5" x2="91.5" y2="121.75" stroke="white" />
<g id="Frame 1787_7">
<text id="&#233;&#160;&#133;&#231;&#155;&#174;&#229;&#134;&#133;&#229;&#174;&#185;6" fill="#8F8F8F" xml:space="preserve" style="white-space: pre" font-family="Noto Sans JP" font-size="9" font-weight="bold" letter-spacing="0px" x="41" y="116.549"><tspan x="41" y="116.549">&#38917;&#30446;&#20869;&#23481;6</tspan></text>
</g>
<line id="Line 106_7" x1="1" y1="121.25" x2="91" y2="121.25" stroke="white" />
</g>
<g id="Frame 1801">
<g id="Frame 1786_8">
<text id="&#233;&#160;&#133;&#231;&#155;&#174;&#229;&#144;&#141;7" fill="#8F8F8F" xml:space="preserve" style="white-space: pre" font-family="Noto Sans JP" font-size="7.5" font-weight="bold" letter-spacing="0px" x="5" y="133.145"><tspan x="5" y="133.145">&#38917;&#30446;&#21517;7</tspan></text>
</g>
<line id="Line 105_8" x1="37.5" y1="121.75" x2="37.5" y2="139" stroke="white" />
<line id="Line 107_6" x1="91.5" y1="121.75" x2="91.5" y2="139" stroke="white" />
<g id="Frame 1787_8">
<text id="&#233;&#160;&#133;&#231;&#155;&#174;&#229;&#134;&#133;&#229;&#174;&#185;7" fill="#8F8F8F" xml:space="preserve" style="white-space: pre" font-family="Noto Sans JP" font-size="9" font-weight="bold" letter-spacing="0px" x="41" y="133.799"><tspan x="41" y="133.799">&#38917;&#30446;&#20869;&#23481;7</tspan></text>
</g>
</g>
</g>
</svg>