<svg xmlns="http://www.w3.org/2000/svg" width="182" height="140" viewBox="0 0 182 140" fill="none">
<g id="blackboard_layout">
<rect x="1" y="1" width="180" height="138" rx="4" fill="#444444" />
<rect x="1" y="1" width="180" height="138" rx="4" stroke="white" />
<g id="Frame 1793">
<g id="Frame 1786">
<text id="(&#229;&#183;&#165;&#228;&#186;&#139;&#229;&#144;&#141;)" fill="white" xml:space="preserve" style="white-space: pre" font-family="Noto Sans JP" font-size="9" font-weight="bold" letter-spacing="0px" x="5" y="13.674"><tspan x="5" y="13.674">(&#24037;&#20107;&#21517;)</tspan></text>
</g>
<line id="Line 105" x1="57.5" y1="1" x2="57.5" y2="19" stroke="white" />
<g id="Frame 1787">
<text id="&#239;&#188;&#136;&#230;&#161;&#136;&#228;&#187;&#182;&#229;&#144;&#141;&#239;&#188;&#137;" fill="white" xml:space="preserve" style="white-space: pre" font-family="Noto Sans JP" font-size="9" font-weight="bold" letter-spacing="0px" x="61" y="13.674"><tspan x="61" y="13.674">&#65288;&#26696;&#20214;&#21517;&#65289;</tspan></text>
</g>
<line id="Line 106" x1="1" y1="18.5" x2="181" y2="18.5" stroke="white" />
</g>
<g id="Frame 1789">
<g id="Frame 1786_2">
<text id="&#233;&#160;&#133;&#231;&#155;&#174;&#229;&#144;&#141;1" fill="#8F8F8F" xml:space="preserve" style="white-space: pre" font-family="Noto Sans JP" font-size="9" font-weight="bold" letter-spacing="0px" x="5" y="31.424"><tspan x="5" y="31.424">&#38917;&#30446;&#21517;1</tspan></text>
</g>
<line id="Line 105_2" x1="57.5" y1="19" x2="57.5" y2="37" stroke="white" />
<g id="Frame 1787_2">
<text id="&#233;&#160;&#133;&#231;&#155;&#174;&#229;&#134;&#133;&#229;&#174;&#185;1" fill="#8F8F8F" xml:space="preserve" style="white-space: pre" font-family="Noto Sans JP" font-size="9" font-weight="bold" letter-spacing="0px" x="61" y="31.424"><tspan x="61" y="31.424">&#38917;&#30446;&#20869;&#23481;1</tspan></text>
</g>
<line id="Line 106_2" x1="1" y1="36.5" x2="181" y2="36.5" stroke="white" />
</g>
<g id="Frame 1790">
<g id="Frame 1786_3">
<text id="&#233;&#160;&#133;&#231;&#155;&#174;&#229;&#144;&#141;2" fill="#8F8F8F" xml:space="preserve" style="white-space: pre" font-family="Noto Sans JP" font-size="7.5" font-weight="bold" letter-spacing="0px" x="5" y="48.77"><tspan x="5" y="48.77">&#38917;&#30446;&#21517;2</tspan></text>
</g>
<line id="Line 105_3" x1="37.5" y1="37" x2="37.5" y2="55" stroke="white" />
<line id="Line 107" x1="91.5" y1="37" x2="91.5" y2="55" stroke="white" />
<g id="Frame 1787_3">
<text id="&#233;&#160;&#133;&#231;&#155;&#174;&#229;&#134;&#133;&#229;&#174;&#185;2" fill="#8F8F8F" xml:space="preserve" style="white-space: pre" font-family="Noto Sans JP" font-size="9" font-weight="bold" letter-spacing="0px" x="41" y="49.424"><tspan x="41" y="49.424">&#38917;&#30446;&#20869;&#23481;2</tspan></text>
</g>
<line id="Line 106_3" x1="1" y1="54.5" x2="91" y2="54.5" stroke="white" />
</g>
<g id="Frame 1796">
<g id="Frame 1786_4">
<text id="&#233;&#160;&#133;&#231;&#155;&#174;&#229;&#144;&#141;3" fill="#8F8F8F" xml:space="preserve" style="white-space: pre" font-family="Noto Sans JP" font-size="7.5" font-weight="bold" letter-spacing="0px" x="95" y="48.77"><tspan x="95" y="48.77">&#38917;&#30446;&#21517;3</tspan></text>
</g>
<line id="Line 105_4" x1="127.5" y1="37" x2="127.5" y2="55" stroke="white" />
<g id="Frame 1787_4">
<text id="&#233;&#160;&#133;&#231;&#155;&#174;&#229;&#134;&#133;&#229;&#174;&#185;3" fill="#8F8F8F" xml:space="preserve" style="white-space: pre" font-family="Noto Sans JP" font-size="9" font-weight="bold" letter-spacing="0px" x="131" y="49.424"><tspan x="131" y="49.424">&#38917;&#30446;&#20869;&#23481;3</tspan></text>
</g>
<line id="Line 106_4" x1="91" y1="54.5" x2="181" y2="54.5" stroke="white" />
</g>
<g id="Frame 1795">
<line id="Line 106_5" x1="1" y1="120.5" x2="181" y2="120.5" stroke="white" />
<g id="Frame 1890">
<g id="&#232;&#177;&#134;&#229;&#155;&#179;180/off">
<rect width="86" height="62" transform="translate(93 57)" fill="#999999" fill-opacity="0.3" />
<g id="fill-icon/fill-icon_image">
<path id="currentColor" d="M152 72H120C118.939 72.0011 117.923 72.4228 117.173 73.1727C116.423 73.9227 116.001 74.9395 116 76V100C116.001 101.061 116.423 102.077 117.173 102.827C117.923 103.577 118.939 103.999 120 104H152C153.061 103.999 154.077 103.577 154.827 102.827C155.577 102.077 155.999 101.061 156 100V76C155.999 74.9395 155.577 73.9227 154.827 73.1727C154.077 72.4228 153.061 72.0011 152 72ZM125 78C125.593 78 126.173 78.1759 126.667 78.5056C127.16 78.8352 127.545 79.3038 127.772 79.852C127.999 80.4001 128.058 81.0033 127.942 81.5853C127.827 82.1672 127.541 82.7018 127.121 83.1213C126.702 83.5409 126.167 83.8266 125.585 83.9424C125.003 84.0581 124.4 83.9987 123.852 83.7716C123.304 83.5446 122.835 83.1601 122.506 82.6667C122.176 82.1734 122 81.5933 122 81C122 80.606 122.078 80.2159 122.228 79.8519C122.379 79.4879 122.6 79.1572 122.879 78.8786C123.157 78.6 123.488 78.3791 123.852 78.2283C124.216 78.0776 124.606 78 125 78ZM136 98H122L130 88L133 92L139 84L150 98H136Z" fill="#999999" fill-opacity="0.5" />
</g>
</g>
</g>
<text id="&#229;&#130;&#153;&#232;&#128;&#131;" fill="#8F8F8F" xml:space="preserve" style="white-space: pre" font-family="Noto Sans JP" font-size="9" font-weight="bold" letter-spacing="0px" x="5" y="67.424"><tspan x="5" y="67.424">&#20633;&#32771;</tspan></text>
</g>
<g id="Frame 1792">
<g id="Frame 1786_5">
<text id="&#239;&#188;&#136;&#230;&#146;&#174;&#229;&#189;&#177;&#230;&#151;&#165;&#239;&#188;&#137;" fill="white" xml:space="preserve" style="white-space: pre" font-family="Noto Sans JP" font-size="9" font-weight="bold" letter-spacing="0px" x="5" y="133.424"><tspan x="5" y="133.424">&#65288;&#25774;&#24433;&#26085;&#65289;</tspan></text>
</g>
<line id="Line 105_5" x1="73.5" y1="121" x2="73.5" y2="139" stroke="white" />
<g id="Frame 1787_5">
<text id="&#239;&#188;&#136;&#232;&#168;&#173;&#229;&#174;&#154;&#227;&#129;&#149;&#227;&#130;&#140;&#227;&#129;&#159;&#230;&#150;&#189;&#229;&#183;&#165;&#232;&#128;&#133;&#229;&#144;&#141;&#239;&#188;&#137;" fill="white" xml:space="preserve" style="white-space: pre" font-family="Noto Sans JP" font-size="9" font-weight="bold" letter-spacing="0px" x="77" y="133.424"><tspan x="77" y="133.424">&#65288;&#35373;&#23450;&#12373;&#12428;&#12383;&#26045;&#24037;&#32773;&#21517;&#65289;</tspan></text>
</g>
</g>
</g>
</svg>