<svg xmlns="http://www.w3.org/2000/svg" width="182" height="140" viewBox="0 0 182 140" fill="none">
<g id="blackboard_layout">
<rect x="1" y="1" width="180" height="138" rx="4" fill="#444444" />
<rect x="1" y="1" width="180" height="138" rx="4" stroke="white" />
<g id="Frame 1793">
<g id="Frame 1786">
<text id="(&#229;&#183;&#165;&#228;&#186;&#139;&#229;&#144;&#141;)" fill="white" xml:space="preserve" style="white-space: pre" font-family="Noto Sans JP" font-size="7" font-weight="bold" letter-spacing="0px" x="5" y="15.302"><tspan x="5" y="15.302">(&#24037;&#20107;&#21517;)</tspan></text>
</g>
<line id="Line 105" x1="37.5001" y1="1" x2="37.5001" y2="24" stroke="white" />
<g id="Frame 1787">
<text id="&#239;&#188;&#136;&#230;&#161;&#136;&#228;&#187;&#182;&#229;&#144;&#141;&#239;&#188;&#137;" fill="white" xml:space="preserve" style="white-space: pre" font-family="Noto Sans JP" font-size="9" font-weight="bold" letter-spacing="0px" x="41" y="16.174"><tspan x="41" y="16.174">&#65288;&#26696;&#20214;&#21517;&#65289;</tspan></text>
</g>
<line id="Line 106" x1="1" y1="23.5" x2="181" y2="23.5" stroke="white" />
</g>
<g id="Frame 1790">
<g id="Frame 1786_2">
<text id="&#233;&#160;&#133;&#231;&#155;&#174;&#229;&#144;&#141;2" fill="#8F8F8F" xml:space="preserve" style="white-space: pre" font-family="Noto Sans JP" font-size="7.5" font-weight="bold" letter-spacing="0px" x="95" y="38.0239"><tspan x="95" y="38.0239">&#38917;&#30446;&#21517;2</tspan></text>
</g>
<line id="Line 105_2" x1="127.5" y1="23.7551" x2="127.5" y2="46.7526" stroke="white" />
<line id="Line 107" x1="91.5" y1="23.7551" x2="91.5" y2="46.7526" stroke="white" />
<g id="Frame 1787_2">
<text id="&#233;&#160;&#133;&#231;&#155;&#174;&#229;&#134;&#133;&#229;&#174;&#185;2" fill="#8F8F8F" xml:space="preserve" style="white-space: pre" font-family="Noto Sans JP" font-size="9" font-weight="bold" letter-spacing="0px" x="131" y="38.6779"><tspan x="131" y="38.6779">&#38917;&#30446;&#20869;&#23481;2</tspan></text>
</g>
<g id="Frame 1786_3">
<text id="&#233;&#160;&#133;&#231;&#155;&#174;&#229;&#144;&#141;1" fill="#8F8F8F" xml:space="preserve" style="white-space: pre" font-family="Noto Sans JP" font-size="7.5" font-weight="bold" letter-spacing="0px" x="5" y="38.2725"><tspan x="5" y="38.2725">&#38917;&#30446;&#21517;1</tspan></text>
</g>
<line id="Line 105_3" x1="37.5" y1="24.0025" x2="37.5" y2="47.0025" stroke="white" />
<g id="Frame 1787_3">
<text id="&#233;&#160;&#133;&#231;&#155;&#174;&#229;&#134;&#133;&#229;&#174;&#185;1" fill="#8F8F8F" xml:space="preserve" style="white-space: pre" font-family="Noto Sans JP" font-size="9" font-weight="bold" letter-spacing="0px" x="41" y="38.9265"><tspan x="41" y="38.9265">&#38917;&#30446;&#20869;&#23481;1</tspan></text>
</g>
<line id="Line 106_2" x1="1" y1="46.5" x2="181" y2="46.5" stroke="white" />
</g>
<g id="Frame 1796">
<g id="Frame 1786_4">
<text id="&#233;&#160;&#133;&#231;&#155;&#174;&#229;&#144;&#141;3" fill="#8F8F8F" xml:space="preserve" style="white-space: pre" font-family="Noto Sans JP" font-size="7.5" font-weight="bold" letter-spacing="0px" x="5" y="61.27"><tspan x="5" y="61.27">&#38917;&#30446;&#21517;3</tspan></text>
</g>
<line id="Line 105_4" x1="37.5" y1="47" x2="37.5" y2="70" stroke="white" />
<line id="Line 107_2" x1="91.5" y1="47" x2="91.5" y2="70" stroke="white" />
<g id="Frame 1787_4">
<text id="&#233;&#160;&#133;&#231;&#155;&#174;&#229;&#134;&#133;&#229;&#174;&#185;3" fill="#8F8F8F" xml:space="preserve" style="white-space: pre" font-family="Noto Sans JP" font-size="9" font-weight="bold" letter-spacing="0px" x="41" y="61.924"><tspan x="41" y="61.924">&#38917;&#30446;&#20869;&#23481;3</tspan></text>
</g>
<line id="Line 106_3" x1="1" y1="69.5" x2="91" y2="69.5" stroke="white" />
</g>
<g id="Frame 1797">
<g id="Frame 1786_5">
<text id="&#233;&#160;&#133;&#231;&#155;&#174;&#229;&#144;&#141;4" fill="#8F8F8F" xml:space="preserve" style="white-space: pre" font-family="Noto Sans JP" font-size="7.5" font-weight="bold" letter-spacing="0px" x="5" y="84.27"><tspan x="5" y="84.27">&#38917;&#30446;&#21517;4</tspan></text>
</g>
<line id="Line 105_5" x1="37.5" y1="70" x2="37.5" y2="93" stroke="white" />
<line id="Line 107_3" x1="91.5" y1="70" x2="91.5" y2="93" stroke="white" />
<g id="Frame 1787_5">
<text id="&#233;&#160;&#133;&#231;&#155;&#174;&#229;&#134;&#133;&#229;&#174;&#185;4" fill="#8F8F8F" xml:space="preserve" style="white-space: pre" font-family="Noto Sans JP" font-size="9" font-weight="bold" letter-spacing="0px" x="41" y="84.924"><tspan x="41" y="84.924">&#38917;&#30446;&#20869;&#23481;4</tspan></text>
</g>
<line id="Line 106_4" x1="1" y1="92.5" x2="91" y2="92.5" stroke="white" />
</g>
<g id="Frame 1798">
<g id="Frame 1786_6">
<text id="&#233;&#160;&#133;&#231;&#155;&#174;&#229;&#144;&#141;5" fill="#8F8F8F" xml:space="preserve" style="white-space: pre" font-family="Noto Sans JP" font-size="7.5" font-weight="bold" letter-spacing="0px" x="5" y="107.27"><tspan x="5" y="107.27">&#38917;&#30446;&#21517;5</tspan></text>
</g>
<line id="Line 105_6" x1="37.5" y1="93" x2="37.5" y2="116" stroke="white" />
<line id="Line 107_4" x1="91.5" y1="93" x2="91.5" y2="116" stroke="white" />
<g id="Frame 1787_6">
<text id="&#233;&#160;&#133;&#231;&#155;&#174;&#229;&#134;&#133;&#229;&#174;&#185;5" fill="#8F8F8F" xml:space="preserve" style="white-space: pre" font-family="Noto Sans JP" font-size="9" font-weight="bold" letter-spacing="0px" x="41" y="107.924"><tspan x="41" y="107.924">&#38917;&#30446;&#20869;&#23481;5</tspan></text>
</g>
<line id="Line 106_5" x1="1" y1="115.5" x2="91" y2="115.5" stroke="white" />
</g>
<g id="Frame 1799">
<g id="Frame 1786_7">
<text id="&#233;&#160;&#133;&#231;&#155;&#174;&#229;&#144;&#141;6" fill="#8F8F8F" xml:space="preserve" style="white-space: pre" font-family="Noto Sans JP" font-size="7.5" font-weight="bold" letter-spacing="0px" x="5" y="130.27"><tspan x="5" y="130.27">&#38917;&#30446;&#21517;6</tspan></text>
</g>
<line id="Line 105_7" x1="37.5" y1="116" x2="37.5" y2="139" stroke="white" />
<line id="Line 107_5" x1="91.5" y1="116" x2="91.5" y2="139" stroke="white" />
<g id="Frame 1787_7">
<text id="&#233;&#160;&#133;&#231;&#155;&#174;&#229;&#134;&#133;&#229;&#174;&#185;6" fill="#8F8F8F" xml:space="preserve" style="white-space: pre" font-family="Noto Sans JP" font-size="9" font-weight="bold" letter-spacing="0px" x="41" y="130.924"><tspan x="41" y="130.924">&#38917;&#30446;&#20869;&#23481;6</tspan></text>
</g>
</g>
<g id="Frame 1795">
<g id="Frame 1788">
<g id="&#232;&#177;&#134;&#229;&#155;&#179;180/off">
<rect width="86" height="88" transform="translate(93 49)" fill="#999999" fill-opacity="0.3" />
<g id="fill-icon/fill-icon_image">
<path id="currentColor" d="M152 77H120C118.939 77.0011 117.923 77.4228 117.173 78.1727C116.423 78.9227 116.001 79.9395 116 81V105C116.001 106.061 116.423 107.077 117.173 107.827C117.923 108.577 118.939 108.999 120 109H152C153.061 108.999 154.077 108.577 154.827 107.827C155.577 107.077 155.999 106.061 156 105V81C155.999 79.9395 155.577 78.9227 154.827 78.1727C154.077 77.4228 153.061 77.0011 152 77ZM125 83C125.593 83 126.173 83.1759 126.667 83.5056C127.16 83.8352 127.545 84.3038 127.772 84.852C127.999 85.4001 128.058 86.0033 127.942 86.5853C127.827 87.1672 127.541 87.7018 127.121 88.1213C126.702 88.5409 126.167 88.8266 125.585 88.9424C125.003 89.0581 124.4 88.9987 123.852 88.7716C123.304 88.5446 122.835 88.1601 122.506 87.6667C122.176 87.1734 122 86.5933 122 86C122 85.606 122.078 85.2159 122.228 84.8519C122.379 84.4879 122.6 84.1572 122.879 83.8786C123.157 83.6 123.488 83.3791 123.852 83.2283C124.216 83.0776 124.606 83 125 83ZM136 103H122L130 93L133 97L139 89L150 103H136Z" fill="#999999" fill-opacity="0.5" />
</g>
</g>
</g>
</g>
</g>
</svg>