<svg xmlns="http://www.w3.org/2000/svg" width="182" height="140" viewBox="0 0 182 140" fill="none">
<g id="blackboard_layout">
<rect x="1" y="1" width="180" height="138" rx="4" fill="#444444" />
<rect x="1" y="1" width="180" height="138" rx="4" stroke="white" />
<g id="Frame 1793">
<g id="Frame 1786">
<text id="(&#229;&#183;&#165;&#228;&#186;&#139;&#229;&#144;&#141;)" fill="white" xml:space="preserve" style="white-space: pre" font-family="Noto Sans JP" font-size="7" font-weight="bold" letter-spacing="0px" x="5" y="13.662"><tspan x="5" y="13.662">(&#24037;&#20107;&#21517;)</tspan></text>
</g>
<line id="Line 105" x1="37.5001" y1="1" x2="37.5001" y2="20.72" stroke="white" />
<g id="Frame 1787">
<text id="&#239;&#188;&#136;&#230;&#161;&#136;&#228;&#187;&#182;&#229;&#144;&#141;&#239;&#188;&#137;" fill="white" xml:space="preserve" style="white-space: pre" font-family="Noto Sans JP" font-size="9" font-weight="bold" letter-spacing="0px" x="41" y="14.534"><tspan x="41" y="14.534">&#65288;&#26696;&#20214;&#21517;&#65289;</tspan></text>
</g>
<line id="Line 106" x1="1" y1="20.22" x2="181" y2="20.22" stroke="white" />
</g>
<g id="Frame 1790">
<g id="Frame 1786_2">
<text id="&#233;&#160;&#133;&#231;&#155;&#174;&#229;&#144;&#141;1" fill="#8F8F8F" xml:space="preserve" style="white-space: pre" font-family="Noto Sans JP" font-size="7.5" font-weight="bold" letter-spacing="0px" x="5" y="33.34"><tspan x="5" y="33.34">&#38917;&#30446;&#21517;1</tspan></text>
</g>
<line id="Line 105_2" x1="37.5" y1="20.71" x2="37.5" y2="39.9114" stroke="white" />
<g id="Frame 1787_2">
<text id="&#233;&#160;&#133;&#231;&#155;&#174;&#229;&#134;&#133;&#229;&#174;&#185;1" fill="#8F8F8F" xml:space="preserve" style="white-space: pre" font-family="Noto Sans JP" font-size="9" font-weight="bold" letter-spacing="0px" x="41" y="33.994"><tspan x="41" y="33.994">&#38917;&#30446;&#20869;&#23481;1</tspan></text>
</g>
<line id="Line 106_2" x1="1" y1="39.93" x2="181" y2="39.93" stroke="white" />
</g>
<g id="Frame 1796">
<g id="Frame 1786_3">
<text id="&#233;&#160;&#133;&#231;&#155;&#174;&#229;&#144;&#141;2" fill="#8F8F8F" xml:space="preserve" style="white-space: pre" font-family="Noto Sans JP" font-size="7.5" font-weight="bold" letter-spacing="0px" x="5" y="53.0643"><tspan x="5" y="53.0643">&#38917;&#30446;&#21517;2</tspan></text>
</g>
<line id="Line 105_3" x1="37.5" y1="40.4343" x2="37.5" y2="60.1518" stroke="white" />
<line id="Line 107" x1="91.5" y1="40.4343" x2="91.5" y2="60.1518" stroke="white" />
<g id="Frame 1787_3">
<text id="&#233;&#160;&#133;&#231;&#155;&#174;&#229;&#134;&#133;&#229;&#174;&#185;2" fill="#8F8F8F" xml:space="preserve" style="white-space: pre" font-family="Noto Sans JP" font-size="9" font-weight="bold" letter-spacing="0px" x="41" y="53.7183"><tspan x="41" y="53.7183">&#38917;&#30446;&#20869;&#23481;2</tspan></text>
</g>
<line id="Line 106_3" x1="1" y1="59.6543" x2="91" y2="59.6543" stroke="white" />
</g>
<g id="Frame 1797">
<g id="Frame 1786_4">
<text id="&#233;&#160;&#133;&#231;&#155;&#174;&#229;&#144;&#141;3" fill="#8F8F8F" xml:space="preserve" style="white-space: pre" font-family="Noto Sans JP" font-size="7.5" font-weight="bold" letter-spacing="0px" x="5" y="72.7818"><tspan x="5" y="72.7818">&#38917;&#30446;&#21517;3</tspan></text>
</g>
<line id="Line 105_4" x1="37.5" y1="60.1518" x2="37.5" y2="79.8693" stroke="white" />
<line id="Line 107_2" x1="91.5" y1="60.1518" x2="91.5" y2="79.8693" stroke="white" />
<g id="Frame 1787_4">
<text id="&#233;&#160;&#133;&#231;&#155;&#174;&#229;&#134;&#133;&#229;&#174;&#185;3" fill="#8F8F8F" xml:space="preserve" style="white-space: pre" font-family="Noto Sans JP" font-size="9" font-weight="bold" letter-spacing="0px" x="41" y="73.4358"><tspan x="41" y="73.4358">&#38917;&#30446;&#20869;&#23481;3</tspan></text>
</g>
<line id="Line 106_4" x1="1" y1="79.3718" x2="91" y2="79.3718" stroke="white" />
</g>
<g id="Frame 1798">
<g id="Frame 1786_5">
<text id="&#233;&#160;&#133;&#231;&#155;&#174;&#229;&#144;&#141;4" fill="#8F8F8F" xml:space="preserve" style="white-space: pre" font-family="Noto Sans JP" font-size="7.5" font-weight="bold" letter-spacing="0px" x="5" y="92.4993"><tspan x="5" y="92.4993">&#38917;&#30446;&#21517;4</tspan></text>
</g>
<line id="Line 105_5" x1="37.5" y1="79.8693" x2="37.5" y2="99.5868" stroke="white" />
<line id="Line 107_3" x1="91.5" y1="79.8693" x2="91.5" y2="99.5868" stroke="white" />
<g id="Frame 1787_5">
<text id="&#233;&#160;&#133;&#231;&#155;&#174;&#229;&#134;&#133;&#229;&#174;&#185;4" fill="#8F8F8F" xml:space="preserve" style="white-space: pre" font-family="Noto Sans JP" font-size="9" font-weight="bold" letter-spacing="0px" x="41" y="93.1533"><tspan x="41" y="93.1533">&#38917;&#30446;&#20869;&#23481;4</tspan></text>
</g>
<line id="Line 106_5" x1="1" y1="99.0893" x2="91" y2="99.0893" stroke="white" />
</g>
<g id="Frame 1795">
<g id="Frame 1788">
<g id="&#232;&#177;&#134;&#229;&#155;&#179;180/off">
<rect width="86" height="74.88" transform="translate(93 42.44)" fill="#999999" fill-opacity="0.3" />
<g id="fill-icon/fill-icon_image">
<path id="currentColor" d="M152 63.44H120C118.939 63.4411 117.923 63.8628 117.173 64.6127C116.423 65.3627 116.001 66.3795 116 67.44V91.44C116.001 92.5005 116.423 93.5173 117.173 94.2673C117.923 95.0172 118.939 95.4389 120 95.44H152C153.061 95.4389 154.077 95.0172 154.827 94.2673C155.577 93.5173 155.999 92.5005 156 91.44V67.44C155.999 66.3795 155.577 65.3627 154.827 64.6127C154.077 63.8628 153.061 63.4411 152 63.44ZM125 69.44C125.593 69.44 126.173 69.6159 126.667 69.9456C127.16 70.2752 127.545 70.7438 127.772 71.292C127.999 71.8401 128.058 72.4433 127.942 73.0253C127.827 73.6072 127.541 74.1418 127.121 74.5613C126.702 74.9809 126.167 75.2666 125.585 75.3824C125.003 75.4981 124.4 75.4387 123.852 75.2116C123.304 74.9846 122.835 74.6001 122.506 74.1067C122.176 73.6134 122 73.0333 122 72.44C122 72.046 122.078 71.6559 122.228 71.2919C122.379 70.9279 122.6 70.5972 122.879 70.3186C123.157 70.04 123.488 69.8191 123.852 69.6683C124.216 69.5176 124.606 69.44 125 69.44ZM136 89.44H122L130 79.44L133 83.44L139 75.44L150 89.44H136Z" fill="#999999" fill-opacity="0.5" />
</g>
</g>
</g>
<line id="Line 106_6" x1="91" y1="118.82" x2="181" y2="118.82" stroke="white" />
</g>
<g id="Frame 1799">
<g id="Frame 1786_6">
<text id="&#233;&#160;&#133;&#231;&#155;&#174;&#229;&#144;&#141;5" fill="#8F8F8F" xml:space="preserve" style="white-space: pre" font-family="Noto Sans JP" font-size="7.5" font-weight="bold" letter-spacing="0px" x="5" y="112.217"><tspan x="5" y="112.217">&#38917;&#30446;&#21517;5</tspan></text>
</g>
<line id="Line 105_6" x1="37.5" y1="99.5868" x2="37.5" y2="119.304" stroke="white" />
<line id="Line 107_4" x1="91.5" y1="99.5868" x2="91.5" y2="119.304" stroke="white" />
<g id="Frame 1787_6">
<text id="&#233;&#160;&#133;&#231;&#155;&#174;&#229;&#134;&#133;&#229;&#174;&#185;5" fill="#8F8F8F" xml:space="preserve" style="white-space: pre" font-family="Noto Sans JP" font-size="9" font-weight="bold" letter-spacing="0px" x="41" y="112.871"><tspan x="41" y="112.871">&#38917;&#30446;&#20869;&#23481;5</tspan></text>
</g>
<line id="Line 106_7" x1="1" y1="118.807" x2="91" y2="118.807" stroke="white" />
</g>
<g id="Frame 1792">
<g id="Frame 1786_7">
<text id="&#239;&#188;&#136;&#230;&#146;&#174;&#229;&#189;&#177;&#230;&#151;&#165;&#239;&#188;&#137;" fill="white" xml:space="preserve" style="white-space: pre" font-family="Noto Sans JP" font-size="9" font-weight="bold" letter-spacing="0px" x="5" y="132.588"><tspan x="5" y="132.588">&#65288;&#25774;&#24433;&#26085;&#65289;</tspan></text>
</g>
<line id="Line 105_7" x1="73.5" y1="119.304" x2="73.5" y2="139.022" stroke="white" />
<g id="Frame 1787_7">
<text id="&#239;&#188;&#136;&#232;&#168;&#173;&#229;&#174;&#154;&#227;&#129;&#149;&#227;&#130;&#140;&#227;&#129;&#159;&#230;&#150;&#189;&#229;&#183;&#165;&#232;&#128;&#133;&#229;&#144;&#141;&#239;&#188;&#137;" fill="white" xml:space="preserve" style="white-space: pre" font-family="Noto Sans JP" font-size="9" font-weight="bold" letter-spacing="0px" x="77" y="132.588"><tspan x="77" y="132.588">&#65288;&#35373;&#23450;&#12373;&#12428;&#12383;&#26045;&#24037;&#32773;&#21517;&#65289;</tspan></text>
</g>
</g>
</g>
</svg>