<svg width="24" height="24" viewBox="0 0 24 24" fill="none" xmlns="http://www.w3.org/2000/svg">
<path fill-rule="evenodd" clip-rule="evenodd" d="M12.0001 21.9998C11.7921 21.9998 11.5893 21.9349 11.4201 21.814C11.1161 21.599 3.97109 16.44 4.00009 9.995C4.00009 5.589 7.58909 2 12.0001 2C16.4111 2 20.0001 5.589 20.0001 10C20.0291 16.44 12.8841 21.599 12.5801 21.814C12.4108 21.9349 12.2081 21.9998 12.0001 21.9998ZM18.0001 10.005C18.0001 6.691 15.3091 4 12.0001 4C8.69109 4 6.00009 6.691 6.00009 10C5.97909 14.441 10.3891 18.427 12.0001 19.735C13.6121 18.428 18.0211 14.443 18.0001 10.005ZM16.0001 10C16.0001 12.206 14.2061 14 12.0001 14C9.79412 14 8.00012 12.206 8.00012 10C8.00012 7.794 9.79412 6 12.0001 6C14.2061 6 16.0001 7.794 16.0001 10ZM14.0001 10C14.0001 8.897 13.1031 8 12.0001 8C10.8971 8 10.0001 8.897 10.0001 10C10.0001 11.103 10.8971 12 12.0001 12C13.1031 12 14.0001 11.103 14.0001 10Z" fill="white"/>
</svg>
