<svg xmlns="http://www.w3.org/2000/svg" width="182" height="140" viewBox="0 0 182 140" fill="none">
<g id="blackboard_layout">
<rect x="1" y="1" width="180" height="138" rx="4" fill="#444444" />
<rect x="1" y="1" width="180" height="138" rx="4" stroke="white" />
<g id="Frame 1795">
<g id="Frame 1788">
<g id="&#232;&#177;&#134;&#229;&#155;&#179;180/off">
<rect width="86" height="94.6025" transform="translate(93 42.4318)" fill="#999999" fill-opacity="0.3" />
<g id="fill-icon/fill-icon_image">
<path id="currentColor" d="M152 73.4318H120C118.939 73.4328 117.923 73.8546 117.173 74.6045C116.423 75.3544 116.001 76.3712 116 77.4318V101.432C116.001 102.492 116.423 103.509 117.173 104.259C117.923 105.009 118.939 105.431 120 105.432H152C153.061 105.431 154.077 105.009 154.827 104.259C155.577 103.509 155.999 102.492 156 101.432V77.4318C155.999 76.3712 155.577 75.3544 154.827 74.6045C154.077 73.8546 153.061 73.4328 152 73.4318ZM125 79.4318C125.593 79.4318 126.173 79.6077 126.667 79.9374C127.16 80.267 127.545 80.7356 127.772 81.2837C127.999 81.8319 128.058 82.4351 127.942 83.0171C127.827 83.599 127.541 84.1335 127.121 84.5531C126.702 84.9727 126.167 85.2584 125.585 85.3741C125.003 85.4899 124.4 85.4305 123.852 85.2034C123.304 84.9764 122.835 84.5918 122.506 84.0985C122.176 83.6051 122 83.0251 122 82.4318C122 82.0378 122.078 81.6477 122.228 81.2837C122.379 80.9197 122.6 80.589 122.879 80.3104C123.157 80.0318 123.488 79.8109 123.852 79.6601C124.216 79.5093 124.606 79.4318 125 79.4318ZM136 99.4318H122L130 89.4318L133 93.4318L139 85.4318L150 99.4318H136Z" fill="#999999" fill-opacity="0.5" />
</g>
</g>
</g>
</g>
<g id="Frame 1793">
<g id="Frame 1786">
<text id="(&#229;&#183;&#165;&#228;&#186;&#139;&#229;&#144;&#141;)" fill="white" xml:space="preserve" style="white-space: pre" font-family="Noto Sans JP" font-size="7" font-weight="bold" letter-spacing="0px" x="5" y="13.662"><tspan x="5" y="13.662">(&#24037;&#20107;&#21517;)</tspan></text>
</g>
<line id="Line 105" x1="37.5001" y1="1" x2="37.5001" y2="20.72" stroke="white" />
<g id="Frame 1787">
<text id="&#239;&#188;&#136;&#230;&#161;&#136;&#228;&#187;&#182;&#229;&#144;&#141;&#239;&#188;&#137;" fill="white" xml:space="preserve" style="white-space: pre" font-family="Noto Sans JP" font-size="9" font-weight="bold" letter-spacing="0px" x="41" y="14.534"><tspan x="41" y="14.534">&#65288;&#26696;&#20214;&#21517;&#65289;</tspan></text>
</g>
<line id="Line 106" x1="1" y1="20.21" x2="181" y2="20.21" stroke="white" />
</g>
<g id="Frame 1790">
<g id="Frame 1786_2">
<text id="&#233;&#160;&#133;&#231;&#155;&#174;&#229;&#144;&#141;2" fill="#8F8F8F" xml:space="preserve" style="white-space: pre" font-family="Noto Sans JP" font-size="7.5" font-weight="bold" letter-spacing="0px" x="95" y="33.35"><tspan x="95" y="33.35">&#38917;&#30446;&#21517;2</tspan></text>
</g>
<line id="Line 105_2" x1="127.5" y1="20.72" x2="127.5" y2="40.44" stroke="white" />
<line id="Line 108" x1="91.5" y1="20.72" x2="91.5" y2="40.44" stroke="white" />
<g id="Frame 1787_2">
<text id="&#233;&#160;&#133;&#231;&#155;&#174;&#229;&#134;&#133;&#229;&#174;&#185;2" fill="#8F8F8F" xml:space="preserve" style="white-space: pre" font-family="Noto Sans JP" font-size="9" font-weight="bold" letter-spacing="0px" x="131" y="34.004"><tspan x="131" y="34.004">&#38917;&#30446;&#20869;&#23481;2</tspan></text>
</g>
<g id="Frame 1786_3">
<text id="&#233;&#160;&#133;&#231;&#155;&#174;&#229;&#144;&#141;1" fill="#8F8F8F" xml:space="preserve" style="white-space: pre" font-family="Noto Sans JP" font-size="7.5" font-weight="bold" letter-spacing="0px" x="5" y="33.35"><tspan x="5" y="33.35">&#38917;&#30446;&#21517;1</tspan></text>
</g>
<line id="Line 105_3" x1="37.5" y1="20.72" x2="37.5" y2="39.9214" stroke="white" />
<g id="Frame 1787_3">
<text id="&#233;&#160;&#133;&#231;&#155;&#174;&#229;&#134;&#133;&#229;&#174;&#185;1" fill="#8F8F8F" xml:space="preserve" style="white-space: pre" font-family="Noto Sans JP" font-size="9" font-weight="bold" letter-spacing="0px" x="41" y="34.004"><tspan x="41" y="34.004">&#38917;&#30446;&#20869;&#23481;1</tspan></text>
</g>
<line id="Line 106_2" x1="1" y1="39.94" x2="181" y2="39.94" stroke="white" />
</g>
<g id="Frame 1797">
<g id="Frame 1786_4">
<text id="&#233;&#160;&#133;&#231;&#155;&#174;&#229;&#144;&#141;3" fill="#8F8F8F" xml:space="preserve" style="white-space: pre" font-family="Noto Sans JP" font-size="7.5" font-weight="bold" letter-spacing="0px" x="5" y="53.07"><tspan x="5" y="53.07">&#38917;&#30446;&#21517;3</tspan></text>
</g>
<line id="Line 105_4" x1="37.5" y1="40.44" x2="37.5" y2="60.16" stroke="white" />
<line id="Line 107" x1="91.5" y1="40.44" x2="91.5" y2="60.16" stroke="white" />
<g id="Frame 1787_4">
<text id="&#233;&#160;&#133;&#231;&#155;&#174;&#229;&#134;&#133;&#229;&#174;&#185;3" fill="#8F8F8F" xml:space="preserve" style="white-space: pre" font-family="Noto Sans JP" font-size="9" font-weight="bold" letter-spacing="0px" x="41" y="53.724"><tspan x="41" y="53.724">&#38917;&#30446;&#20869;&#23481;3</tspan></text>
</g>
<line id="Line 106_3" x1="1" y1="59.66" x2="91" y2="59.66" stroke="white" />
</g>
<g id="Frame 1798">
<g id="Frame 1786_5">
<text id="&#233;&#160;&#133;&#231;&#155;&#174;&#229;&#144;&#141;4" fill="#8F8F8F" xml:space="preserve" style="white-space: pre" font-family="Noto Sans JP" font-size="7.5" font-weight="bold" letter-spacing="0px" x="5" y="72.79"><tspan x="5" y="72.79">&#38917;&#30446;&#21517;4</tspan></text>
</g>
<line id="Line 105_5" x1="37.5" y1="60.16" x2="37.5" y2="79.88" stroke="white" />
<line id="Line 107_2" x1="91.5" y1="60.16" x2="91.5" y2="79.88" stroke="white" />
<g id="Frame 1787_5">
<text id="&#233;&#160;&#133;&#231;&#155;&#174;&#229;&#134;&#133;&#229;&#174;&#185;4" fill="#8F8F8F" xml:space="preserve" style="white-space: pre" font-family="Noto Sans JP" font-size="9" font-weight="bold" letter-spacing="0px" x="41" y="73.444"><tspan x="41" y="73.444">&#38917;&#30446;&#20869;&#23481;4</tspan></text>
</g>
<line id="Line 106_4" x1="1" y1="79.38" x2="91" y2="79.38" stroke="white" />
</g>
<g id="Frame 1799">
<g id="Frame 1786_6">
<text id="&#233;&#160;&#133;&#231;&#155;&#174;&#229;&#144;&#141;5" fill="#8F8F8F" xml:space="preserve" style="white-space: pre" font-family="Noto Sans JP" font-size="7.5" font-weight="bold" letter-spacing="0px" x="5" y="92.51"><tspan x="5" y="92.51">&#38917;&#30446;&#21517;5</tspan></text>
</g>
<line id="Line 105_6" x1="37.5" y1="79.88" x2="37.5" y2="99.6" stroke="white" />
<line id="Line 107_3" x1="91.5" y1="79.88" x2="91.5" y2="99.6" stroke="white" />
<g id="Frame 1787_6">
<text id="&#233;&#160;&#133;&#231;&#155;&#174;&#229;&#134;&#133;&#229;&#174;&#185;5" fill="#8F8F8F" xml:space="preserve" style="white-space: pre" font-family="Noto Sans JP" font-size="9" font-weight="bold" letter-spacing="0px" x="41" y="93.164"><tspan x="41" y="93.164">&#38917;&#30446;&#20869;&#23481;5</tspan></text>
</g>
<line id="Line 106_5" x1="1" y1="99.1" x2="91" y2="99.1" stroke="white" />
</g>
<g id="Frame 1800">
<g id="Frame 1786_7">
<text id="&#233;&#160;&#133;&#231;&#155;&#174;&#229;&#144;&#141;6" fill="#8F8F8F" xml:space="preserve" style="white-space: pre" font-family="Noto Sans JP" font-size="7.5" font-weight="bold" letter-spacing="0px" x="5" y="112.23"><tspan x="5" y="112.23">&#38917;&#30446;&#21517;6</tspan></text>
</g>
<line id="Line 105_7" x1="37.5" y1="99.6" x2="37.5" y2="119.32" stroke="white" />
<line id="Line 107_4" x1="91.5" y1="99.6" x2="91.5" y2="119.32" stroke="white" />
<g id="Frame 1787_7">
<text id="&#233;&#160;&#133;&#231;&#155;&#174;&#229;&#134;&#133;&#229;&#174;&#185;6" fill="#8F8F8F" xml:space="preserve" style="white-space: pre" font-family="Noto Sans JP" font-size="9" font-weight="bold" letter-spacing="0px" x="41" y="112.884"><tspan x="41" y="112.884">&#38917;&#30446;&#20869;&#23481;6</tspan></text>
</g>
<line id="Line 106_6" x1="1" y1="118.82" x2="91" y2="118.82" stroke="white" />
</g>
<g id="Frame 1801">
<g id="Frame 1786_8">
<text id="&#233;&#160;&#133;&#231;&#155;&#174;&#229;&#144;&#141;7" fill="#8F8F8F" xml:space="preserve" style="white-space: pre" font-family="Noto Sans JP" font-size="7.5" font-weight="bold" letter-spacing="0px" x="5" y="131.929"><tspan x="5" y="131.929">&#38917;&#30446;&#21517;7</tspan></text>
</g>
<line id="Line 105_8" x1="37.5" y1="119.3" x2="37.5" y2="139.017" stroke="white" />
<line id="Line 107_5" x1="91.5" y1="119.3" x2="91.5" y2="139.017" stroke="white" />
<g id="Frame 1787_8">
<text id="&#233;&#160;&#133;&#231;&#155;&#174;&#229;&#134;&#133;&#229;&#174;&#185;7" fill="#8F8F8F" xml:space="preserve" style="white-space: pre" font-family="Noto Sans JP" font-size="9" font-weight="bold" letter-spacing="0px" x="41" y="132.583"><tspan x="41" y="132.583">&#38917;&#30446;&#20869;&#23481;7</tspan></text>
</g>
</g>
</g>
</svg>