<svg xmlns="http://www.w3.org/2000/svg" width="182" height="140" viewBox="0 0 182 140" fill="none">
<g id="blackboard_layout">
<rect x="1" y="1" width="180" height="138" rx="4" fill="#444444" />
<rect x="1" y="1" width="180" height="138" rx="4" stroke="white" />
<g id="Frame 1793">
<g id="Frame 1786">
<text id="(&#229;&#183;&#165;&#228;&#186;&#139;&#229;&#144;&#141;)" fill="white" xml:space="preserve" style="white-space: pre" font-family="Noto Sans JP" font-size="7" font-weight="bold" letter-spacing="0px" x="5" y="13.6649"><tspan x="5" y="13.6649">(&#24037;&#20107;&#21517;)</tspan></text>
</g>
<line id="Line 105" x1="37.5001" y1="1" x2="37.5001" y2="20.72" stroke="white" />
<g id="Frame 1787">
<text id="&#239;&#188;&#136;&#230;&#161;&#136;&#228;&#187;&#182;&#229;&#144;&#141;&#239;&#188;&#137;" fill="white" xml:space="preserve" style="white-space: pre" font-family="Noto Sans JP" font-size="9" font-weight="bold" letter-spacing="0px" x="41" y="14.5369"><tspan x="41" y="14.5369">&#65288;&#26696;&#20214;&#21517;&#65289;</tspan></text>
</g>
<line id="Line 106" x1="1" y1="20.21" x2="181" y2="20.21" stroke="white" />
</g>
<g id="Frame 1790">
<g id="Frame 1786_2">
<text id="&#233;&#160;&#133;&#231;&#155;&#174;&#229;&#144;&#141;1" fill="#8F8F8F" xml:space="preserve" style="white-space: pre" font-family="Noto Sans JP" font-size="7.5" font-weight="bold" letter-spacing="0px" x="5" y="33.3443"><tspan x="5" y="33.3443">&#38917;&#30446;&#21517;1</tspan></text>
</g>
<line id="Line 105_2" x1="37.5" y1="20.7143" x2="37.5" y2="39.9157" stroke="white" />
<g id="Frame 1787_2">
<text id="&#233;&#160;&#133;&#231;&#155;&#174;&#229;&#134;&#133;&#229;&#174;&#185;1" fill="#8F8F8F" xml:space="preserve" style="white-space: pre" font-family="Noto Sans JP" font-size="9" font-weight="bold" letter-spacing="0px" x="41" y="33.9983"><tspan x="41" y="33.9983">&#38917;&#30446;&#20869;&#23481;1</tspan></text>
</g>
<line id="Line 106_2" x1="1" y1="39.9343" x2="181" y2="39.9343" stroke="white" />
</g>
<g id="Frame 1796">
<g id="Frame 1786_3">
<text id="&#233;&#160;&#133;&#231;&#155;&#174;&#229;&#144;&#141;2" fill="#8F8F8F" xml:space="preserve" style="white-space: pre" font-family="Noto Sans JP" font-size="7.5" font-weight="bold" letter-spacing="0px" x="5" y="53.0643"><tspan x="5" y="53.0643">&#38917;&#30446;&#21517;2</tspan></text>
</g>
<line id="Line 105_3" x1="37.5" y1="40.4343" x2="37.5" y2="60.1518" stroke="white" />
<line id="Line 107" x1="91.5" y1="40.4343" x2="91.5" y2="60.1518" stroke="white" />
<g id="Frame 1787_3">
<text id="&#233;&#160;&#133;&#231;&#155;&#174;&#229;&#134;&#133;&#229;&#174;&#185;2" fill="#8F8F8F" xml:space="preserve" style="white-space: pre" font-family="Noto Sans JP" font-size="9" font-weight="bold" letter-spacing="0px" x="41" y="53.7183"><tspan x="41" y="53.7183">&#38917;&#30446;&#20869;&#23481;2</tspan></text>
</g>
<line id="Line 106_3" x1="1" y1="59.6543" x2="91" y2="59.6543" stroke="white" />
</g>
<g id="Frame 1797">
<g id="Frame 1786_4">
<text id="&#233;&#160;&#133;&#231;&#155;&#174;&#229;&#144;&#141;3" fill="#8F8F8F" xml:space="preserve" style="white-space: pre" font-family="Noto Sans JP" font-size="7.5" font-weight="bold" letter-spacing="0px" x="5" y="72.7818"><tspan x="5" y="72.7818">&#38917;&#30446;&#21517;3</tspan></text>
</g>
<line id="Line 105_4" x1="37.5" y1="60.1518" x2="37.5" y2="79.8693" stroke="white" />
<line id="Line 107_2" x1="91.5" y1="60.1518" x2="91.5" y2="79.8693" stroke="white" />
<g id="Frame 1787_4">
<text id="&#233;&#160;&#133;&#231;&#155;&#174;&#229;&#134;&#133;&#229;&#174;&#185;3" fill="#8F8F8F" xml:space="preserve" style="white-space: pre" font-family="Noto Sans JP" font-size="9" font-weight="bold" letter-spacing="0px" x="41" y="73.4358"><tspan x="41" y="73.4358">&#38917;&#30446;&#20869;&#23481;3</tspan></text>
</g>
<line id="Line 106_4" x1="1" y1="79.3718" x2="91" y2="79.3718" stroke="white" />
</g>
<g id="Frame 1798">
<g id="Frame 1786_5">
<text id="&#233;&#160;&#133;&#231;&#155;&#174;&#229;&#144;&#141;4" fill="#8F8F8F" xml:space="preserve" style="white-space: pre" font-family="Noto Sans JP" font-size="7.5" font-weight="bold" letter-spacing="0px" x="5" y="92.4993"><tspan x="5" y="92.4993">&#38917;&#30446;&#21517;4</tspan></text>
</g>
<line id="Line 105_5" x1="37.5" y1="79.8693" x2="37.5" y2="99.5868" stroke="white" />
<line id="Line 107_3" x1="91.5" y1="79.8693" x2="91.5" y2="99.5868" stroke="white" />
<g id="Frame 1787_5">
<text id="&#233;&#160;&#133;&#231;&#155;&#174;&#229;&#134;&#133;&#229;&#174;&#185;4" fill="#8F8F8F" xml:space="preserve" style="white-space: pre" font-family="Noto Sans JP" font-size="9" font-weight="bold" letter-spacing="0px" x="41" y="93.1533"><tspan x="41" y="93.1533">&#38917;&#30446;&#20869;&#23481;4</tspan></text>
</g>
<line id="Line 106_5" x1="1" y1="99.0893" x2="91" y2="99.0893" stroke="white" />
</g>
<g id="Frame 1795">
<g id="Frame 1788">
<g id="&#232;&#177;&#134;&#229;&#155;&#179;180/off">
<rect width="86" height="94.6" transform="translate(93 42.44)" fill="#999999" fill-opacity="0.3" />
<g id="fill-icon/fill-icon_image">
<path id="currentColor" d="M152 73.44H120C118.939 73.4411 117.923 73.8628 117.173 74.6127C116.423 75.3627 116.001 76.3795 116 77.44V101.44C116.001 102.501 116.423 103.517 117.173 104.267C117.923 105.017 118.939 105.439 120 105.44H152C153.061 105.439 154.077 105.017 154.827 104.267C155.577 103.517 155.999 102.501 156 101.44V77.44C155.999 76.3795 155.577 75.3627 154.827 74.6127C154.077 73.8628 153.061 73.4411 152 73.44ZM125 79.44C125.593 79.44 126.173 79.6159 126.667 79.9456C127.16 80.2752 127.545 80.7438 127.772 81.292C127.999 81.8401 128.058 82.4433 127.942 83.0253C127.827 83.6072 127.541 84.1418 127.121 84.5613C126.702 84.9809 126.167 85.2666 125.585 85.3824C125.003 85.4981 124.4 85.4387 123.852 85.2116C123.304 84.9846 122.835 84.6001 122.506 84.1067C122.176 83.6134 122 83.0333 122 82.44C122 82.046 122.078 81.6559 122.228 81.2919C122.379 80.9279 122.6 80.5972 122.879 80.3186C123.157 80.04 123.488 79.8191 123.852 79.6683C124.216 79.5176 124.606 79.44 125 79.44ZM136 99.44H122L130 89.44L133 93.44L139 85.44L150 99.44H136Z" fill="#999999" fill-opacity="0.5" />
</g>
</g>
</g>
</g>
<g id="Frame 1799">
<g id="Frame 1786_6">
<text id="&#233;&#160;&#133;&#231;&#155;&#174;&#229;&#144;&#141;5" fill="#8F8F8F" xml:space="preserve" style="white-space: pre" font-family="Noto Sans JP" font-size="7.5" font-weight="bold" letter-spacing="0px" x="5" y="112.217"><tspan x="5" y="112.217">&#38917;&#30446;&#21517;5</tspan></text>
</g>
<line id="Line 105_6" x1="37.5" y1="99.5868" x2="37.5" y2="119.304" stroke="white" />
<line id="Line 107_4" x1="91.5" y1="99.5868" x2="91.5" y2="119.304" stroke="white" />
<g id="Frame 1787_6">
<text id="&#233;&#160;&#133;&#231;&#155;&#174;&#229;&#134;&#133;&#229;&#174;&#185;5" fill="#8F8F8F" xml:space="preserve" style="white-space: pre" font-family="Noto Sans JP" font-size="9" font-weight="bold" letter-spacing="0px" x="41" y="112.871"><tspan x="41" y="112.871">&#38917;&#30446;&#20869;&#23481;5</tspan></text>
</g>
<line id="Line 106_6" x1="1" y1="118.807" x2="91" y2="118.807" stroke="white" />
</g>
<g id="Frame 1800">
<g id="Frame 1786_7">
<text id="&#233;&#160;&#133;&#231;&#155;&#174;&#229;&#144;&#141;6" fill="#8F8F8F" xml:space="preserve" style="white-space: pre" font-family="Noto Sans JP" font-size="7.5" font-weight="bold" letter-spacing="0px" x="5" y="131.929"><tspan x="5" y="131.929">&#38917;&#30446;&#21517;6</tspan></text>
</g>
<line id="Line 105_7" x1="37.5" y1="119.3" x2="37.5" y2="139.017" stroke="white" />
<line id="Line 107_5" x1="91.5" y1="119.3" x2="91.5" y2="139.017" stroke="white" />
<g id="Frame 1787_7">
<text id="&#233;&#160;&#133;&#231;&#155;&#174;&#229;&#134;&#133;&#229;&#174;&#185;6" fill="#8F8F8F" xml:space="preserve" style="white-space: pre" font-family="Noto Sans JP" font-size="9" font-weight="bold" letter-spacing="0px" x="41" y="132.583"><tspan x="41" y="132.583">&#38917;&#30446;&#20869;&#23481;6</tspan></text>
</g>
</g>
</g>
</svg>