<svg xmlns="http://www.w3.org/2000/svg" width="182" height="140" viewBox="0 0 182 140" fill="none">
<g id="blackboard_layout">
<rect x="1" y="1" width="180" height="138" rx="4" fill="#444444" />
<rect x="1" y="1" width="180" height="138" rx="4" stroke="white" />
<g id="Frame 1793">
<g id="Frame 1786">
<text id="(&#229;&#183;&#165;&#228;&#186;&#139;&#229;&#144;&#141;)" fill="white" xml:space="preserve" style="white-space: pre" font-family="Noto Sans JP" font-size="7" font-weight="bold" letter-spacing="0px" x="5" y="12.4295"><tspan x="5" y="12.4295">(&#24037;&#20107;&#21517;)</tspan></text>
</g>
<line id="Line 105" x1="37.5001" y1="1" x2="37.5001" y2="18.25" stroke="white" />
<g id="Frame 1787">
<text id="&#239;&#188;&#136;&#230;&#161;&#136;&#228;&#187;&#182;&#229;&#144;&#141;&#239;&#188;&#137;" fill="white" xml:space="preserve" style="white-space: pre" font-family="Noto Sans JP" font-size="9" font-weight="bold" letter-spacing="0px" x="41" y="13.3015"><tspan x="41" y="13.3015">&#65288;&#26696;&#20214;&#21517;&#65289;</tspan></text>
</g>
<line id="Line 106" x1="1" y1="17.75" x2="181" y2="17.75" stroke="white" />
</g>
<g id="Frame 1790">
<g id="Frame 1786_2">
<text id="&#233;&#160;&#133;&#231;&#155;&#174;&#229;&#144;&#141;1" fill="#8F8F8F" xml:space="preserve" style="white-space: pre" font-family="Noto Sans JP" font-size="7.5" font-weight="bold" letter-spacing="0px" x="5" y="29.645"><tspan x="5" y="29.645">&#38917;&#30446;&#21517;1</tspan></text>
</g>
<line id="Line 105_2" x1="37.5" y1="18.25" x2="37.5" y2="35.0464" stroke="white" />
<g id="Frame 1787_2">
<text id="&#233;&#160;&#133;&#231;&#155;&#174;&#229;&#134;&#133;&#229;&#174;&#185;1" fill="#8F8F8F" xml:space="preserve" style="white-space: pre" font-family="Noto Sans JP" font-size="9" font-weight="bold" letter-spacing="0px" x="41" y="30.299"><tspan x="41" y="30.299">&#38917;&#30446;&#20869;&#23481;1</tspan></text>
</g>
<line id="Line 106_2" x1="1" y1="35" x2="181" y2="35" stroke="white" />
</g>
<g id="Frame 1796">
<g id="Frame 1786_3">
<text id="&#233;&#160;&#133;&#231;&#155;&#174;&#229;&#144;&#141;2" fill="#8F8F8F" xml:space="preserve" style="white-space: pre" font-family="Noto Sans JP" font-size="7.5" font-weight="bold" letter-spacing="0px" x="5" y="46.8961"><tspan x="5" y="46.8961">&#38917;&#30446;&#21517;2</tspan></text>
</g>
<line id="Line 105_3" x1="37.5" y1="35.5" x2="37.5" y2="52.75" stroke="white" />
<line id="Line 107" x1="91.5" y1="35.5" x2="91.5" y2="52.75" stroke="white" />
<g id="Frame 1787_3">
<text id="&#233;&#160;&#133;&#231;&#155;&#174;&#229;&#134;&#133;&#229;&#174;&#185;2" fill="#8F8F8F" xml:space="preserve" style="white-space: pre" font-family="Noto Sans JP" font-size="9" font-weight="bold" letter-spacing="0px" x="41" y="47.5501"><tspan x="41" y="47.5501">&#38917;&#30446;&#20869;&#23481;2</tspan></text>
</g>
<line id="Line 106_3" x1="1" y1="52.25" x2="91" y2="52.25" stroke="white" />
</g>
<g id="Frame 1797">
<g id="Frame 1786_4">
<text id="&#233;&#160;&#133;&#231;&#155;&#174;&#229;&#144;&#141;3" fill="#8F8F8F" xml:space="preserve" style="white-space: pre" font-family="Noto Sans JP" font-size="7.5" font-weight="bold" letter-spacing="0px" x="5" y="64.1461"><tspan x="5" y="64.1461">&#38917;&#30446;&#21517;3</tspan></text>
</g>
<line id="Line 105_4" x1="37.5" y1="52.75" x2="37.5" y2="70" stroke="white" />
<line id="Line 107_2" x1="91.5" y1="52.75" x2="91.5" y2="70" stroke="white" />
<g id="Frame 1787_4">
<text id="&#233;&#160;&#133;&#231;&#155;&#174;&#229;&#134;&#133;&#229;&#174;&#185;3" fill="#8F8F8F" xml:space="preserve" style="white-space: pre" font-family="Noto Sans JP" font-size="9" font-weight="bold" letter-spacing="0px" x="41" y="64.8001"><tspan x="41" y="64.8001">&#38917;&#30446;&#20869;&#23481;3</tspan></text>
</g>
<line id="Line 106_4" x1="1" y1="69.5" x2="91" y2="69.5" stroke="white" />
</g>
<g id="Frame 1798">
<g id="Frame 1786_5">
<text id="&#233;&#160;&#133;&#231;&#155;&#174;&#229;&#144;&#141;4" fill="#8F8F8F" xml:space="preserve" style="white-space: pre" font-family="Noto Sans JP" font-size="7.5" font-weight="bold" letter-spacing="0px" x="5" y="81.3961"><tspan x="5" y="81.3961">&#38917;&#30446;&#21517;4</tspan></text>
</g>
<line id="Line 105_5" x1="37.5" y1="70" x2="37.5" y2="87.25" stroke="white" />
<line id="Line 107_3" x1="91.5" y1="70" x2="91.5" y2="87.25" stroke="white" />
<g id="Frame 1787_5">
<text id="&#233;&#160;&#133;&#231;&#155;&#174;&#229;&#134;&#133;&#229;&#174;&#185;4" fill="#8F8F8F" xml:space="preserve" style="white-space: pre" font-family="Noto Sans JP" font-size="9" font-weight="bold" letter-spacing="0px" x="41" y="82.0501"><tspan x="41" y="82.0501">&#38917;&#30446;&#20869;&#23481;4</tspan></text>
</g>
<line id="Line 106_5" x1="1" y1="86.75" x2="91" y2="86.75" stroke="white" />
</g>
<g id="Frame 1795">
<g id="Frame 1788">
<g id="&#232;&#177;&#134;&#229;&#155;&#179;180/off">
<rect width="86" height="82.25" transform="translate(93 37.5)" fill="#999999" fill-opacity="0.3" />
<g id="fill-icon/fill-icon_image">
<path id="currentColor" d="M152 62.5H120C118.939 62.5011 117.923 62.9228 117.173 63.6727C116.423 64.4227 116.001 65.4395 116 66.5V90.5C116.001 91.5605 116.423 92.5773 117.173 93.3273C117.923 94.0772 118.939 94.4989 120 94.5H152C153.061 94.4989 154.077 94.0772 154.827 93.3273C155.577 92.5773 155.999 91.5605 156 90.5V66.5C155.999 65.4395 155.577 64.4227 154.827 63.6727C154.077 62.9228 153.061 62.5011 152 62.5ZM125 68.5C125.593 68.5 126.173 68.6759 126.667 69.0056C127.16 69.3352 127.545 69.8038 127.772 70.352C127.999 70.9001 128.058 71.5033 127.942 72.0853C127.827 72.6672 127.541 73.2018 127.121 73.6213C126.702 74.0409 126.167 74.3266 125.585 74.4424C125.003 74.5581 124.4 74.4987 123.852 74.2716C123.304 74.0446 122.835 73.6601 122.506 73.1667C122.176 72.6734 122 72.0933 122 71.5C122 71.106 122.078 70.7159 122.228 70.3519C122.379 69.9879 122.6 69.6572 122.879 69.3786C123.157 69.1 123.488 68.8791 123.852 68.7283C124.216 68.5776 124.606 68.5 125 68.5ZM136 88.5H122L130 78.5L133 82.5L139 74.5L150 88.5H136Z" fill="#999999" fill-opacity="0.5" />
</g>
</g>
</g>
<line id="Line 106_6" x1="91" y1="121.25" x2="181" y2="121.25" stroke="white" />
</g>
<g id="Frame 1799">
<g id="Frame 1786_6">
<text id="&#233;&#160;&#133;&#231;&#155;&#174;&#229;&#144;&#141;5" fill="#8F8F8F" xml:space="preserve" style="white-space: pre" font-family="Noto Sans JP" font-size="7.5" font-weight="bold" letter-spacing="0px" x="5" y="98.6461"><tspan x="5" y="98.6461">&#38917;&#30446;&#21517;5</tspan></text>
</g>
<line id="Line 105_6" x1="37.5" y1="87.25" x2="37.5" y2="104.5" stroke="white" />
<line id="Line 107_4" x1="91.5" y1="87.25" x2="91.5" y2="104.5" stroke="white" />
<g id="Frame 1787_6">
<text id="&#233;&#160;&#133;&#231;&#155;&#174;&#229;&#134;&#133;&#229;&#174;&#185;5" fill="#8F8F8F" xml:space="preserve" style="white-space: pre" font-family="Noto Sans JP" font-size="9" font-weight="bold" letter-spacing="0px" x="41" y="99.3001"><tspan x="41" y="99.3001">&#38917;&#30446;&#20869;&#23481;5</tspan></text>
</g>
<line id="Line 106_7" x1="1" y1="104" x2="91" y2="104" stroke="white" />
</g>
<g id="Frame 1800">
<g id="Frame 1786_7">
<text id="&#233;&#160;&#133;&#231;&#155;&#174;&#229;&#144;&#141;6" fill="#8F8F8F" xml:space="preserve" style="white-space: pre" font-family="Noto Sans JP" font-size="7.5" font-weight="bold" letter-spacing="0px" x="5" y="115.895"><tspan x="5" y="115.895">&#38917;&#30446;&#21517;6</tspan></text>
</g>
<line id="Line 105_7" x1="37.5" y1="104.5" x2="37.5" y2="121.75" stroke="white" />
<line id="Line 107_5" x1="91.5" y1="104.5" x2="91.5" y2="121.75" stroke="white" />
<g id="Frame 1787_7">
<text id="&#233;&#160;&#133;&#231;&#155;&#174;&#229;&#134;&#133;&#229;&#174;&#185;6" fill="#8F8F8F" xml:space="preserve" style="white-space: pre" font-family="Noto Sans JP" font-size="9" font-weight="bold" letter-spacing="0px" x="41" y="116.549"><tspan x="41" y="116.549">&#38917;&#30446;&#20869;&#23481;6</tspan></text>
</g>
<line id="Line 106_8" x1="1" y1="121.25" x2="91" y2="121.25" stroke="white" />
</g>
<g id="Frame 1792">
<g id="Frame 1787_8">
<text id="&#239;&#188;&#136;&#232;&#168;&#173;&#229;&#174;&#154;&#227;&#129;&#149;&#227;&#130;&#140;&#227;&#129;&#159;&#230;&#150;&#189;&#229;&#183;&#165;&#232;&#128;&#133;&#229;&#144;&#141;&#239;&#188;&#137;" fill="white" xml:space="preserve" style="white-space: pre" font-family="Noto Sans JP" font-size="9" font-weight="bold" letter-spacing="0px" x="78" y="133.799"><tspan x="78" y="133.799">&#65288;&#35373;&#23450;&#12373;&#12428;&#12383;&#26045;&#24037;&#32773;&#21517;&#65289;</tspan></text>
</g>
</g>
</g>
</svg>