<svg xmlns="http://www.w3.org/2000/svg" width="182" height="140" viewBox="0 0 182 140" fill="none">
<g id="blackboard_layout">
<rect x="1" y="1" width="180" height="138" rx="4" fill="#444444" />
<rect x="1" y="1" width="180" height="138" rx="4" stroke="white" />
<g id="Frame 1793">
<g id="Frame 1786">
<text id="(&#229;&#183;&#165;&#228;&#186;&#139;&#229;&#144;&#141;)" fill="white" xml:space="preserve" style="white-space: pre" font-family="Noto Sans JP" font-size="7" font-weight="bold" letter-spacing="0px" x="5" y="12.4295"><tspan x="5" y="12.4295">(&#24037;&#20107;&#21517;)</tspan></text>
</g>
<line id="Line 105" x1="37.5001" y1="1" x2="37.5001" y2="18.25" stroke="white" />
<g id="Frame 1787">
<text id="&#239;&#188;&#136;&#230;&#161;&#136;&#228;&#187;&#182;&#229;&#144;&#141;&#239;&#188;&#137;" fill="white" xml:space="preserve" style="white-space: pre" font-family="Noto Sans JP" font-size="9" font-weight="bold" letter-spacing="0px" x="41" y="13.3015"><tspan x="41" y="13.3015">&#65288;&#26696;&#20214;&#21517;&#65289;</tspan></text>
</g>
<line id="Line 106" x1="1" y1="17.75" x2="181" y2="17.75" stroke="white" />
</g>
<g id="Frame 1790">
<g id="Frame 1786_2">
<text id="&#233;&#160;&#133;&#231;&#155;&#174;&#229;&#144;&#141;1" fill="#8F8F8F" xml:space="preserve" style="white-space: pre" font-family="Noto Sans JP" font-size="7.5" font-weight="bold" letter-spacing="0px" x="5" y="29.645"><tspan x="5" y="29.645">&#38917;&#30446;&#21517;1</tspan></text>
</g>
<line id="Line 105_2" x1="37.5" y1="18.25" x2="37.5" y2="35.5" stroke="white" />
<line id="Line 107" x1="91.5" y1="18.25" x2="91.5" y2="35.5" stroke="white" />
<g id="Frame 1787_2">
<text id="&#233;&#160;&#133;&#231;&#155;&#174;&#229;&#134;&#133;&#229;&#174;&#185;1" fill="#8F8F8F" xml:space="preserve" style="white-space: pre" font-family="Noto Sans JP" font-size="9" font-weight="bold" letter-spacing="0px" x="41" y="30.299"><tspan x="41" y="30.299">&#38917;&#30446;&#20869;&#23481;1</tspan></text>
</g>
<line id="Line 106_2" x1="1" y1="35" x2="91" y2="35" stroke="white" />
</g>
<g id="Frame 1796">
<g id="Frame 1786_3">
<text id="&#233;&#160;&#133;&#231;&#155;&#174;&#229;&#144;&#141;2" fill="#8F8F8F" xml:space="preserve" style="white-space: pre" font-family="Noto Sans JP" font-size="7.5" font-weight="bold" letter-spacing="0px" x="5" y="46.895"><tspan x="5" y="46.895">&#38917;&#30446;&#21517;2</tspan></text>
</g>
<line id="Line 105_3" x1="37.5" y1="35.5" x2="37.5" y2="52.75" stroke="white" />
<line id="Line 107_2" x1="91.5" y1="35.5" x2="91.5" y2="52.75" stroke="white" />
<g id="Frame 1787_3">
<text id="&#233;&#160;&#133;&#231;&#155;&#174;&#229;&#134;&#133;&#229;&#174;&#185;2" fill="#8F8F8F" xml:space="preserve" style="white-space: pre" font-family="Noto Sans JP" font-size="9" font-weight="bold" letter-spacing="0px" x="41" y="47.549"><tspan x="41" y="47.549">&#38917;&#30446;&#20869;&#23481;2</tspan></text>
</g>
<line id="Line 106_3" x1="1" y1="52.25" x2="91" y2="52.25" stroke="white" />
</g>
<g id="Frame 1797">
<g id="Frame 1786_4">
<text id="&#233;&#160;&#133;&#231;&#155;&#174;&#229;&#144;&#141;3" fill="#8F8F8F" xml:space="preserve" style="white-space: pre" font-family="Noto Sans JP" font-size="7.5" font-weight="bold" letter-spacing="0px" x="5" y="64.145"><tspan x="5" y="64.145">&#38917;&#30446;&#21517;3</tspan></text>
</g>
<line id="Line 105_4" x1="37.5" y1="52.75" x2="37.5" y2="70" stroke="white" />
<line id="Line 107_3" x1="91.5" y1="52.75" x2="91.5" y2="70" stroke="white" />
<g id="Frame 1787_4">
<text id="&#233;&#160;&#133;&#231;&#155;&#174;&#229;&#134;&#133;&#229;&#174;&#185;3" fill="#8F8F8F" xml:space="preserve" style="white-space: pre" font-family="Noto Sans JP" font-size="9" font-weight="bold" letter-spacing="0px" x="41" y="64.799"><tspan x="41" y="64.799">&#38917;&#30446;&#20869;&#23481;3</tspan></text>
</g>
<line id="Line 106_4" x1="1" y1="69.5" x2="91" y2="69.5" stroke="white" />
</g>
<g id="Frame 1798">
<g id="Frame 1786_5">
<text id="&#233;&#160;&#133;&#231;&#155;&#174;&#229;&#144;&#141;4" fill="#8F8F8F" xml:space="preserve" style="white-space: pre" font-family="Noto Sans JP" font-size="7.5" font-weight="bold" letter-spacing="0px" x="5" y="81.395"><tspan x="5" y="81.395">&#38917;&#30446;&#21517;4</tspan></text>
</g>
<line id="Line 105_5" x1="37.5" y1="70" x2="37.5" y2="87.25" stroke="white" />
<line id="Line 107_4" x1="91.5" y1="70" x2="91.5" y2="87.25" stroke="white" />
<g id="Frame 1787_5">
<text id="&#233;&#160;&#133;&#231;&#155;&#174;&#229;&#134;&#133;&#229;&#174;&#185;4" fill="#8F8F8F" xml:space="preserve" style="white-space: pre" font-family="Noto Sans JP" font-size="9" font-weight="bold" letter-spacing="0px" x="41" y="82.049"><tspan x="41" y="82.049">&#38917;&#30446;&#20869;&#23481;4</tspan></text>
</g>
<line id="Line 106_5" x1="1" y1="86.75" x2="91" y2="86.75" stroke="white" />
</g>
<g id="Frame 1799">
<g id="Frame 1786_6">
<text id="&#233;&#160;&#133;&#231;&#155;&#174;&#229;&#144;&#141;5" fill="#8F8F8F" xml:space="preserve" style="white-space: pre" font-family="Noto Sans JP" font-size="7.5" font-weight="bold" letter-spacing="0px" x="5" y="98.645"><tspan x="5" y="98.645">&#38917;&#30446;&#21517;5</tspan></text>
</g>
<line id="Line 105_6" x1="37.5" y1="87.25" x2="37.5" y2="104.5" stroke="white" />
<line id="Line 107_5" x1="91.5" y1="87.25" x2="91.5" y2="104.5" stroke="white" />
<g id="Frame 1787_6">
<text id="&#233;&#160;&#133;&#231;&#155;&#174;&#229;&#134;&#133;&#229;&#174;&#185;5" fill="#8F8F8F" xml:space="preserve" style="white-space: pre" font-family="Noto Sans JP" font-size="9" font-weight="bold" letter-spacing="0px" x="41" y="99.299"><tspan x="41" y="99.299">&#38917;&#30446;&#20869;&#23481;5</tspan></text>
</g>
<line id="Line 106_6" x1="1" y1="104" x2="91" y2="104" stroke="white" />
</g>
<g id="Frame 1800">
<g id="Frame 1786_7">
<text id="&#233;&#160;&#133;&#231;&#155;&#174;&#229;&#144;&#141;6" fill="#8F8F8F" xml:space="preserve" style="white-space: pre" font-family="Noto Sans JP" font-size="7.5" font-weight="bold" letter-spacing="0px" x="5" y="115.895"><tspan x="5" y="115.895">&#38917;&#30446;&#21517;6</tspan></text>
</g>
<line id="Line 105_7" x1="37.5" y1="104.5" x2="37.5" y2="121.75" stroke="white" />
<line id="Line 107_6" x1="91.5" y1="104.5" x2="91.5" y2="121.75" stroke="white" />
<g id="Frame 1787_7">
<text id="&#233;&#160;&#133;&#231;&#155;&#174;&#229;&#134;&#133;&#229;&#174;&#185;6" fill="#8F8F8F" xml:space="preserve" style="white-space: pre" font-family="Noto Sans JP" font-size="9" font-weight="bold" letter-spacing="0px" x="41" y="116.549"><tspan x="41" y="116.549">&#38917;&#30446;&#20869;&#23481;6</tspan></text>
</g>
<line id="Line 106_7" x1="1" y1="121.25" x2="91" y2="121.25" stroke="white" />
</g>
<g id="Frame 1801">
<g id="Frame 1786_8">
<text id="&#233;&#160;&#133;&#231;&#155;&#174;&#229;&#144;&#141;7" fill="#8F8F8F" xml:space="preserve" style="white-space: pre" font-family="Noto Sans JP" font-size="7.5" font-weight="bold" letter-spacing="0px" x="5" y="133.145"><tspan x="5" y="133.145">&#38917;&#30446;&#21517;7</tspan></text>
</g>
<line id="Line 105_8" x1="37.5" y1="121.75" x2="37.5" y2="139" stroke="white" />
<line id="Line 107_7" x1="91.5" y1="121.75" x2="91.5" y2="139" stroke="white" />
<g id="Frame 1787_8">
<text id="&#233;&#160;&#133;&#231;&#155;&#174;&#229;&#134;&#133;&#229;&#174;&#185;7" fill="#8F8F8F" xml:space="preserve" style="white-space: pre" font-family="Noto Sans JP" font-size="9" font-weight="bold" letter-spacing="0px" x="41" y="133.799"><tspan x="41" y="133.799">&#38917;&#30446;&#20869;&#23481;7</tspan></text>
</g>
</g>
<g id="Frame 1795">
<g id="Frame 1788">
<g id="&#232;&#177;&#134;&#229;&#155;&#179;180/off">
<rect width="86" height="116.75" transform="translate(93 20.25)" fill="#999999" fill-opacity="0.3" />
<g id="fill-icon/fill-icon_image">
<path id="currentColor" d="M152 62.25H120C118.939 62.2511 117.923 62.6728 117.173 63.4227C116.423 64.1727 116.001 65.1895 116 66.25V90.25C116.001 91.3105 116.423 92.3273 117.173 93.0773C117.923 93.8272 118.939 94.2489 120 94.25H152C153.061 94.2489 154.077 93.8272 154.827 93.0773C155.577 92.3273 155.999 91.3105 156 90.25V66.25C155.999 65.1895 155.577 64.1727 154.827 63.4227C154.077 62.6728 153.061 62.2511 152 62.25ZM125 68.25C125.593 68.25 126.173 68.4259 126.667 68.7556C127.16 69.0852 127.545 69.5538 127.772 70.102C127.999 70.6501 128.058 71.2533 127.942 71.8353C127.827 72.4172 127.541 72.9518 127.121 73.3713C126.702 73.7909 126.167 74.0766 125.585 74.1924C125.003 74.3081 124.4 74.2487 123.852 74.0216C123.304 73.7946 122.835 73.4101 122.506 72.9167C122.176 72.4234 122 71.8433 122 71.25C122 70.856 122.078 70.4659 122.228 70.1019C122.379 69.7379 122.6 69.4072 122.879 69.1286C123.157 68.85 123.488 68.6291 123.852 68.4783C124.216 68.3276 124.606 68.25 125 68.25ZM136 88.25H122L130 78.25L133 82.25L139 74.25L150 88.25H136Z" fill="#999999" fill-opacity="0.5" />
</g>
</g>
</g>
</g>
</g>
</svg>