<svg xmlns="http://www.w3.org/2000/svg" width="182" height="140" viewBox="0 0 182 140" fill="none">
<g id="blackboard_layout">
<rect x="1" y="1" width="180" height="138" rx="4" fill="#444444" />
<rect x="1" y="1" width="180" height="138" rx="4" stroke="white" />
<g id="Frame 1795">
<g id="Frame 1788">
<g id="&#232;&#177;&#134;&#229;&#155;&#179;180/off">
<rect width="86" height="74.88" transform="translate(93 42.4318)" fill="#999999" fill-opacity="0.3" />
<g id="fill-icon/fill-icon_image">
<path id="currentColor" d="M152 63.4318H120C118.939 63.4328 117.923 63.8546 117.173 64.6045C116.423 65.3544 116.001 66.3712 116 67.4318V91.4318C116.001 92.4923 116.423 93.5091 117.173 94.259C117.923 95.009 118.939 95.4307 120 95.4318H152C153.061 95.4307 154.077 95.009 154.827 94.259C155.577 93.5091 155.999 92.4923 156 91.4318V67.4318C155.999 66.3712 155.577 65.3544 154.827 64.6045C154.077 63.8546 153.061 63.4328 152 63.4318ZM125 69.4318C125.593 69.4318 126.173 69.6077 126.667 69.9374C127.16 70.267 127.545 70.7356 127.772 71.2837C127.999 71.8319 128.058 72.4351 127.942 73.0171C127.827 73.599 127.541 74.1335 127.121 74.5531C126.702 74.9727 126.167 75.2584 125.585 75.3741C125.003 75.4899 124.4 75.4305 123.852 75.2034C123.304 74.9764 122.835 74.5918 122.506 74.0985C122.176 73.6051 122 73.0251 122 72.4318C122 72.0378 122.078 71.6477 122.228 71.2837C122.379 70.9197 122.6 70.589 122.879 70.3104C123.157 70.0318 123.488 69.8109 123.852 69.6601C124.216 69.5093 124.606 69.4318 125 69.4318ZM136 89.4318H122L130 79.4318L133 83.4318L139 75.4318L150 89.4318H136Z" fill="#999999" fill-opacity="0.5" />
</g>
</g>
</g>
<line id="Line 106" x1="91" y1="118.812" x2="181" y2="118.812" stroke="white" />
</g>
<g id="Frame 1793">
<g id="Frame 1786">
<text id="(&#229;&#183;&#165;&#228;&#186;&#139;&#229;&#144;&#141;)" fill="white" xml:space="preserve" style="white-space: pre" font-family="Noto Sans JP" font-size="7" font-weight="bold" letter-spacing="0px" x="5" y="13.662"><tspan x="5" y="13.662">(&#24037;&#20107;&#21517;)</tspan></text>
</g>
<line id="Line 105" x1="37.5001" y1="1" x2="37.5001" y2="20.72" stroke="white" />
<g id="Frame 1787">
<text id="&#239;&#188;&#136;&#230;&#161;&#136;&#228;&#187;&#182;&#229;&#144;&#141;&#239;&#188;&#137;" fill="white" xml:space="preserve" style="white-space: pre" font-family="Noto Sans JP" font-size="9" font-weight="bold" letter-spacing="0px" x="41" y="14.534"><tspan x="41" y="14.534">&#65288;&#26696;&#20214;&#21517;&#65289;</tspan></text>
</g>
<line id="Line 106_2" x1="1" y1="20.22" x2="181" y2="20.22" stroke="white" />
</g>
<g id="Frame 1790">
<g id="Frame 1786_2">
<text id="&#233;&#160;&#133;&#231;&#155;&#174;&#229;&#144;&#141;2" fill="#8F8F8F" xml:space="preserve" style="white-space: pre" font-family="Noto Sans JP" font-size="7.5" font-weight="bold" letter-spacing="0px" x="95" y="33.35"><tspan x="95" y="33.35">&#38917;&#30446;&#21517;2</tspan></text>
</g>
<line id="Line 105_2" x1="127.5" y1="20.72" x2="127.5" y2="40.44" stroke="white" />
<line id="Line 108" x1="91.5" y1="20.72" x2="91.5" y2="40.44" stroke="white" />
<g id="Frame 1787_2">
<text id="&#233;&#160;&#133;&#231;&#155;&#174;&#229;&#134;&#133;&#229;&#174;&#185;2" fill="#8F8F8F" xml:space="preserve" style="white-space: pre" font-family="Noto Sans JP" font-size="9" font-weight="bold" letter-spacing="0px" x="131" y="34.004"><tspan x="131" y="34.004">&#38917;&#30446;&#20869;&#23481;2</tspan></text>
</g>
<g id="Frame 1786_3">
<text id="&#233;&#160;&#133;&#231;&#155;&#174;&#229;&#144;&#141;1" fill="#8F8F8F" xml:space="preserve" style="white-space: pre" font-family="Noto Sans JP" font-size="7.5" font-weight="bold" letter-spacing="0px" x="5" y="33.35"><tspan x="5" y="33.35">&#38917;&#30446;&#21517;1</tspan></text>
</g>
<line id="Line 105_3" x1="37.5" y1="20.9286" x2="37.5" y2="40.13" stroke="white" />
<g id="Frame 1787_3">
<text id="&#233;&#160;&#133;&#231;&#155;&#174;&#229;&#134;&#133;&#229;&#174;&#185;1" fill="#8F8F8F" xml:space="preserve" style="white-space: pre" font-family="Noto Sans JP" font-size="9" font-weight="bold" letter-spacing="0px" x="41" y="34.004"><tspan x="41" y="34.004">&#38917;&#30446;&#20869;&#23481;1</tspan></text>
</g>
<line id="Line 106_3" x1="1" y1="39.94" x2="181" y2="39.94" stroke="white" />
</g>
<g id="Frame 1797">
<g id="Frame 1786_4">
<text id="&#233;&#160;&#133;&#231;&#155;&#174;&#229;&#144;&#141;3" fill="#8F8F8F" xml:space="preserve" style="white-space: pre" font-family="Noto Sans JP" font-size="7.5" font-weight="bold" letter-spacing="0px" x="5" y="53.07"><tspan x="5" y="53.07">&#38917;&#30446;&#21517;3</tspan></text>
</g>
<line id="Line 105_4" x1="37.5" y1="40.44" x2="37.5" y2="60.16" stroke="white" />
<line id="Line 107" x1="91.5" y1="40.44" x2="91.5" y2="60.16" stroke="white" />
<g id="Frame 1787_4">
<text id="&#233;&#160;&#133;&#231;&#155;&#174;&#229;&#134;&#133;&#229;&#174;&#185;3" fill="#8F8F8F" xml:space="preserve" style="white-space: pre" font-family="Noto Sans JP" font-size="9" font-weight="bold" letter-spacing="0px" x="41" y="53.724"><tspan x="41" y="53.724">&#38917;&#30446;&#20869;&#23481;3</tspan></text>
</g>
<line id="Line 106_4" x1="1" y1="59.66" x2="91" y2="59.66" stroke="white" />
</g>
<g id="Frame 1798">
<g id="Frame 1786_5">
<text id="&#233;&#160;&#133;&#231;&#155;&#174;&#229;&#144;&#141;4" fill="#8F8F8F" xml:space="preserve" style="white-space: pre" font-family="Noto Sans JP" font-size="7.5" font-weight="bold" letter-spacing="0px" x="5" y="72.79"><tspan x="5" y="72.79">&#38917;&#30446;&#21517;4</tspan></text>
</g>
<line id="Line 105_5" x1="37.5" y1="60.16" x2="37.5" y2="79.88" stroke="white" />
<line id="Line 107_2" x1="91.5" y1="60.16" x2="91.5" y2="79.88" stroke="white" />
<g id="Frame 1787_5">
<text id="&#233;&#160;&#133;&#231;&#155;&#174;&#229;&#134;&#133;&#229;&#174;&#185;4" fill="#8F8F8F" xml:space="preserve" style="white-space: pre" font-family="Noto Sans JP" font-size="9" font-weight="bold" letter-spacing="0px" x="41" y="73.444"><tspan x="41" y="73.444">&#38917;&#30446;&#20869;&#23481;4</tspan></text>
</g>
<line id="Line 106_5" x1="1" y1="79.38" x2="91" y2="79.38" stroke="white" />
</g>
<g id="Frame 1799">
<g id="Frame 1786_6">
<text id="&#233;&#160;&#133;&#231;&#155;&#174;&#229;&#144;&#141;5" fill="#8F8F8F" xml:space="preserve" style="white-space: pre" font-family="Noto Sans JP" font-size="7.5" font-weight="bold" letter-spacing="0px" x="5" y="92.51"><tspan x="5" y="92.51">&#38917;&#30446;&#21517;5</tspan></text>
</g>
<line id="Line 105_6" x1="37.5" y1="79.88" x2="37.5" y2="99.6" stroke="white" />
<line id="Line 107_3" x1="91.5" y1="79.88" x2="91.5" y2="99.6" stroke="white" />
<g id="Frame 1787_6">
<text id="&#233;&#160;&#133;&#231;&#155;&#174;&#229;&#134;&#133;&#229;&#174;&#185;5" fill="#8F8F8F" xml:space="preserve" style="white-space: pre" font-family="Noto Sans JP" font-size="9" font-weight="bold" letter-spacing="0px" x="41" y="93.164"><tspan x="41" y="93.164">&#38917;&#30446;&#20869;&#23481;5</tspan></text>
</g>
<line id="Line 106_6" x1="1" y1="99.1" x2="91" y2="99.1" stroke="white" />
</g>
<g id="Frame 1800">
<g id="Frame 1786_7">
<text id="&#233;&#160;&#133;&#231;&#155;&#174;&#229;&#144;&#141;6" fill="#8F8F8F" xml:space="preserve" style="white-space: pre" font-family="Noto Sans JP" font-size="7.5" font-weight="bold" letter-spacing="0px" x="5" y="112.23"><tspan x="5" y="112.23">&#38917;&#30446;&#21517;6</tspan></text>
</g>
<line id="Line 105_7" x1="37.5" y1="99.6" x2="37.5" y2="119.32" stroke="white" />
<line id="Line 107_4" x1="91.5" y1="99.6" x2="91.5" y2="119.32" stroke="white" />
<g id="Frame 1787_7">
<text id="&#233;&#160;&#133;&#231;&#155;&#174;&#229;&#134;&#133;&#229;&#174;&#185;6" fill="#8F8F8F" xml:space="preserve" style="white-space: pre" font-family="Noto Sans JP" font-size="9" font-weight="bold" letter-spacing="0px" x="41" y="112.884"><tspan x="41" y="112.884">&#38917;&#30446;&#20869;&#23481;6</tspan></text>
</g>
<line id="Line 106_7" x1="1" y1="118.82" x2="91" y2="118.82" stroke="white" />
</g>
<g id="Frame 1792">
<g id="Frame 1786_8">
<text id="&#239;&#188;&#136;&#230;&#146;&#174;&#229;&#189;&#177;&#230;&#151;&#165;&#239;&#188;&#137;" fill="white" xml:space="preserve" style="white-space: pre" font-family="Noto Sans JP" font-size="9" font-weight="bold" letter-spacing="0px" x="5" y="132.604"><tspan x="5" y="132.604">&#65288;&#25774;&#24433;&#26085;&#65289;</tspan></text>
</g>
<line id="Line 105_8" x1="73.5" y1="119.32" x2="73.5" y2="139.04" stroke="white" />
<g id="Frame 1787_8">
<text id="&#239;&#188;&#136;&#232;&#168;&#173;&#229;&#174;&#154;&#227;&#129;&#149;&#227;&#130;&#140;&#227;&#129;&#159;&#230;&#150;&#189;&#229;&#183;&#165;&#232;&#128;&#133;&#229;&#144;&#141;&#239;&#188;&#137;" fill="white" xml:space="preserve" style="white-space: pre" font-family="Noto Sans JP" font-size="9" font-weight="bold" letter-spacing="0px" x="77" y="132.604"><tspan x="77" y="132.604">&#65288;&#35373;&#23450;&#12373;&#12428;&#12383;&#26045;&#24037;&#32773;&#21517;&#65289;</tspan></text>
</g>
</g>
</g>
</svg>