<svg xmlns="http://www.w3.org/2000/svg" width="182" height="140" viewBox="0 0 182 140" fill="none">
<g id="blackboard_layout">
<rect x="1" y="1" width="180" height="138" rx="4" fill="#444444" />
<rect x="1" y="1" width="180" height="138" rx="4" stroke="white" />
<g id="Frame 1793">
<g id="Frame 1786">
<text id="(&#229;&#183;&#165;&#228;&#186;&#139;&#229;&#144;&#141;)" fill="white" xml:space="preserve" style="white-space: pre" font-family="Noto Sans JP" font-size="7" font-weight="bold" letter-spacing="0px" x="5" y="13.662"><tspan x="5" y="13.662">(&#24037;&#20107;&#21517;)</tspan></text>
</g>
<line id="Line 105" x1="37.5001" y1="1" x2="37.5001" y2="20.7143" stroke="white" />
<g id="Frame 1787">
<text id="&#239;&#188;&#136;&#230;&#161;&#136;&#228;&#187;&#182;&#229;&#144;&#141;&#239;&#188;&#137;" fill="white" xml:space="preserve" style="white-space: pre" font-family="Noto Sans JP" font-size="9" font-weight="bold" letter-spacing="0px" x="41" y="14.534"><tspan x="41" y="14.534">&#65288;&#26696;&#20214;&#21517;&#65289;</tspan></text>
</g>
<line id="Line 106" x1="1" y1="20.22" x2="181" y2="20.22" stroke="white" />
</g>
<g id="Frame 1790">
<g id="Frame 1786_2">
<text id="&#233;&#160;&#133;&#231;&#155;&#174;&#229;&#144;&#141;1" fill="#8F8F8F" xml:space="preserve" style="white-space: pre" font-family="Noto Sans JP" font-size="7.5" font-weight="bold" letter-spacing="0px" x="5" y="33.343"><tspan x="5" y="33.343">&#38917;&#30446;&#21517;1</tspan></text>
</g>
<line id="Line 105_2" x1="37.5" y1="20.7143" x2="37.5" y2="40.4318" stroke="white" />
<line id="Line 107" x1="91.5" y1="20.7143" x2="91.5" y2="40.4318" stroke="white" />
<g id="Frame 1787_2">
<text id="&#233;&#160;&#133;&#231;&#155;&#174;&#229;&#134;&#133;&#229;&#174;&#185;1" fill="#8F8F8F" xml:space="preserve" style="white-space: pre" font-family="Noto Sans JP" font-size="9" font-weight="bold" letter-spacing="0px" x="41" y="33.997"><tspan x="41" y="33.997">&#38917;&#30446;&#20869;&#23481;1</tspan></text>
</g>
<line id="Line 106_2" x1="1" y1="39.9343" x2="91" y2="39.9343" stroke="white" />
</g>
<g id="Frame 1796">
<g id="Frame 1786_3">
<text id="&#233;&#160;&#133;&#231;&#155;&#174;&#229;&#144;&#141;2" fill="#8F8F8F" xml:space="preserve" style="white-space: pre" font-family="Noto Sans JP" font-size="7.5" font-weight="bold" letter-spacing="0px" x="5" y="53.0605"><tspan x="5" y="53.0605">&#38917;&#30446;&#21517;2</tspan></text>
</g>
<line id="Line 105_3" x1="37.5" y1="40.4318" x2="37.5" y2="60.1493" stroke="white" />
<line id="Line 107_2" x1="91.5" y1="40.4318" x2="91.5" y2="60.1493" stroke="white" />
<g id="Frame 1787_3">
<text id="&#233;&#160;&#133;&#231;&#155;&#174;&#229;&#134;&#133;&#229;&#174;&#185;2" fill="#8F8F8F" xml:space="preserve" style="white-space: pre" font-family="Noto Sans JP" font-size="9" font-weight="bold" letter-spacing="0px" x="41" y="53.7145"><tspan x="41" y="53.7145">&#38917;&#30446;&#20869;&#23481;2</tspan></text>
</g>
<line id="Line 106_3" x1="1" y1="59.6518" x2="91" y2="59.6518" stroke="white" />
</g>
<g id="Frame 1797">
<g id="Frame 1786_4">
<text id="&#233;&#160;&#133;&#231;&#155;&#174;&#229;&#144;&#141;3" fill="#8F8F8F" xml:space="preserve" style="white-space: pre" font-family="Noto Sans JP" font-size="7.5" font-weight="bold" letter-spacing="0px" x="5" y="72.778"><tspan x="5" y="72.778">&#38917;&#30446;&#21517;3</tspan></text>
</g>
<line id="Line 105_4" x1="37.5" y1="60.1493" x2="37.5" y2="79.8668" stroke="white" />
<line id="Line 107_3" x1="91.5" y1="60.1493" x2="91.5" y2="79.8668" stroke="white" />
<g id="Frame 1787_4">
<text id="&#233;&#160;&#133;&#231;&#155;&#174;&#229;&#134;&#133;&#229;&#174;&#185;3" fill="#8F8F8F" xml:space="preserve" style="white-space: pre" font-family="Noto Sans JP" font-size="9" font-weight="bold" letter-spacing="0px" x="41" y="73.432"><tspan x="41" y="73.432">&#38917;&#30446;&#20869;&#23481;3</tspan></text>
</g>
<line id="Line 106_4" x1="1" y1="79.3693" x2="91" y2="79.3693" stroke="white" />
</g>
<g id="Frame 1798">
<g id="Frame 1786_5">
<text id="&#233;&#160;&#133;&#231;&#155;&#174;&#229;&#144;&#141;4" fill="#8F8F8F" xml:space="preserve" style="white-space: pre" font-family="Noto Sans JP" font-size="7.5" font-weight="bold" letter-spacing="0px" x="5" y="92.4955"><tspan x="5" y="92.4955">&#38917;&#30446;&#21517;4</tspan></text>
</g>
<line id="Line 105_5" x1="37.5" y1="79.8668" x2="37.5" y2="99.5843" stroke="white" />
<line id="Line 107_4" x1="91.5" y1="79.8668" x2="91.5" y2="99.5843" stroke="white" />
<g id="Frame 1787_5">
<text id="&#233;&#160;&#133;&#231;&#155;&#174;&#229;&#134;&#133;&#229;&#174;&#185;4" fill="#8F8F8F" xml:space="preserve" style="white-space: pre" font-family="Noto Sans JP" font-size="9" font-weight="bold" letter-spacing="0px" x="41" y="93.1495"><tspan x="41" y="93.1495">&#38917;&#30446;&#20869;&#23481;4</tspan></text>
</g>
<line id="Line 106_5" x1="1" y1="99.0868" x2="91" y2="99.0868" stroke="white" />
</g>
<g id="Frame 1799">
<g id="Frame 1786_6">
<text id="&#233;&#160;&#133;&#231;&#155;&#174;&#229;&#144;&#141;5" fill="#8F8F8F" xml:space="preserve" style="white-space: pre" font-family="Noto Sans JP" font-size="7.5" font-weight="bold" letter-spacing="0px" x="5" y="112.213"><tspan x="5" y="112.213">&#38917;&#30446;&#21517;5</tspan></text>
</g>
<line id="Line 105_6" x1="37.5" y1="99.5843" x2="37.5" y2="119.302" stroke="white" />
<line id="Line 107_5" x1="91.5" y1="99.5843" x2="91.5" y2="119.302" stroke="white" />
<g id="Frame 1787_6">
<text id="&#233;&#160;&#133;&#231;&#155;&#174;&#229;&#134;&#133;&#229;&#174;&#185;5" fill="#8F8F8F" xml:space="preserve" style="white-space: pre" font-family="Noto Sans JP" font-size="9" font-weight="bold" letter-spacing="0px" x="41" y="112.867"><tspan x="41" y="112.867">&#38917;&#30446;&#20869;&#23481;5</tspan></text>
</g>
<line id="Line 106_6" x1="1" y1="118.804" x2="91" y2="118.804" stroke="white" />
</g>
<g id="Frame 1800">
<g id="Frame 1786_7">
<text id="&#233;&#160;&#133;&#231;&#155;&#174;&#229;&#144;&#141;6" fill="#8F8F8F" xml:space="preserve" style="white-space: pre" font-family="Noto Sans JP" font-size="7.5" font-weight="bold" letter-spacing="0px" x="5" y="131.929"><tspan x="5" y="131.929">&#38917;&#30446;&#21517;6</tspan></text>
</g>
<line id="Line 105_7" x1="37.5" y1="119.3" x2="37.5" y2="139.018" stroke="white" />
<line id="Line 107_6" x1="91.5" y1="119.3" x2="91.5" y2="139.018" stroke="white" />
<g id="Frame 1787_7">
<text id="&#233;&#160;&#133;&#231;&#155;&#174;&#229;&#134;&#133;&#229;&#174;&#185;6" fill="#8F8F8F" xml:space="preserve" style="white-space: pre" font-family="Noto Sans JP" font-size="9" font-weight="bold" letter-spacing="0px" x="41" y="132.583"><tspan x="41" y="132.583">&#38917;&#30446;&#20869;&#23481;6</tspan></text>
</g>
</g>
<g id="Frame 1795">
<g id="Frame 1788">
<g id="&#232;&#177;&#134;&#229;&#155;&#179;180/off">
<rect width="86" height="114.31" transform="translate(93 22.7143)" fill="#999999" fill-opacity="0.3" />
<g id="fill-icon/fill-icon_image">
<path id="currentColor" d="M152 63.7143H120C118.939 63.7153 117.923 64.1371 117.173 64.887C116.423 65.6369 116.001 66.6537 116 67.7143V91.7143C116.001 92.7748 116.423 93.7916 117.173 94.5415C117.923 95.2915 118.939 95.7132 120 95.7143H152C153.061 95.7132 154.077 95.2915 154.827 94.5415C155.577 93.7916 155.999 92.7748 156 91.7143V67.7143C155.999 66.6537 155.577 65.6369 154.827 64.887C154.077 64.1371 153.061 63.7153 152 63.7143ZM125 69.7143C125.593 69.7143 126.173 69.8902 126.667 70.2199C127.16 70.5495 127.545 71.0181 127.772 71.5662C127.999 72.1144 128.058 72.7176 127.942 73.2996C127.827 73.8815 127.541 74.416 127.121 74.8356C126.702 75.2552 126.167 75.5409 125.585 75.6566C125.003 75.7724 124.4 75.713 123.852 75.4859C123.304 75.2589 122.835 74.8743 122.506 74.381C122.176 73.8877 122 73.3076 122 72.7143C122 72.3203 122.078 71.9302 122.228 71.5662C122.379 71.2022 122.6 70.8715 122.879 70.5929C123.157 70.3143 123.488 70.0934 123.852 69.9426C124.216 69.7918 124.606 69.7143 125 69.7143ZM136 89.7143H122L130 79.7143L133 83.7143L139 75.7143L150 89.7143H136Z" fill="#999999" fill-opacity="0.5" />
</g>
</g>
</g>
</g>
</g>
</svg>