<svg xmlns="http://www.w3.org/2000/svg" width="182" height="140" viewBox="0 0 182 140" fill="none">
<g id="blackboard_layout">
<rect x="1" y="1" width="180" height="138" rx="4" fill="#444444" />
<rect x="1" y="1" width="180" height="138" rx="4" stroke="white" />
<g id="Frame 1795">
<g id="Frame 1788">
<g id="&#232;&#177;&#134;&#229;&#155;&#179;180/off">
<rect width="86" height="77" transform="translate(93 45.0001)" fill="#999999" fill-opacity="0.3" />
<g id="fill-icon/fill-icon_image">
<path id="currentColor" d="M152 68.0001H120C118.939 68.0012 117.923 68.4229 117.173 69.1728C116.423 69.9228 116.001 70.9396 116 72.0001V96.0001C116.001 97.0606 116.423 98.0774 117.173 98.8274C117.923 99.5773 118.939 99.999 120 100H152C153.061 99.999 154.077 99.5773 154.827 98.8274C155.577 98.0774 155.999 97.0606 156 96.0001V72.0001C155.999 70.9396 155.577 69.9228 154.827 69.1728C154.077 68.4229 153.061 68.0012 152 68.0001ZM125 74.0001C125.593 74.0001 126.173 74.176 126.667 74.5057C127.16 74.8353 127.545 75.3039 127.772 75.852C127.999 76.4002 128.058 77.0034 127.942 77.5854C127.827 78.1673 127.541 78.7019 127.121 79.1214C126.702 79.541 126.167 79.8267 125.585 79.9424C125.003 80.0582 124.4 79.9988 123.852 79.7717C123.304 79.5447 122.835 79.1601 122.506 78.6668C122.176 78.1735 122 77.5934 122 77.0001C122 76.6061 122.078 76.216 122.228 75.852C122.379 75.488 122.6 75.1573 122.879 74.8787C123.157 74.6001 123.488 74.3792 123.852 74.2284C124.216 74.0776 124.606 74.0001 125 74.0001ZM136 94.0001H122L130 84.0001L133 88.0001L139 80.0001L150 94.0001H136Z" fill="#999999" fill-opacity="0.5" />
</g>
</g>
</g>
</g>
<g id="Frame 1900">
<g id="Frame 1793">
<g id="Frame 1786">
<text id="(&#229;&#183;&#165;&#228;&#186;&#139;&#229;&#144;&#141;)" fill="white" xml:space="preserve" style="white-space: pre" font-family="Noto Sans JP" font-size="6.5" font-weight="bold" letter-spacing="0px" x="5" y="10.484"><tspan x="5" y="10.484">(&#24037;&#20107;&#21517;)</tspan></text>
</g>
<line id="Line 105" x1="37.5001" y1="1" x2="37.5001" y2="14.8" stroke="white" />
<g id="Frame 1787">
<text id="&#239;&#188;&#136;&#230;&#161;&#136;&#228;&#187;&#182;&#229;&#144;&#141;&#239;&#188;&#137;" fill="white" xml:space="preserve" style="white-space: pre" font-family="Noto Sans JP" font-size="8.5" font-weight="bold" letter-spacing="0px" x="41" y="11.356"><tspan x="41" y="11.356">&#65288;&#26696;&#20214;&#21517;&#65289;</tspan></text>
</g>
<line id="Line 106" x1="1" y1="14.3" x2="181" y2="14.3" stroke="white" />
</g>
<g id="Frame 1790">
<g id="Frame 1786_2">
<text id="&#233;&#160;&#133;&#231;&#155;&#174;&#229;&#144;&#141;2" fill="#8F8F8F" xml:space="preserve" style="white-space: pre" font-family="Noto Sans JP" font-size="6.5" font-weight="bold" letter-spacing="0px" x="95" y="24.034"><tspan x="95" y="24.034">&#38917;&#30446;&#21517;2</tspan></text>
</g>
<line id="Line 105_2" x1="127.5" y1="14.8" x2="127.5" y2="28.6" stroke="white" />
<line id="Line 108" x1="91.5" y1="14.8" x2="91.5" y2="28.6" stroke="white" />
<g id="Frame 1787_2">
<text id="&#233;&#160;&#133;&#231;&#155;&#174;&#229;&#134;&#133;&#229;&#174;&#185;2" fill="#8F8F8F" xml:space="preserve" style="white-space: pre" font-family="Noto Sans JP" font-size="8.5" font-weight="bold" letter-spacing="0px" x="131" y="24.906"><tspan x="131" y="24.906">&#38917;&#30446;&#20869;&#23481;2</tspan></text>
</g>
<g id="Frame 1786_3">
<text id="&#233;&#160;&#133;&#231;&#155;&#174;&#229;&#144;&#141;1" fill="#8F8F8F" xml:space="preserve" style="white-space: pre" font-family="Noto Sans JP" font-size="6.5" font-weight="bold" letter-spacing="0px" x="5" y="24.034"><tspan x="5" y="24.034">&#38917;&#30446;&#21517;1</tspan></text>
</g>
<line id="Line 105_3" x1="37.5" y1="14.8" x2="37.5" y2="28.2371" stroke="white" />
<g id="Frame 1787_3">
<text id="&#233;&#160;&#133;&#231;&#155;&#174;&#229;&#134;&#133;&#229;&#174;&#185;1" fill="#8F8F8F" xml:space="preserve" style="white-space: pre" font-family="Noto Sans JP" font-size="8.5" font-weight="bold" letter-spacing="0px" x="41" y="24.906"><tspan x="41" y="24.906">&#38917;&#30446;&#20869;&#23481;1</tspan></text>
</g>
<line id="Line 106_2" x1="1" y1="28.1" x2="181" y2="28.1" stroke="white" />
</g>
<g id="Frame 1804">
<g id="Frame 1786_4">
<text id="&#233;&#160;&#133;&#231;&#155;&#174;&#229;&#144;&#141;4" fill="#8F8F8F" xml:space="preserve" style="white-space: pre" font-family="Noto Sans JP" font-size="6.5" font-weight="bold" letter-spacing="0px" x="95" y="37.834"><tspan x="95" y="37.834">&#38917;&#30446;&#21517;4</tspan></text>
</g>
<line id="Line 105_4" x1="127.5" y1="28.6" x2="127.5" y2="42.4" stroke="white" />
<line id="Line 108_2" x1="91.5" y1="28.6" x2="91.5" y2="42.4" stroke="white" />
<g id="Frame 1787_4">
<text id="&#233;&#160;&#133;&#231;&#155;&#174;&#229;&#134;&#133;&#229;&#174;&#185;4" fill="#8F8F8F" xml:space="preserve" style="white-space: pre" font-family="Noto Sans JP" font-size="8.5" font-weight="bold" letter-spacing="0px" x="131" y="38.706"><tspan x="131" y="38.706">&#38917;&#30446;&#20869;&#23481;4</tspan></text>
</g>
<g id="Frame 1786_5">
<text id="&#233;&#160;&#133;&#231;&#155;&#174;&#229;&#144;&#141;3" fill="#8F8F8F" xml:space="preserve" style="white-space: pre" font-family="Noto Sans JP" font-size="6.5" font-weight="bold" letter-spacing="0px" x="5" y="37.834"><tspan x="5" y="37.834">&#38917;&#30446;&#21517;3</tspan></text>
</g>
<line id="Line 105_5" x1="37.5" y1="28.6" x2="37.5" y2="42.0371" stroke="white" />
<g id="Frame 1787_5">
<text id="&#233;&#160;&#133;&#231;&#155;&#174;&#229;&#134;&#133;&#229;&#174;&#185;3" fill="#8F8F8F" xml:space="preserve" style="white-space: pre" font-family="Noto Sans JP" font-size="8.5" font-weight="bold" letter-spacing="0px" x="41" y="38.706"><tspan x="41" y="38.706">&#38917;&#30446;&#20869;&#23481;3</tspan></text>
</g>
<line id="Line 106_3" x1="1" y1="41.9" x2="181" y2="41.9" stroke="white" />
</g>
<g id="Frame 1799">
<g id="Frame 1786_6">
<text id="&#233;&#160;&#133;&#231;&#155;&#174;&#229;&#144;&#141;5" fill="#8F8F8F" xml:space="preserve" style="white-space: pre" font-family="Noto Sans JP" font-size="6.5" font-weight="bold" letter-spacing="0px" x="5" y="51.634"><tspan x="5" y="51.634">&#38917;&#30446;&#21517;5</tspan></text>
</g>
<line id="Line 105_6" x1="37.5" y1="42.4" x2="37.5" y2="56.2" stroke="white" />
<line id="Line 107" x1="91.5" y1="42.4" x2="91.5" y2="56.2" stroke="white" />
<g id="Frame 1787_6">
<text id="&#233;&#160;&#133;&#231;&#155;&#174;&#229;&#134;&#133;&#229;&#174;&#185;5" fill="#8F8F8F" xml:space="preserve" style="white-space: pre" font-family="Noto Sans JP" font-size="8.5" font-weight="bold" letter-spacing="0px" x="41" y="52.506"><tspan x="41" y="52.506">&#38917;&#30446;&#20869;&#23481;5</tspan></text>
</g>
<line id="Line 106_4" x1="1" y1="55.7" x2="91" y2="55.7" stroke="white" />
</g>
<g id="Frame 1800">
<g id="Frame 1786_7">
<text id="&#233;&#160;&#133;&#231;&#155;&#174;&#229;&#144;&#141;6" fill="#8F8F8F" xml:space="preserve" style="white-space: pre" font-family="Noto Sans JP" font-size="6.5" font-weight="bold" letter-spacing="0px" x="5" y="65.434"><tspan x="5" y="65.434">&#38917;&#30446;&#21517;6</tspan></text>
</g>
<line id="Line 105_7" x1="37.5" y1="56.2" x2="37.5" y2="70" stroke="white" />
<line id="Line 107_2" x1="91.5" y1="56.2" x2="91.5" y2="70" stroke="white" />
<g id="Frame 1787_7">
<text id="&#233;&#160;&#133;&#231;&#155;&#174;&#229;&#134;&#133;&#229;&#174;&#185;6" fill="#8F8F8F" xml:space="preserve" style="white-space: pre" font-family="Noto Sans JP" font-size="8.5" font-weight="bold" letter-spacing="0px" x="41" y="66.306"><tspan x="41" y="66.306">&#38917;&#30446;&#20869;&#23481;6</tspan></text>
</g>
<line id="Line 106_5" x1="1" y1="69.5" x2="91" y2="69.5" stroke="white" />
</g>
<g id="Frame 1801">
<g id="Frame 1786_8">
<text id="&#233;&#160;&#133;&#231;&#155;&#174;&#229;&#144;&#141;7" fill="#8F8F8F" xml:space="preserve" style="white-space: pre" font-family="Noto Sans JP" font-size="6.5" font-weight="bold" letter-spacing="0px" x="5" y="79.234"><tspan x="5" y="79.234">&#38917;&#30446;&#21517;7</tspan></text>
</g>
<line id="Line 105_8" x1="37.5" y1="70" x2="37.5" y2="83.8" stroke="white" />
<line id="Line 107_3" x1="91.5" y1="70" x2="91.5" y2="83.8" stroke="white" />
<g id="Frame 1787_8">
<text id="&#233;&#160;&#133;&#231;&#155;&#174;&#229;&#134;&#133;&#229;&#174;&#185;7" fill="#8F8F8F" xml:space="preserve" style="white-space: pre" font-family="Noto Sans JP" font-size="8.5" font-weight="bold" letter-spacing="0px" x="41" y="80.106"><tspan x="41" y="80.106">&#38917;&#30446;&#20869;&#23481;7</tspan></text>
</g>
<line id="Line 106_6" x1="1" y1="83.3" x2="91" y2="83.3" stroke="white" />
</g>
<g id="Frame 1802">
<g id="Frame 1786_9">
<text id="&#233;&#160;&#133;&#231;&#155;&#174;&#229;&#144;&#141;8" fill="#8F8F8F" xml:space="preserve" style="white-space: pre" font-family="Noto Sans JP" font-size="6.5" font-weight="bold" letter-spacing="0px" x="5" y="93.034"><tspan x="5" y="93.034">&#38917;&#30446;&#21517;8</tspan></text>
</g>
<line id="Line 105_9" x1="37.5" y1="83.8" x2="37.5" y2="97.6" stroke="white" />
<line id="Line 107_4" x1="91.5" y1="83.8" x2="91.5" y2="97.6" stroke="white" />
<g id="Frame 1787_9">
<text id="&#233;&#160;&#133;&#231;&#155;&#174;&#229;&#134;&#133;&#229;&#174;&#185;8" fill="#8F8F8F" xml:space="preserve" style="white-space: pre" font-family="Noto Sans JP" font-size="8.5" font-weight="bold" letter-spacing="0px" x="41" y="93.906"><tspan x="41" y="93.906">&#38917;&#30446;&#20869;&#23481;8</tspan></text>
</g>
<line id="Line 106_7" x1="1" y1="97.1" x2="91" y2="97.1" stroke="white" />
</g>
<g id="Frame 1797">
<g id="Frame 1786_10">
<text id="&#233;&#160;&#133;&#231;&#155;&#174;&#229;&#144;&#141;9" fill="#8F8F8F" xml:space="preserve" style="white-space: pre" font-family="Noto Sans JP" font-size="6.5" font-weight="bold" letter-spacing="0px" x="5" y="106.834"><tspan x="5" y="106.834">&#38917;&#30446;&#21517;9</tspan></text>
</g>
<line id="Line 105_10" x1="37.5" y1="97.6" x2="37.5" y2="111.4" stroke="white" />
<line id="Line 107_5" x1="91.5" y1="97.6" x2="91.5" y2="111.4" stroke="white" />
<g id="Frame 1787_10">
<text id="&#233;&#160;&#133;&#231;&#155;&#174;&#229;&#134;&#133;&#229;&#174;&#185;9" fill="#8F8F8F" xml:space="preserve" style="white-space: pre" font-family="Noto Sans JP" font-size="8.5" font-weight="bold" letter-spacing="0px" x="41" y="107.706"><tspan x="41" y="107.706">&#38917;&#30446;&#20869;&#23481;9</tspan></text>
</g>
<line id="Line 106_8" x1="1" y1="110.9" x2="91" y2="110.9" stroke="white" />
</g>
<g id="Frame 1798">
<g id="Frame 1786_11">
<text id="&#233;&#160;&#133;&#231;&#155;&#174;&#229;&#144;&#141;10" fill="#8F8F8F" xml:space="preserve" style="white-space: pre" font-family="Noto Sans JP" font-size="6.5" font-weight="bold" letter-spacing="0px" x="5" y="120.634"><tspan x="5" y="120.634">&#38917;&#30446;&#21517;10</tspan></text>
</g>
<line id="Line 105_11" x1="37.5" y1="111.4" x2="37.5" y2="125.2" stroke="white" />
<line id="Line 107_6" x1="91.5" y1="111.4" x2="91.5" y2="125.2" stroke="white" />
<g id="Frame 1787_11">
<text id="&#233;&#160;&#133;&#231;&#155;&#174;&#229;&#134;&#133;&#229;&#174;&#185;10" fill="#8F8F8F" xml:space="preserve" style="white-space: pre" font-family="Noto Sans JP" font-size="8.5" font-weight="bold" letter-spacing="0px" x="41" y="121.506"><tspan x="41" y="121.506">&#38917;&#30446;&#20869;&#23481;10</tspan></text>
</g>
</g>
</g>
<g id="Frame 1792">
<g id="Frame 1787_12">
<text id="&#239;&#188;&#136;&#232;&#168;&#173;&#229;&#174;&#154;&#227;&#129;&#149;&#227;&#130;&#140;&#227;&#129;&#159;&#230;&#150;&#189;&#229;&#183;&#165;&#232;&#128;&#133;&#229;&#144;&#141;&#239;&#188;&#137;" fill="white" xml:space="preserve" style="white-space: pre" font-family="Noto Sans JP" font-size="8.5" font-weight="bold" letter-spacing="0px" x="83.5" y="135.306"><tspan x="83.5" y="135.306">&#65288;&#35373;&#23450;&#12373;&#12428;&#12383;&#26045;&#24037;&#32773;&#21517;&#65289;</tspan></text>
</g>
<line id="Line 106_9" x1="1" y1="124.7" x2="181" y2="124.7" stroke="white" />
</g>
</g>
</svg>