<svg xmlns="http://www.w3.org/2000/svg" width="182" height="140" viewBox="0 0 182 140" fill="none">
<g id="blackboard_layout">
<rect x="1" y="1" width="180" height="138" rx="4" fill="#444444" />
<rect x="1" y="1" width="180" height="138" rx="4" stroke="white" />
<g id="Frame 1793">
<g id="Frame 1786">
<text id="(&#229;&#183;&#165;&#228;&#186;&#139;&#229;&#144;&#141;)" fill="white" xml:space="preserve" style="white-space: pre" font-family="Noto Sans JP" font-size="7" font-weight="bold" letter-spacing="0px" x="5" y="17.602"><tspan x="5" y="17.602">(&#24037;&#20107;&#21517;)</tspan></text>
</g>
<line id="Line 105" x1="37.5001" y1="1" x2="37.5001" y2="28.6" stroke="white" />
<g id="Frame 1787">
<text id="&#239;&#188;&#136;&#230;&#161;&#136;&#228;&#187;&#182;&#229;&#144;&#141;&#239;&#188;&#137;" fill="white" xml:space="preserve" style="white-space: pre" font-family="Noto Sans JP" font-size="9" font-weight="bold" letter-spacing="0px" x="41" y="18.474"><tspan x="41" y="18.474">&#65288;&#26696;&#20214;&#21517;&#65289;</tspan></text>
</g>
<line id="Line 106" x1="1" y1="28.1" x2="181" y2="28.1" stroke="white" />
</g>
<g id="Frame 1790">
<g id="Frame 1786_2">
<text id="&#233;&#160;&#133;&#231;&#155;&#174;&#229;&#144;&#141;2" fill="#8F8F8F" xml:space="preserve" style="white-space: pre" font-family="Noto Sans JP" font-size="7.5" font-weight="bold" letter-spacing="0px" x="95" y="45.1685"><tspan x="95" y="45.1685">&#38917;&#30446;&#21517;2</tspan></text>
</g>
<line id="Line 105_2" x1="127.5" y1="28.3031" x2="127.5" y2="55.9001" stroke="white" />
<line id="Line 107" x1="91.5" y1="28.3031" x2="91.5" y2="55.9001" stroke="white" />
<g id="Frame 1787_2">
<text id="&#233;&#160;&#133;&#231;&#155;&#174;&#229;&#134;&#133;&#229;&#174;&#185;2" fill="#8F8F8F" xml:space="preserve" style="white-space: pre" font-family="Noto Sans JP" font-size="9" font-weight="bold" letter-spacing="0px" x="131" y="45.8225"><tspan x="131" y="45.8225">&#38917;&#30446;&#20869;&#23481;2</tspan></text>
</g>
<g id="Frame 1786_3">
<text id="&#233;&#160;&#133;&#231;&#155;&#174;&#229;&#144;&#141;1" fill="#8F8F8F" xml:space="preserve" style="white-space: pre" font-family="Noto Sans JP" font-size="7.5" font-weight="bold" letter-spacing="0px" x="5" y="45.17"><tspan x="5" y="45.17">&#38917;&#30446;&#21517;1</tspan></text>
</g>
<line id="Line 105_3" x1="37.5" y1="28.6" x2="37.5" y2="56.2" stroke="white" />
<g id="Frame 1787_3">
<text id="&#233;&#160;&#133;&#231;&#155;&#174;&#229;&#134;&#133;&#229;&#174;&#185;1" fill="#8F8F8F" xml:space="preserve" style="white-space: pre" font-family="Noto Sans JP" font-size="9" font-weight="bold" letter-spacing="0px" x="41" y="45.824"><tspan x="41" y="45.824">&#38917;&#30446;&#20869;&#23481;1</tspan></text>
</g>
<line id="Line 106_2" x1="1" y1="55.7" x2="181" y2="55.7" stroke="white" />
</g>
<g id="Frame 1796">
<g id="Frame 1786_4">
<text id="&#233;&#160;&#133;&#231;&#155;&#174;&#229;&#144;&#141;3" fill="#8F8F8F" xml:space="preserve" style="white-space: pre" font-family="Noto Sans JP" font-size="7.5" font-weight="bold" letter-spacing="0px" x="5" y="72.77"><tspan x="5" y="72.77">&#38917;&#30446;&#21517;3</tspan></text>
</g>
<line id="Line 105_4" x1="37.5" y1="56.2" x2="37.5" y2="83.8" stroke="white" />
<line id="Line 107_2" x1="91.5" y1="56.2" x2="91.5" y2="83.8" stroke="white" />
<g id="Frame 1787_4">
<text id="&#233;&#160;&#133;&#231;&#155;&#174;&#229;&#134;&#133;&#229;&#174;&#185;3" fill="#8F8F8F" xml:space="preserve" style="white-space: pre" font-family="Noto Sans JP" font-size="9" font-weight="bold" letter-spacing="0px" x="41" y="73.424"><tspan x="41" y="73.424">&#38917;&#30446;&#20869;&#23481;3</tspan></text>
</g>
<line id="Line 106_3" x1="1" y1="83.3" x2="91" y2="83.3" stroke="white" />
</g>
<g id="Frame 1797">
<g id="Frame 1786_5">
<text id="&#233;&#160;&#133;&#231;&#155;&#174;&#229;&#144;&#141;4" fill="#8F8F8F" xml:space="preserve" style="white-space: pre" font-family="Noto Sans JP" font-size="7.5" font-weight="bold" letter-spacing="0px" x="5" y="100.37"><tspan x="5" y="100.37">&#38917;&#30446;&#21517;4</tspan></text>
</g>
<line id="Line 105_5" x1="37.5" y1="83.8" x2="37.5" y2="111.4" stroke="white" />
<line id="Line 107_3" x1="91.5" y1="83.8" x2="91.5" y2="111.4" stroke="white" />
<g id="Frame 1787_5">
<text id="&#233;&#160;&#133;&#231;&#155;&#174;&#229;&#134;&#133;&#229;&#174;&#185;4" fill="#8F8F8F" xml:space="preserve" style="white-space: pre" font-family="Noto Sans JP" font-size="9" font-weight="bold" letter-spacing="0px" x="41" y="101.024"><tspan x="41" y="101.024">&#38917;&#30446;&#20869;&#23481;4</tspan></text>
</g>
<line id="Line 106_4" x1="1" y1="110.9" x2="91" y2="110.9" stroke="white" />
</g>
<g id="Frame 1798">
<g id="Frame 1786_6">
<text id="&#233;&#160;&#133;&#231;&#155;&#174;&#229;&#144;&#141;5" fill="#8F8F8F" xml:space="preserve" style="white-space: pre" font-family="Noto Sans JP" font-size="7.5" font-weight="bold" letter-spacing="0px" x="5" y="127.97"><tspan x="5" y="127.97">&#38917;&#30446;&#21517;5</tspan></text>
</g>
<line id="Line 105_6" x1="37.5" y1="111.4" x2="37.5" y2="139" stroke="white" />
<line id="Line 107_4" x1="91.5" y1="111.4" x2="91.5" y2="139" stroke="white" />
<g id="Frame 1787_6">
<text id="&#233;&#160;&#133;&#231;&#155;&#174;&#229;&#134;&#133;&#229;&#174;&#185;5" fill="#8F8F8F" xml:space="preserve" style="white-space: pre" font-family="Noto Sans JP" font-size="9" font-weight="bold" letter-spacing="0px" x="41" y="128.624"><tspan x="41" y="128.624">&#38917;&#30446;&#20869;&#23481;5</tspan></text>
</g>
</g>
<g id="Frame 1795">
<g id="Frame 1788">
<g id="&#232;&#177;&#134;&#229;&#155;&#179;180/off">
<rect width="86" height="78.8" transform="translate(93 58.2)" fill="#999999" fill-opacity="0.3" />
<g id="fill-icon/fill-icon_image">
<path id="currentColor" d="M152 81.2H120C118.939 81.2011 117.923 81.6228 117.173 82.3727C116.423 83.1227 116.001 84.1395 116 85.2V109.2C116.001 110.261 116.423 111.277 117.173 112.027C117.923 112.777 118.939 113.199 120 113.2H152C153.061 113.199 154.077 112.777 154.827 112.027C155.577 111.277 155.999 110.261 156 109.2V85.2C155.999 84.1395 155.577 83.1227 154.827 82.3727C154.077 81.6228 153.061 81.2011 152 81.2ZM125 87.2C125.593 87.2 126.173 87.3759 126.667 87.7056C127.16 88.0352 127.545 88.5038 127.772 89.0519C127.999 89.6001 128.058 90.2033 127.942 90.7853C127.827 91.3672 127.541 91.9018 127.121 92.3213C126.702 92.7409 126.167 93.0266 125.585 93.1424C125.003 93.2581 124.4 93.1987 123.852 92.9716C123.304 92.7446 122.835 92.3601 122.506 91.8667C122.176 91.3734 122 90.7933 122 90.2C122 89.806 122.078 89.4159 122.228 89.0519C122.379 88.6879 122.6 88.3572 122.879 88.0786C123.157 87.8 123.488 87.5791 123.852 87.4283C124.216 87.2776 124.606 87.2 125 87.2ZM136 107.2H122L130 97.2L133 101.2L139 93.2L150 107.2H136Z" fill="#999999" fill-opacity="0.5" />
</g>
</g>
</g>
</g>
</g>
</svg>