<svg xmlns="http://www.w3.org/2000/svg" width="182" height="140" viewBox="0 0 182 140" fill="none">
<g id="blackboard_layout">
<rect x="1" y="1" width="180" height="138" rx="4" fill="#444444" />
<rect x="1" y="1" width="180" height="138" rx="4" stroke="white" />
<g id="Frame 1793">
<g id="Frame 1786">
<text id="(&#229;&#183;&#165;&#228;&#186;&#139;&#229;&#144;&#141;)" fill="white" xml:space="preserve" style="white-space: pre" font-family="Noto Sans JP" font-size="6.5" font-weight="bold" letter-spacing="0px" x="5" y="10.484"><tspan x="5" y="10.484">(&#24037;&#20107;&#21517;)</tspan></text>
</g>
<line id="Line 105" x1="37.5" y1="1" x2="37.5" y2="14.8" stroke="white" />
<g id="Frame 1787">
<text id="&#239;&#188;&#136;&#230;&#161;&#136;&#228;&#187;&#182;&#229;&#144;&#141;&#239;&#188;&#137;" fill="white" xml:space="preserve" style="white-space: pre" font-family="Noto Sans JP" font-size="8.5" font-weight="bold" letter-spacing="0px" x="41" y="11.356"><tspan x="41" y="11.356">&#65288;&#26696;&#20214;&#21517;&#65289;</tspan></text>
</g>
<line id="Line 106" x1="1" y1="14.3" x2="181" y2="14.3" stroke="white" />
</g>
<g id="Frame 1799">
<line id="Line 107" x1="181.5" y1="42.4" x2="181.5" y2="56.2" stroke="white" />
<line id="Line 106_2" x1="1" y1="55.7" x2="181" y2="55.7" stroke="white" />
<g id="Frame 1788">
<g id="&#232;&#177;&#134;&#229;&#155;&#179;180/&#229;&#130;&#153;&#232;&#128;&#131;&#230;&#172;&#132;">
<text id="&#229;&#130;&#153;&#232;&#128;&#131;" fill="#8F8F8F" xml:space="preserve" style="white-space: pre" font-family="Noto Sans JP" font-size="6" font-weight="bold" letter-spacing="0px" x="5" y="51.416"><tspan x="5" y="51.416">&#20633;&#32771;</tspan></text>
</g>
</g>
</g>
<g id="Frame 1806">
<g id="Frame 1786_2">
<text id="&#233;&#160;&#133;&#231;&#155;&#174;&#229;&#144;&#141;3" fill="#8F8F8F" xml:space="preserve" style="white-space: pre" font-family="Noto Sans JP" font-size="6" font-weight="bold" letter-spacing="0px" x="5" y="37.616"><tspan x="5" y="37.616">&#38917;&#30446;&#21517;3</tspan></text>
</g>
<g id="Frame 1788_2">
<text id="&#233;&#160;&#133;&#231;&#155;&#174;&#229;&#144;&#141;4" fill="#8F8F8F" xml:space="preserve" style="white-space: pre" font-family="Noto Sans JP" font-size="6" font-weight="bold" letter-spacing="0px" x="65" y="37.616"><tspan x="65" y="37.616">&#38917;&#30446;&#21517;4</tspan></text>
</g>
<g id="Frame 1790">
<text id="&#233;&#160;&#133;&#231;&#155;&#174;&#229;&#144;&#141;5" fill="#8F8F8F" xml:space="preserve" style="white-space: pre" font-family="Noto Sans JP" font-size="6" font-weight="bold" letter-spacing="0px" x="125" y="37.616"><tspan x="125" y="37.616">&#38917;&#30446;&#21517;5</tspan></text>
</g>
<g id="Frame 1787_2">
<text id="&#233;&#160;&#133;&#231;&#155;&#174;&#229;&#134;&#133;&#229;&#174;&#185;3" fill="#8F8F8F" xml:space="preserve" style="white-space: pre" font-family="Noto Sans JP" font-size="4.5" font-weight="bold" letter-spacing="0px" x="35" y="36.962"><tspan x="35" y="36.962">&#38917;&#30446;&#20869;&#23481;3</tspan></text>
</g>
<g id="Frame 1789">
<text id="&#233;&#160;&#133;&#231;&#155;&#174;&#229;&#134;&#133;&#229;&#174;&#185;4" fill="#8F8F8F" xml:space="preserve" style="white-space: pre" font-family="Noto Sans JP" font-size="4.5" font-weight="bold" letter-spacing="0px" x="95" y="36.962"><tspan x="95" y="36.962">&#38917;&#30446;&#20869;&#23481;4</tspan></text>
</g>
<g id="Frame 1791">
<text id="&#233;&#160;&#133;&#231;&#155;&#174;&#229;&#134;&#133;&#229;&#174;&#185;5" fill="#8F8F8F" xml:space="preserve" style="white-space: pre" font-family="Noto Sans JP" font-size="4.5" font-weight="bold" letter-spacing="0px" x="155" y="36.962"><tspan x="155" y="36.962">&#38917;&#30446;&#20869;&#23481;5</tspan></text>
</g>
<line id="Line 106_3" x1="1" y1="41.9" x2="181" y2="41.9" stroke="white" />
<line id="Line 105_2" x1="31.5" y1="28.6" x2="31.5" y2="42.4" stroke="white" />
<line id="Line 107_2" x1="61.5" y1="28.6" x2="61.5" y2="42.4" stroke="white" />
<line id="Line 108" x1="91.5" y1="28.6" x2="91.5" y2="42.4" stroke="white" />
<line id="Line 109" x1="121.5" y1="28.6" x2="121.5" y2="42.4" stroke="white" />
<line id="Line 110" x1="151.5" y1="28.6" x2="151.5" y2="42.4" stroke="white" />
</g>
<g id="Frame 8476">
<g id="Frame 1805">
<g id="Frame 1786_3">
<text id="&#233;&#160;&#133;&#231;&#155;&#174;&#229;&#144;&#141;1" fill="#8F8F8F" xml:space="preserve" style="white-space: pre" font-family="Noto Sans JP" font-size="6.5" font-weight="bold" letter-spacing="0px" x="5" y="24.034"><tspan x="5" y="24.034">&#38917;&#30446;&#21517;1</tspan></text>
</g>
<line id="Line 105_3" x1="37.5" y1="14.8" x2="37.5" y2="28.6" stroke="white" />
<line id="Line 107_3" x1="91.5" y1="14.8" x2="91.5" y2="28.6" stroke="white" />
<g id="Frame 1787_3">
<text id="&#233;&#160;&#133;&#231;&#155;&#174;&#229;&#134;&#133;&#229;&#174;&#185;1" fill="#8F8F8F" xml:space="preserve" style="white-space: pre" font-family="Noto Sans JP" font-size="8.5" font-weight="bold" letter-spacing="0px" x="41" y="24.906"><tspan x="41" y="24.906">&#38917;&#30446;&#20869;&#23481;1</tspan></text>
</g>
<line id="Line 106_4" x1="1" y1="28.1" x2="91" y2="28.1" stroke="white" />
</g>
<g id="Frame 1807">
<g id="Frame 1786_4">
<text id="&#233;&#160;&#133;&#231;&#155;&#174;&#229;&#144;&#141;2" fill="#8F8F8F" xml:space="preserve" style="white-space: pre" font-family="Noto Sans JP" font-size="6.5" font-weight="bold" letter-spacing="0px" x="95" y="24.034"><tspan x="95" y="24.034">&#38917;&#30446;&#21517;2</tspan></text>
</g>
<line id="Line 105_4" x1="127.5" y1="14.8" x2="127.5" y2="28.6" stroke="white" />
<g id="Frame 1787_4">
<text id="&#233;&#160;&#133;&#231;&#155;&#174;&#229;&#134;&#133;&#229;&#174;&#185;2" fill="#8F8F8F" xml:space="preserve" style="white-space: pre" font-family="Noto Sans JP" font-size="8.5" font-weight="bold" letter-spacing="0px" x="131" y="24.906"><tspan x="131" y="24.906">&#38917;&#30446;&#20869;&#23481;2</tspan></text>
</g>
<line id="Line 106_5" x1="91" y1="28.1" x2="181" y2="28.1" stroke="white" />
</g>
</g>
<g id="&#232;&#177;&#134;&#229;&#155;&#179;">
<g id="&#232;&#177;&#134;&#229;&#155;&#179;180/off">
<rect width="176" height="78.8" transform="translate(3 58.2)" fill="#999999" fill-opacity="0.3" />
<g id="fill-icon/fill-icon_image">
<path id="currentColor" d="M107 81.2H75C73.9395 81.2011 72.9227 81.6228 72.1727 82.3728C71.4228 83.1227 71.0011 84.1395 71 85.2V109.2C71.0011 110.261 71.4228 111.277 72.1727 112.027C72.9227 112.777 73.9395 113.199 75 113.2H107C108.061 113.199 109.077 112.777 109.827 112.027C110.577 111.277 110.999 110.261 111 109.2V85.2C110.999 84.1395 110.577 83.1227 109.827 82.3728C109.077 81.6228 108.061 81.2011 107 81.2ZM80 87.2C80.5933 87.2 81.1734 87.376 81.6667 87.7056C82.1601 88.0352 82.5446 88.5038 82.7716 89.052C82.9987 89.6001 83.0581 90.2033 82.9424 90.7853C82.8266 91.3672 82.5409 91.9018 82.1213 92.3213C81.7018 92.7409 81.1672 93.0266 80.5853 93.1424C80.0033 93.2581 79.4001 93.1987 78.8519 92.9717C78.3038 92.7446 77.8352 92.3601 77.5056 91.8667C77.1759 91.3734 77 90.7934 77 90.2C77 89.806 77.0776 89.4159 77.2283 89.0519C77.3791 88.6879 77.6 88.3572 77.8786 88.0786C78.1572 87.8001 78.4879 87.5791 78.8519 87.4283C79.2159 87.2776 79.606 87.2 80 87.2ZM91 107.2H77L85 97.2L88 101.2L94 93.2L105 107.2H91Z" fill="#999999" fill-opacity="0.5" />
</g>
</g>
</g>
</g>
</svg>