<svg xmlns="http://www.w3.org/2000/svg" width="182" height="140" viewBox="0 0 182 140" fill="none">
<g id="blackboard_layout">
<rect x="1" y="1" width="180" height="138" rx="4" fill="#444444" />
<rect x="1" y="1" width="180" height="138" rx="4" stroke="white" />
<g id="Frame 1793">
<g id="Frame 1786">
<text id="(&#229;&#183;&#165;&#228;&#186;&#139;&#229;&#144;&#141;)" fill="white" xml:space="preserve" style="white-space: pre" font-family="Noto Sans JP" font-size="7" font-weight="bold" letter-spacing="0px" x="5" y="15.302"><tspan x="5" y="15.302">(&#24037;&#20107;&#21517;)</tspan></text>
</g>
<line id="Line 105" x1="37.5001" y1="1" x2="37.5001" y2="24" stroke="white" />
<g id="Frame 1787">
<text id="&#239;&#188;&#136;&#230;&#161;&#136;&#228;&#187;&#182;&#229;&#144;&#141;&#239;&#188;&#137;" fill="white" xml:space="preserve" style="white-space: pre" font-family="Noto Sans JP" font-size="9" font-weight="bold" letter-spacing="0px" x="41" y="16.174"><tspan x="41" y="16.174">&#65288;&#26696;&#20214;&#21517;&#65289;</tspan></text>
</g>
<line id="Line 106" x1="1" y1="23.5" x2="181" y2="23.5" stroke="white" />
</g>
<g id="Frame 1790">
<g id="Frame 1786_2">
<text id="&#233;&#160;&#133;&#231;&#155;&#174;&#229;&#144;&#141;1" fill="#8F8F8F" xml:space="preserve" style="white-space: pre" font-family="Noto Sans JP" font-size="7.5" font-weight="bold" letter-spacing="0px" x="5" y="38.2725"><tspan x="5" y="38.2725">&#38917;&#30446;&#21517;1</tspan></text>
</g>
<line id="Line 105_2" x1="37.5" y1="24.0025" x2="37.5" y2="47.0025" stroke="white" />
<line id="Line 107" x1="91.5" y1="24.0025" x2="91.5" y2="47.0025" stroke="white" />
<g id="Frame 1787_2">
<text id="&#233;&#160;&#133;&#231;&#155;&#174;&#229;&#134;&#133;&#229;&#174;&#185;1" fill="#8F8F8F" xml:space="preserve" style="white-space: pre" font-family="Noto Sans JP" font-size="9" font-weight="bold" letter-spacing="0px" x="41" y="38.9265"><tspan x="41" y="38.9265">&#38917;&#30446;&#20869;&#23481;1</tspan></text>
</g>
<line id="Line 106_2" x1="1" y1="46.5" x2="91" y2="46.5" stroke="white" />
</g>
<g id="Frame 1796">
<g id="Frame 1786_3">
<text id="&#233;&#160;&#133;&#231;&#155;&#174;&#229;&#144;&#141;2" fill="#8F8F8F" xml:space="preserve" style="white-space: pre" font-family="Noto Sans JP" font-size="7.5" font-weight="bold" letter-spacing="0px" x="5" y="61.2725"><tspan x="5" y="61.2725">&#38917;&#30446;&#21517;2</tspan></text>
</g>
<line id="Line 105_3" x1="37.5" y1="47.0025" x2="37.5" y2="70.0025" stroke="white" />
<line id="Line 107_2" x1="91.5" y1="47.0025" x2="91.5" y2="70.0025" stroke="white" />
<g id="Frame 1787_3">
<text id="&#233;&#160;&#133;&#231;&#155;&#174;&#229;&#134;&#133;&#229;&#174;&#185;2" fill="#8F8F8F" xml:space="preserve" style="white-space: pre" font-family="Noto Sans JP" font-size="9" font-weight="bold" letter-spacing="0px" x="41" y="61.9265"><tspan x="41" y="61.9265">&#38917;&#30446;&#20869;&#23481;2</tspan></text>
</g>
<line id="Line 106_3" x1="1" y1="69.5" x2="91" y2="69.5" stroke="white" />
</g>
<g id="Frame 1797">
<g id="Frame 1786_4">
<text id="&#233;&#160;&#133;&#231;&#155;&#174;&#229;&#144;&#141;3" fill="#8F8F8F" xml:space="preserve" style="white-space: pre" font-family="Noto Sans JP" font-size="7.5" font-weight="bold" letter-spacing="0px" x="5" y="84.2725"><tspan x="5" y="84.2725">&#38917;&#30446;&#21517;3</tspan></text>
</g>
<line id="Line 105_4" x1="37.5" y1="70.0025" x2="37.5" y2="93.0025" stroke="white" />
<line id="Line 107_3" x1="91.5" y1="70.0025" x2="91.5" y2="93.0025" stroke="white" />
<g id="Frame 1787_4">
<text id="&#233;&#160;&#133;&#231;&#155;&#174;&#229;&#134;&#133;&#229;&#174;&#185;3" fill="#8F8F8F" xml:space="preserve" style="white-space: pre" font-family="Noto Sans JP" font-size="9" font-weight="bold" letter-spacing="0px" x="41" y="84.9265"><tspan x="41" y="84.9265">&#38917;&#30446;&#20869;&#23481;3</tspan></text>
</g>
<line id="Line 106_4" x1="1" y1="92.5" x2="91" y2="92.5" stroke="white" />
</g>
<g id="Frame 1798">
<g id="Frame 1786_5">
<text id="&#233;&#160;&#133;&#231;&#155;&#174;&#229;&#144;&#141;4" fill="#8F8F8F" xml:space="preserve" style="white-space: pre" font-family="Noto Sans JP" font-size="7.5" font-weight="bold" letter-spacing="0px" x="5" y="107.273"><tspan x="5" y="107.273">&#38917;&#30446;&#21517;4</tspan></text>
</g>
<line id="Line 105_5" x1="37.5" y1="93.0025" x2="37.5" y2="116.003" stroke="white" />
<line id="Line 107_4" x1="91.5" y1="93.0025" x2="91.5" y2="116.003" stroke="white" />
<g id="Frame 1787_5">
<text id="&#233;&#160;&#133;&#231;&#155;&#174;&#229;&#134;&#133;&#229;&#174;&#185;4" fill="#8F8F8F" xml:space="preserve" style="white-space: pre" font-family="Noto Sans JP" font-size="9" font-weight="bold" letter-spacing="0px" x="41" y="107.927"><tspan x="41" y="107.927">&#38917;&#30446;&#20869;&#23481;4</tspan></text>
</g>
<line id="Line 106_5" x1="1" y1="115.5" x2="91" y2="115.5" stroke="white" />
</g>
<g id="Frame 1799">
<g id="Frame 1786_6">
<text id="&#233;&#160;&#133;&#231;&#155;&#174;&#229;&#144;&#141;5" fill="#8F8F8F" xml:space="preserve" style="white-space: pre" font-family="Noto Sans JP" font-size="7.5" font-weight="bold" letter-spacing="0px" x="5" y="130.273"><tspan x="5" y="130.273">&#38917;&#30446;&#21517;5</tspan></text>
</g>
<line id="Line 105_6" x1="37.5" y1="116.003" x2="37.5" y2="139.003" stroke="white" />
<line id="Line 107_5" x1="91.5" y1="116.003" x2="91.5" y2="139.003" stroke="white" />
<g id="Frame 1787_6">
<text id="&#233;&#160;&#133;&#231;&#155;&#174;&#229;&#134;&#133;&#229;&#174;&#185;5" fill="#8F8F8F" xml:space="preserve" style="white-space: pre" font-family="Noto Sans JP" font-size="9" font-weight="bold" letter-spacing="0px" x="41" y="130.927"><tspan x="41" y="130.927">&#38917;&#30446;&#20869;&#23481;5</tspan></text>
</g>
</g>
<g id="Frame 1795">
<g id="Frame 1788">
<g id="&#232;&#177;&#134;&#229;&#155;&#179;180/off">
<rect width="86" height="111" transform="translate(93 26.0025)" fill="#999999" fill-opacity="0.3" />
<g id="fill-icon/fill-icon_image">
<path id="currentColor" d="M152 65.0025H120C118.939 65.0036 117.923 65.4253 117.173 66.1752C116.423 66.9252 116.001 67.942 116 69.0025V93.0025C116.001 94.063 116.423 95.0798 117.173 95.8298C117.923 96.5797 118.939 97.0014 120 97.0025H152C153.061 97.0014 154.077 96.5797 154.827 95.8298C155.577 95.0798 155.999 94.063 156 93.0025V69.0025C155.999 67.942 155.577 66.9252 154.827 66.1752C154.077 65.4253 153.061 65.0036 152 65.0025ZM125 71.0025C125.593 71.0025 126.173 71.1784 126.667 71.5081C127.16 71.8377 127.545 72.3063 127.772 72.8545C127.999 73.4026 128.058 74.0058 127.942 74.5878C127.827 75.1697 127.541 75.7043 127.121 76.1238C126.702 76.5434 126.167 76.8291 125.585 76.9449C125.003 77.0606 124.4 77.0012 123.852 76.7741C123.304 76.5471 122.835 76.1626 122.506 75.6692C122.176 75.1759 122 74.5958 122 74.0025C122 73.6085 122.078 73.2184 122.228 72.8544C122.379 72.4904 122.6 72.1597 122.879 71.8811C123.157 71.6025 123.488 71.3816 123.852 71.2308C124.216 71.0801 124.606 71.0025 125 71.0025ZM136 91.0025H122L130 81.0025L133 85.0025L139 77.0025L150 91.0025H136Z" fill="#999999" fill-opacity="0.5" />
</g>
</g>
</g>
</g>
</g>
</svg>